SplineFontDB: 3.0
FontName: Karla-Regular
FullName: Karla
FamilyName: Karla
Weight: Book
Copyright: Copyright (c) 2011, Jonathan Pinhorn (pinhorn.typedesign@gmail.com), with Reserved Font Names "Karla" and "Karla Tamil".
Version: 1.000
ItalicAngle: 0
UnderlinePosition: -50
UnderlineWidth: 50
Ascent: 800
Descent: 200
sfntRevision: 0x00010000
LayerCount: 2
Layer: 0 1 "Back"  1
Layer: 1 1 "Fore"  0
NeedsXUIDChange: 1
XUID: [1021 619 1067718245 6939194]
FSType: 8
OS2Version: 3
OS2_WeightWidthSlopeOnly: 0
OS2_UseTypoMetrics: 1
CreationTime: 1307536560
ModificationTime: 1345645682
PfmFamily: 81
TTFWeight: 400
TTFWidth: 5
LineGap: 0
VLineGap: 0
Panose: 0 0 0 0 0 0 0 0 0 0
OS2TypoAscent: 117
OS2TypoAOffset: 1
OS2TypoDescent: -52
OS2TypoDOffset: 1
OS2TypoLinegap: 0
OS2WinAscent: 38
OS2WinAOffset: 1
OS2WinDescent: 6
OS2WinDOffset: 1
HheadAscent: 38
HheadAOffset: 1
HheadDescent: -6
HheadDOffset: 1
OS2SubXSize: 700
OS2SubYSize: 650
OS2SubXOff: 0
OS2SubYOff: 140
OS2SupXSize: 700
OS2SupYSize: 650
OS2SupXOff: 0
OS2SupYOff: 477
OS2StrikeYSize: 50
OS2StrikeYPos: 250
OS2Vendor: 'pyrs'
OS2CodePages: 00000001.00000000
OS2UnicodeRanges: 80000027.08000042.14000000.00000000
Lookup: 1 0 0 "'onum' Oldstyle Figures in Latin lookup 0"  {"'onum' Oldstyle Figures in Latin lookup 0 subtable" ("oldstyle" ) } ['onum' ('latn' <'dflt' > ) ]
Lookup: 258 0 0 "'kern' Horizontal Kerning in Latin lookup 0"  {"'kern' Horizontal Kerning in Latin lookup 0 subtable"  } ['kern' ('latn' <'dflt' > ) ]
MarkAttachClasses: 1
DEI: 91125
TtTable: prep
PUSHW_1
 511
SCANCTRL
PUSHB_1
 4
SCANTYPE
EndTTInstrs
ShortTable: maxp 16
  1
  0
  167
  63
  5
  0
  0
  2
  0
  1
  1
  0
  64
  0
  0
  0
EndShort
LangName: 1033 "" "" "" "FontForge 2.0 : Karla Regular : 13-10-2011" "" "Version 1.000" "" "" "" "Jonathan Pinhorn" "" "" "jonpinhorn.com" "This Font Software is licensed under the SIL Open Font License, Version 1.1." "http://scripts.sil.org/OFL" 
GaspTable: 1 65535 15
Encoding: Custom
UnicodeInterp: none

StartChar: .notdef
Encoding: 155 -1 0
Width: 553
Flags: W
LayerCount: 2
Fore
SplineSet
940.75 418.279 m 5,0,1
 905.9 425.93 905.9 425.93 872.75 445.479 c 4,2,3
 827.7 471.83 827.7 471.83 766.5 534.729 c 4,4,5
 715.5 586.58 715.5 586.58 698.5 601.88 c 5,6,7
 683.2 584.029 683.2 584.029 671.3 565.33 c 5,8,9
 648.35 525.38 648.35 525.38 647.5 482.029 c 4,10,11
 646.65 436.979 646.65 436.979 670.45 398.305 c 132,-1,12
 694.25 359.63 694.25 359.63 735.05 340.08 c 132,-1,13
 775.85 320.529 775.85 320.529 820.475 326.479 c 132,-1,14
 865.1 332.43 865.1 332.43 899.95 361.33 c 4,15,16
 926.3 384.279 926.3 384.279 940.75 418.279 c 5,0,1
950.95 450.58 m 5,17,18
 952.65 463.33 952.65 463.33 953.5 476.08 c 5,19,20
 953.5 508.38 953.5 508.38 939.475 538.979 c 132,-1,21
 925.45 569.58 925.45 569.58 901.65 590.83 c 4,22,23
 896.55 595.08 896.55 595.08 895.7 602.305 c 132,-1,24
 894.85 609.529 894.85 609.529 899.525 614.63 c 132,-1,25
 904.2 619.729 904.2 619.729 911.425 620.58 c 132,-1,26
 918.65 621.43 918.65 621.43 923.75 616.33 c 4,27,28
 953.5 589.979 953.5 589.979 970.5 552.58 c 132,-1,29
 987.5 515.18 987.5 515.18 987.5 475.229 c 5,30,31
 986.65 461.63 986.65 461.63 984.1 446.33 c 5,32,33
 996.85 446.33 996.85 446.33 1007.9 448.029 c 4,34,35
 1040.2 453.13 1040.2 453.13 1065.7 471.83 c 4,36,37
 1092.05 490.529 1092.05 490.529 1105.65 519.43 c 4,38,39
 1119.25 549.18 1119.25 549.18 1115.85 580.63 c 4,40,41
 1113.3 612.08 1113.3 612.08 1094.6 637.58 c 4,42,43
 1065.7 677.529 1065.7 677.529 1008.75 690.279 c 4,44,45
 964.55 700.479 964.55 700.479 901.65 691.979 c 4,46,47
 796.25 678.38 796.25 678.38 730.8 630.779 c 4,48,49
 727.4 628.229 727.4 628.229 724 624.83 c 5,50,51
 740.15 610.38 740.15 610.38 790.3 558.529 c 4,52,53
 848.95 499.029 848.95 499.029 890.6 475.229 c 4,54,55
 920.35 457.38 920.35 457.38 950.95 450.58 c 5,17,18
697.65 646.93 m 5,56,57
 703.6 652.88 703.6 652.88 711.25 657.979 c 4,58,59
 782.65 710.68 782.65 710.68 896.55 725.979 c 4,60,61
 966.25 735.33 966.25 735.33 1017.25 723.43 c 4,62,63
 1086.1 707.279 1086.1 707.279 1121.8 657.979 c 4,64,65
 1146.45 624.83 1146.45 624.83 1149.85 583.18 c 4,66,67
 1153.25 543.229 1153.25 543.229 1136.25 505.83 c 260,68,69
 1119.25 468.43 1119.25 468.43 1086.1 444.63 c 4,70,71
 1053.8 420.83 1053.8 420.83 1013 414.029 c 4,72,73
 995.15 411.479 995.15 411.479 975.6 412.33 c 5,74,75
 957.75 366.43 957.75 366.43 922.05 335.83 c 4,76,77
 879.55 299.279 879.55 299.279 824.725 292.479 c 132,-1,78
 769.9 285.68 769.9 285.68 720.175 309.479 c 132,-1,79
 670.45 333.279 670.45 333.279 641.55 380.455 c 132,-1,80
 612.65 427.63 612.65 427.63 613.5 482.88 c 4,81,82
 614.35 534.729 614.35 534.729 642.4 582.33 c 4,83,84
 655.15 603.58 655.15 603.58 672.15 623.13 c 5,85,86
 671.3 623.979 671.3 623.979 670.45 624.83 c 4,87,88
 611.8 669.029 611.8 669.029 556.55 672.43 c 5,89,90
 491.95 677.529 491.95 677.529 442.65 635.455 c 132,-1,91
 393.35 593.38 393.35 593.38 388.25 528.779 c 4,92,93
 388.25 521.979 388.25 521.979 382.725 517.305 c 132,-1,94
 377.2 512.63 377.2 512.63 369.975 513.479 c 132,-1,95
 362.75 514.33 362.75 514.33 358.5 519.43 c 132,-1,96
 354.25 524.529 354.25 524.529 354.25 531.33 c 4,97,98
 361.05 610.38 361.05 610.38 420.55 661.38 c 132,-1,99
 480.05 712.38 480.05 712.38 559.1 706.43 c 4,100,101
 624.55 702.18 624.55 702.18 690.85 652.029 c 4,102,103
 693.4 650.33 693.4 650.33 697.65 646.93 c 5,56,57
187.275 224.8 m 5,104,105
 178.775 280.05 178.775 280.05 190.676 332.75 c 4,106,107
 193.226 345.5 193.226 345.5 197.476 358.25 c 5,108,109
 194.926 371 194.926 371 194.075 384.601 c 4,110,111
 191.525 420.3 191.525 420.3 198.325 455.15 c 4,112,113
 212.775 525.7 212.775 525.7 260.375 580.95 c 4,114,115
 307.125 634.5 307.125 634.5 375.125 660.851 c 4,116,117
 421.875 678.7 421.875 678.7 472.875 681.25 c 5,118,119
 405.726 703.351 405.726 703.351 338.575 691.45 c 4,120,121
 272.275 680.4 272.275 680.4 216.176 637.051 c 132,-1,122
 160.075 593.7 160.075 593.7 132.45 532.075 c 132,-1,123
 104.825 470.45 104.825 470.45 109.5 399.9 c 132,-1,124
 114.176 329.351 114.176 329.351 149.875 271.55 c 4,125,126
 166.025 246.05 166.025 246.05 187.275 224.8 c 5,104,105
637.775 602.2 m 5,127,128
 685.375 536.75 685.375 536.75 693.875 458.55 c 4,129,130
 694.726 445.8 694.726 445.8 694.726 433.05 c 5,131,132
 695.575 426.25 695.575 426.25 694.726 417.75 c 5,133,134
 698.976 411.8 698.976 411.8 703.226 405.851 c 4,135,136
 706.625 401.601 706.625 401.601 709.176 396.5 c 4,137,138
 755.926 323.4 755.926 323.4 761.875 234.15 c 5,139,140
 766.125 247.75 766.125 247.75 768.676 260.5 c 4,141,142
 789.075 342.95 789.075 342.95 767.825 422.851 c 4,143,144
 745.726 504.45 745.726 504.45 687.075 562.25 c 4,145,146
 664.976 585.2 664.976 585.2 637.775 602.2 c 5,127,128
687.926 365.9 m 5,147,148
 676.025 313.2 676.025 313.2 646.275 270.7 c 4,149,150
 618.226 229.9 618.226 229.9 575.726 201.425 c 132,-1,151
 533.226 172.95 533.226 172.95 484.775 163.601 c 4,152,153
 435.476 153.4 435.476 153.4 385.325 164.025 c 132,-1,154
 335.176 174.65 335.176 174.65 295.226 203.55 c 4,155,156
 245.926 238.4 245.926 238.4 218.726 293.65 c 5,157,158
 214.476 247.75 214.476 247.75 226.375 203.55 c 4,159,160
 228.926 195.9 228.926 195.9 231.476 188.25 c 5,161,162
 239.125 183.15 239.125 183.15 247.625 178.05 c 4,163,164
 307.976 143.2 307.976 143.2 375.976 140.65 c 4,165,166
 382.775 140.65 382.775 140.65 387.45 135.125 c 132,-1,167
 392.125 129.601 392.125 129.601 392.125 122.8 c 132,-1,168
 392.125 116 392.125 116 386.601 111.325 c 132,-1,169
 381.075 106.65 381.075 106.65 374.275 106.65 c 4,170,171
 314.775 109.2 314.775 109.2 257.825 134.7 c 5,172,173
 260.375 129.601 260.375 129.601 263.775 125.351 c 4,174,175
 312.226 58.2002 312.226 58.2002 393.825 31.8506 c 4,176,177
 472.875 6.35059 472.875 6.35059 555.325 30.1504 c 4,178,179
 635.226 53.1006 635.226 53.1006 693.025 116 c 4,180,181
 708.325 133 708.325 133 721.926 153.4 c 5,182,183
 722.775 156.8 722.775 156.8 723.625 160.2 c 4,184,185
 726.176 174.65 726.176 174.65 727.025 189.95 c 4,186,187
 734.676 284.3 734.676 284.3 687.926 365.9 c 5,147,148
688.775 65 m 5,188,189
 632.676 17.4004 632.676 17.4004 564.676 -3 c 4,190,191
 472.875 -29.3496 472.875 -29.3496 383.625 -0.450195 c 4,192,193
 291.825 29.2998 291.825 29.2998 236.575 105.8 c 4,194,195
 222.976 124.5 222.976 124.5 212.775 145.75 c 4,196,197
 207.676 155.95 207.676 155.95 203.426 166.15 c 5,198,199
 194.926 172.101 194.926 172.101 187.275 178.9 c 4,200,201
 147.325 211.2 147.325 211.2 120.976 253.7 c 4,202,203
 81.0254 318.3 81.0254 318.3 75.9258 397.351 c 132,-1,204
 70.8252 476.4 70.8252 476.4 101.851 546.101 c 132,-1,205
 132.875 615.801 132.875 615.801 195.351 663.825 c 132,-1,206
 257.825 711.851 257.825 711.851 333.476 725.45 c 4,207,208
 436.325 743.301 436.325 743.301 531.525 693.15 c 4,209,210
 551.075 682.95 551.075 682.95 569.775 669.351 c 5,211,212
 591.025 663.4 591.025 663.4 611.426 654.9 c 4,213,214
 667.525 630.25 667.525 630.25 710.875 586.9 c 4,215,216
 776.325 521.45 776.325 521.45 800.125 431.351 c 4,217,218
 823.926 342.95 823.926 342.95 801.825 252.851 c 4,219,220
 792.476 213.75 792.476 213.75 775.476 178.05 c 4,221,222
 766.125 158.5 766.125 158.5 754.226 139.8 c 5,223,224
 749.125 117.7 749.125 117.7 740.625 95.6006 c 4,225,226
 705.775 2.9502 705.775 2.9502 627.575 -55.7002 c 4,227,228
 576.575 -93.9502 576.575 -93.9502 514.525 -111.375 c 132,-1,229
 452.476 -128.8 452.476 -128.8 389.575 -122.425 c 132,-1,230
 326.676 -116.05 326.676 -116.05 269.301 -86.7246 c 132,-1,231
 211.926 -57.3994 211.926 -57.3994 169.426 -9.7998 c 4,232,233
 165.176 -4.7002 165.176 -4.7002 165.601 2.52539 c 132,-1,234
 166.025 9.75 166.025 9.75 171.125 14.4248 c 132,-1,235
 176.226 19.1006 176.226 19.1006 183.45 18.6748 c 132,-1,236
 190.676 18.25 190.676 18.25 194.926 12.2998 c 4,237,238
 233.176 -30.2002 233.176 -30.2002 285.025 -56.5498 c 132,-1,239
 336.875 -82.8994 336.875 -82.8994 392.976 -88.4248 c 132,-1,240
 449.075 -93.9502 449.075 -93.9502 505.176 -78.2246 c 132,-1,241
 561.275 -62.5 561.275 -62.5 607.176 -28.5 c 4,242,243
 657.325 8.90039 657.325 8.90039 688.775 65 c 5,188,189
228.075 419.45 m 5,244,245
 247.625 449.2 247.625 449.2 272.275 472.15 c 4,246,247
 323.275 518.9 323.275 518.9 390.426 535.051 c 4,248,249
 482.226 557.15 482.226 557.15 572.325 517.2 c 5,250,251
 619.926 495.101 619.926 495.101 659.875 457.7 c 5,252,253
 648.825 545.25 648.825 545.25 586.775 609.851 c 4,254,255
 572.325 625.15 572.325 625.15 554.476 638.75 c 5,256,257
 551.075 639.601 551.075 639.601 546.825 640.45 c 4,258,259
 532.375 643.851 532.375 643.851 517.926 645.551 c 4,260,261
 449.926 653.2 449.926 653.2 387.875 629.4 c 4,262,263
 327.525 606.45 327.525 606.45 285.875 558.851 c 4,264,265
 244.226 510.4 244.226 510.4 231.476 449.2 c 4,266,267
 228.926 434.75 228.926 434.75 228.075 419.45 c 5,244,245
233.176 355.7 m 5,268,269
 236.575 340.4 236.575 340.4 241.676 327.65 c 4,270,271
 263.775 267.3 263.775 267.3 314.775 230.75 c 4,272,273
 349.625 206.101 349.625 206.101 392.976 197.175 c 132,-1,274
 436.325 188.25 436.325 188.25 477.976 196.75 c 4,275,276
 520.476 205.25 520.476 205.25 557.025 229.9 c 132,-1,277
 593.575 254.55 593.575 254.55 618.226 290.25 c 4,278,279
 651.375 337 651.375 337 659.025 396.5 c 4,280,281
 659.875 401.601 659.875 401.601 659.875 406.7 c 5,282,283
 656.476 411.8 656.476 411.8 653.075 415.2 c 4,284,285
 612.275 461.95 612.275 461.95 557.875 485.75 c 4,286,287
 478.825 521.45 478.825 521.45 398.075 501.9 c 4,288,289
 340.275 487.45 340.275 487.45 295.226 446.65 c 4,290,291
 261.226 416.05 261.226 416.05 241.676 374.4 c 4,292,293
 236.575 365.05 236.575 365.05 233.176 355.7 c 5,268,269
EndSplineSet
EndChar

StartChar: .null
Encoding: 156 -1 1
Width: 0
GlyphClass: 2
Flags: W
LayerCount: 2
Fore
SplineSet
1081 95.084 m 5,0,1
 1072.5 92.5342 1072.5 92.5342 1064.85 90.834 c 4,2,3
 1030 84.8838 1030 84.8838 995.147 98.4844 c 4,4,5
 963.697 111.234 963.697 111.234 939.047 138.435 c 4,6,7
 899.098 181.784 899.098 181.784 885.497 256.584 c 4,8,9
 882.098 275.284 882.098 275.284 879.547 298.234 c 5,10,11
 865.947 303.334 865.947 303.334 856.598 306.734 c 4,12,13
 796.247 329.684 796.247 329.684 763.098 358.584 c 5,14,15
 758.848 352.634 758.848 352.634 755.447 348.384 c 4,16,17
 708.697 282.934 708.697 282.934 716.348 202.185 c 4,18,19
 717.197 195.384 717.197 195.384 712.947 189.859 c 132,-1,20
 708.697 184.334 708.697 184.334 701.473 183.909 c 132,-1,21
 694.247 183.484 694.247 183.484 688.723 187.734 c 132,-1,22
 683.197 191.984 683.197 191.984 683.197 198.784 c 4,23,24
 672.997 291.434 672.997 291.434 727.397 367.934 c 4,25,26
 733.348 375.584 733.348 375.584 739.297 382.384 c 5,27,28
 718.047 408.734 718.047 408.734 710.397 438.484 c 4,29,30
 701.047 476.734 701.047 476.734 714.647 510.734 c 4,31,32
 730.797 548.984 730.797 548.984 767.348 563.435 c 4,33,34
 786.897 571.084 786.897 571.084 806.447 569.384 c 4,35,36
 826.848 567.685 826.848 567.685 843.848 555.784 c 4,37,38
 865.947 540.484 865.947 540.484 880.397 507.334 c 4,39,40
 888.897 489.484 888.897 489.484 893.997 469.084 c 5,41,42
 974.747 480.134 974.747 480.134 1045.3 441.884 c 4,43,44
 1085.25 420.634 1085.25 420.634 1115 386.209 c 132,-1,45
 1144.75 351.784 1144.75 351.784 1160.05 310.134 c 4,46,47
 1186.4 240.435 1186.4 240.435 1164.3 179.234 c 4,48,49
 1151.55 145.234 1151.55 145.234 1126.9 122.284 c 4,50,51
 1120.1 116.334 1120.1 116.334 1112.45 111.234 c 5,52,53
 1122.65 60.2344 1122.65 60.2344 1112.87 7.95898 c 132,-1,54
 1103.1 -44.3154 1103.1 -44.3154 1075.9 -87.666 c 4,55,56
 1072.5 -93.6162 1072.5 -93.6162 1065.27 -94.8906 c 132,-1,57
 1058.05 -96.166 1058.05 -96.166 1052.52 -92.7656 c 132,-1,58
 1047 -89.3662 1047 -89.3662 1045.3 -82.1406 c 132,-1,59
 1043.6 -74.916 1043.6 -74.916 1047 -68.9658 c 4,60,61
 1094.6 5.83398 1094.6 5.83398 1081 95.084 c 5,0,1
911.848 322.884 m 5,62,63
 960.297 304.184 960.297 304.184 987.497 288.034 c 4,64,65
 1069.95 237.884 1069.95 237.884 1102.25 146.084 c 5,66,67
 1103.1 146.935 1103.1 146.935 1103.95 146.935 c 4,68,69
 1122.65 164.784 1122.65 164.784 1132 191.134 c 4,70,71
 1149.85 239.584 1149.85 239.584 1128.6 298.234 c 4,72,73
 1115 333.934 1115 333.934 1089.07 363.684 c 132,-1,74
 1063.15 393.434 1063.15 393.434 1029.15 412.134 c 4,75,76
 969.647 443.584 969.647 443.584 901.647 435.084 c 5,77,78
 905.047 412.134 905.047 412.134 907.598 382.384 c 4,79,80
 908.447 372.184 908.447 372.184 909.723 351.784 c 132,-1,81
 910.997 331.384 910.997 331.384 911.848 322.884 c 5,62,63
786.897 382.384 m 5,82,83
 815.797 359.434 815.797 359.434 869.348 338.184 c 4,84,85
 872.747 337.334 872.747 337.334 876.997 335.634 c 5,86,87
 874.447 374.734 874.447 374.734 873.598 379.834 c 4,88,89
 871.897 407.884 871.897 407.884 868.497 428.284 c 5,90,91
 822.598 414.684 822.598 414.684 786.897 382.384 c 5,82,83
763.098 407.034 m 5,92,93
 805.598 446.134 805.598 446.134 860.848 461.434 c 5,94,95
 856.598 479.284 856.598 479.284 849.797 493.734 c 4,96,97
 838.747 518.384 838.747 518.384 824.297 527.734 c 4,98,99
 814.947 534.534 814.947 534.534 803.047 535.384 c 132,-1,100
 791.147 536.234 791.147 536.234 780.098 531.984 c 4,101,102
 756.297 522.634 756.297 522.634 746.098 497.984 c 4,103,104
 736.747 474.184 736.747 474.184 743.547 446.984 c 4,105,106
 748.647 426.584 748.647 426.584 763.098 407.034 c 5,92,93
915.247 284.634 m 5,107,108
 916.947 272.734 916.947 272.734 918.647 262.534 c 4,109,110
 931.397 197.935 931.397 197.935 964.547 161.384 c 4,111,112
 984.098 140.134 984.098 140.134 1007.9 129.935 c 4,113,114
 1033.4 119.734 1033.4 119.734 1058.9 124.834 c 4,115,116
 1065.7 125.685 1065.7 125.685 1072.5 128.234 c 5,117,118
 1059.75 169.034 1059.75 169.034 1032.97 203.034 c 132,-1,119
 1006.2 237.034 1006.2 237.034 970.497 258.284 c 4,120,121
 948.397 271.884 948.397 271.884 915.247 284.634 c 5,107,108
187.275 224.8 m 5,122,123
 178.775 280.05 178.775 280.05 190.676 332.75 c 4,124,125
 193.226 345.5 193.226 345.5 197.476 358.25 c 5,126,127
 194.926 371 194.926 371 194.075 384.601 c 4,128,129
 191.525 420.3 191.525 420.3 198.325 455.15 c 4,130,131
 212.775 525.7 212.775 525.7 260.375 580.95 c 4,132,133
 307.125 634.5 307.125 634.5 375.125 660.851 c 4,134,135
 421.875 678.7 421.875 678.7 472.875 681.25 c 5,136,137
 405.726 703.351 405.726 703.351 338.575 691.45 c 4,138,139
 272.275 680.4 272.275 680.4 216.176 637.051 c 132,-1,140
 160.075 593.7 160.075 593.7 132.45 532.075 c 132,-1,141
 104.825 470.45 104.825 470.45 109.5 399.9 c 132,-1,142
 114.176 329.351 114.176 329.351 149.875 271.55 c 4,143,144
 166.025 246.05 166.025 246.05 187.275 224.8 c 5,122,123
637.775 602.2 m 5,145,146
 685.375 536.75 685.375 536.75 693.875 458.55 c 4,147,148
 694.726 445.8 694.726 445.8 694.726 433.05 c 5,149,150
 695.575 426.25 695.575 426.25 694.726 417.75 c 5,151,152
 698.976 411.8 698.976 411.8 703.226 405.851 c 4,153,154
 706.625 401.601 706.625 401.601 709.176 396.5 c 4,155,156
 755.926 323.4 755.926 323.4 761.875 234.15 c 5,157,158
 766.125 247.75 766.125 247.75 768.676 260.5 c 4,159,160
 789.075 342.95 789.075 342.95 767.825 422.851 c 4,161,162
 745.726 504.45 745.726 504.45 687.075 562.25 c 4,163,164
 664.976 585.2 664.976 585.2 637.775 602.2 c 5,145,146
687.926 365.9 m 5,165,166
 676.025 313.2 676.025 313.2 646.275 270.7 c 4,167,168
 618.226 229.9 618.226 229.9 575.726 201.425 c 132,-1,169
 533.226 172.95 533.226 172.95 484.775 163.601 c 4,170,171
 435.476 153.4 435.476 153.4 385.325 164.025 c 132,-1,172
 335.176 174.65 335.176 174.65 295.226 203.55 c 4,173,174
 245.926 238.4 245.926 238.4 218.726 293.65 c 5,175,176
 214.476 247.75 214.476 247.75 226.375 203.55 c 4,177,178
 228.926 195.9 228.926 195.9 231.476 188.25 c 5,179,180
 239.125 183.15 239.125 183.15 247.625 178.05 c 4,181,182
 307.976 143.2 307.976 143.2 375.976 140.65 c 4,183,184
 382.775 140.65 382.775 140.65 387.45 135.125 c 132,-1,185
 392.125 129.601 392.125 129.601 392.125 122.8 c 132,-1,186
 392.125 116 392.125 116 386.601 111.325 c 132,-1,187
 381.075 106.65 381.075 106.65 374.275 106.65 c 4,188,189
 314.775 109.2 314.775 109.2 257.825 134.7 c 5,190,191
 260.375 129.601 260.375 129.601 263.775 125.351 c 4,192,193
 312.226 58.2002 312.226 58.2002 393.825 31.8506 c 4,194,195
 472.875 6.35059 472.875 6.35059 555.325 30.1504 c 4,196,197
 635.226 53.1006 635.226 53.1006 693.025 116 c 4,198,199
 708.325 133 708.325 133 721.926 153.4 c 5,200,201
 722.775 156.8 722.775 156.8 723.625 160.2 c 4,202,203
 726.176 174.65 726.176 174.65 727.025 189.95 c 4,204,205
 734.676 284.3 734.676 284.3 687.926 365.9 c 5,165,166
688.775 65 m 5,206,207
 632.676 17.4004 632.676 17.4004 564.676 -3 c 4,208,209
 472.875 -29.3496 472.875 -29.3496 383.625 -0.450195 c 4,210,211
 291.825 29.2998 291.825 29.2998 236.575 105.8 c 4,212,213
 222.976 124.5 222.976 124.5 212.775 145.75 c 4,214,215
 207.676 155.95 207.676 155.95 203.426 166.15 c 5,216,217
 194.926 172.101 194.926 172.101 187.275 178.9 c 4,218,219
 147.325 211.2 147.325 211.2 120.976 253.7 c 4,220,221
 81.0254 318.3 81.0254 318.3 75.9258 397.351 c 132,-1,222
 70.8252 476.4 70.8252 476.4 101.851 546.101 c 132,-1,223
 132.875 615.801 132.875 615.801 195.351 663.825 c 132,-1,224
 257.825 711.851 257.825 711.851 333.476 725.45 c 4,225,226
 436.325 743.301 436.325 743.301 531.525 693.15 c 4,227,228
 551.075 682.95 551.075 682.95 569.775 669.351 c 5,229,230
 591.025 663.4 591.025 663.4 611.426 654.9 c 4,231,232
 667.525 630.25 667.525 630.25 710.875 586.9 c 4,233,234
 776.325 521.45 776.325 521.45 800.125 431.351 c 4,235,236
 823.926 342.95 823.926 342.95 801.825 252.851 c 4,237,238
 792.476 213.75 792.476 213.75 775.476 178.05 c 4,239,240
 766.125 158.5 766.125 158.5 754.226 139.8 c 5,241,242
 749.125 117.7 749.125 117.7 740.625 95.6006 c 4,243,244
 705.775 2.9502 705.775 2.9502 627.575 -55.7002 c 4,245,246
 576.575 -93.9502 576.575 -93.9502 514.525 -111.375 c 132,-1,247
 452.476 -128.8 452.476 -128.8 389.575 -122.425 c 132,-1,248
 326.676 -116.05 326.676 -116.05 269.301 -86.7246 c 132,-1,249
 211.926 -57.3994 211.926 -57.3994 169.426 -9.7998 c 4,250,251
 165.176 -4.7002 165.176 -4.7002 165.601 2.52539 c 132,-1,252
 166.025 9.75 166.025 9.75 171.125 14.4248 c 132,-1,253
 176.226 19.1006 176.226 19.1006 183.45 18.6748 c 132,-1,254
 190.676 18.25 190.676 18.25 194.926 12.2998 c 4,255,256
 233.176 -30.2002 233.176 -30.2002 285.025 -56.5498 c 132,-1,257
 336.875 -82.8994 336.875 -82.8994 392.976 -88.4248 c 132,-1,258
 449.075 -93.9502 449.075 -93.9502 505.176 -78.2246 c 132,-1,259
 561.275 -62.5 561.275 -62.5 607.176 -28.5 c 4,260,261
 657.325 8.90039 657.325 8.90039 688.775 65 c 5,206,207
228.075 419.45 m 5,262,263
 247.625 449.2 247.625 449.2 272.275 472.15 c 4,264,265
 323.275 518.9 323.275 518.9 390.426 535.051 c 4,266,267
 482.226 557.15 482.226 557.15 572.325 517.2 c 5,268,269
 619.926 495.101 619.926 495.101 659.875 457.7 c 5,270,271
 648.825 545.25 648.825 545.25 586.775 609.851 c 4,272,273
 572.325 625.15 572.325 625.15 554.476 638.75 c 5,274,275
 551.075 639.601 551.075 639.601 546.825 640.45 c 4,276,277
 532.375 643.851 532.375 643.851 517.926 645.551 c 4,278,279
 449.926 653.2 449.926 653.2 387.875 629.4 c 4,280,281
 327.525 606.45 327.525 606.45 285.875 558.851 c 4,282,283
 244.226 510.4 244.226 510.4 231.476 449.2 c 4,284,285
 228.926 434.75 228.926 434.75 228.075 419.45 c 5,262,263
233.176 355.7 m 5,286,287
 236.575 340.4 236.575 340.4 241.676 327.65 c 4,288,289
 263.775 267.3 263.775 267.3 314.775 230.75 c 4,290,291
 349.625 206.101 349.625 206.101 392.976 197.175 c 132,-1,292
 436.325 188.25 436.325 188.25 477.976 196.75 c 4,293,294
 520.476 205.25 520.476 205.25 557.025 229.9 c 132,-1,295
 593.575 254.55 593.575 254.55 618.226 290.25 c 4,296,297
 651.375 337 651.375 337 659.025 396.5 c 4,298,299
 659.875 401.601 659.875 401.601 659.875 406.7 c 5,300,301
 656.476 411.8 656.476 411.8 653.075 415.2 c 4,302,303
 612.275 461.95 612.275 461.95 557.875 485.75 c 4,304,305
 478.825 521.45 478.825 521.45 398.075 501.9 c 4,306,307
 340.275 487.45 340.275 487.45 295.226 446.65 c 4,308,309
 261.226 416.05 261.226 416.05 241.676 374.4 c 4,310,311
 236.575 365.05 236.575 365.05 233.176 355.7 c 5,286,287
EndSplineSet
EndChar

StartChar: nonmarkingreturn
Encoding: 157 -1 2
Width: 553
GlyphClass: 2
Flags: W
LayerCount: 2
Fore
SplineSet
940.75 418.279 m 5,0,1
 905.9 425.93 905.9 425.93 872.75 445.479 c 4,2,3
 827.7 471.83 827.7 471.83 766.5 534.729 c 4,4,5
 715.5 586.58 715.5 586.58 698.5 601.88 c 5,6,7
 683.2 584.029 683.2 584.029 671.3 565.33 c 5,8,9
 648.35 525.38 648.35 525.38 647.5 482.029 c 4,10,11
 646.65 436.979 646.65 436.979 670.45 398.305 c 132,-1,12
 694.25 359.63 694.25 359.63 735.05 340.08 c 132,-1,13
 775.85 320.529 775.85 320.529 820.475 326.479 c 132,-1,14
 865.1 332.43 865.1 332.43 899.95 361.33 c 4,15,16
 926.3 384.279 926.3 384.279 940.75 418.279 c 5,0,1
950.95 450.58 m 5,17,18
 952.65 463.33 952.65 463.33 953.5 476.08 c 5,19,20
 953.5 508.38 953.5 508.38 939.475 538.979 c 132,-1,21
 925.45 569.58 925.45 569.58 901.65 590.83 c 4,22,23
 896.55 595.08 896.55 595.08 895.7 602.305 c 132,-1,24
 894.85 609.529 894.85 609.529 899.525 614.63 c 132,-1,25
 904.2 619.729 904.2 619.729 911.425 620.58 c 132,-1,26
 918.65 621.43 918.65 621.43 923.75 616.33 c 4,27,28
 953.5 589.979 953.5 589.979 970.5 552.58 c 132,-1,29
 987.5 515.18 987.5 515.18 987.5 475.229 c 5,30,31
 986.65 461.63 986.65 461.63 984.1 446.33 c 5,32,33
 996.85 446.33 996.85 446.33 1007.9 448.029 c 4,34,35
 1040.2 453.13 1040.2 453.13 1065.7 471.83 c 4,36,37
 1092.05 490.529 1092.05 490.529 1105.65 519.43 c 4,38,39
 1119.25 549.18 1119.25 549.18 1115.85 580.63 c 4,40,41
 1113.3 612.08 1113.3 612.08 1094.6 637.58 c 4,42,43
 1065.7 677.529 1065.7 677.529 1008.75 690.279 c 4,44,45
 964.55 700.479 964.55 700.479 901.65 691.979 c 4,46,47
 796.25 678.38 796.25 678.38 730.8 630.779 c 4,48,49
 727.4 628.229 727.4 628.229 724 624.83 c 5,50,51
 740.15 610.38 740.15 610.38 790.3 558.529 c 4,52,53
 848.95 499.029 848.95 499.029 890.6 475.229 c 4,54,55
 920.35 457.38 920.35 457.38 950.95 450.58 c 5,17,18
697.65 646.93 m 5,56,57
 703.6 652.88 703.6 652.88 711.25 657.979 c 4,58,59
 782.65 710.68 782.65 710.68 896.55 725.979 c 4,60,61
 966.25 735.33 966.25 735.33 1017.25 723.43 c 4,62,63
 1086.1 707.279 1086.1 707.279 1121.8 657.979 c 4,64,65
 1146.45 624.83 1146.45 624.83 1149.85 583.18 c 4,66,67
 1153.25 543.229 1153.25 543.229 1136.25 505.83 c 260,68,69
 1119.25 468.43 1119.25 468.43 1086.1 444.63 c 4,70,71
 1053.8 420.83 1053.8 420.83 1013 414.029 c 4,72,73
 995.15 411.479 995.15 411.479 975.6 412.33 c 5,74,75
 957.75 366.43 957.75 366.43 922.05 335.83 c 4,76,77
 879.55 299.279 879.55 299.279 824.725 292.479 c 132,-1,78
 769.9 285.68 769.9 285.68 720.175 309.479 c 132,-1,79
 670.45 333.279 670.45 333.279 641.55 380.455 c 132,-1,80
 612.65 427.63 612.65 427.63 613.5 482.88 c 4,81,82
 614.35 534.729 614.35 534.729 642.4 582.33 c 4,83,84
 655.15 603.58 655.15 603.58 672.15 623.13 c 5,85,86
 671.3 623.979 671.3 623.979 670.45 624.83 c 4,87,88
 611.8 669.029 611.8 669.029 556.55 672.43 c 5,89,90
 491.95 677.529 491.95 677.529 442.65 635.455 c 132,-1,91
 393.35 593.38 393.35 593.38 388.25 528.779 c 4,92,93
 388.25 521.979 388.25 521.979 382.725 517.305 c 132,-1,94
 377.2 512.63 377.2 512.63 369.975 513.479 c 132,-1,95
 362.75 514.33 362.75 514.33 358.5 519.43 c 132,-1,96
 354.25 524.529 354.25 524.529 354.25 531.33 c 4,97,98
 361.05 610.38 361.05 610.38 420.55 661.38 c 132,-1,99
 480.05 712.38 480.05 712.38 559.1 706.43 c 4,100,101
 624.55 702.18 624.55 702.18 690.85 652.029 c 4,102,103
 693.4 650.33 693.4 650.33 697.65 646.93 c 5,56,57
EndSplineSet
EndChar

StartChar: space
Encoding: 0 32 3
AltUni2: 0000a0.ffffffff.0
Width: 238
GlyphClass: 2
Flags: W
LayerCount: 2
Fore
SplineSet
187.275 224.8 m 5,0,1
 178.775 280.05 178.775 280.05 190.676 332.75 c 4,2,3
 193.226 345.5 193.226 345.5 197.476 358.25 c 5,4,5
 194.926 371 194.926 371 194.075 384.601 c 4,6,7
 191.525 420.3 191.525 420.3 198.325 455.15 c 4,8,9
 212.775 525.7 212.775 525.7 260.375 580.95 c 4,10,11
 307.125 634.5 307.125 634.5 375.125 660.851 c 4,12,13
 421.875 678.7 421.875 678.7 472.875 681.25 c 5,14,15
 405.726 703.351 405.726 703.351 338.575 691.45 c 4,16,17
 272.275 680.4 272.275 680.4 216.176 637.051 c 132,-1,18
 160.075 593.7 160.075 593.7 132.45 532.075 c 132,-1,19
 104.825 470.45 104.825 470.45 109.5 399.9 c 132,-1,20
 114.176 329.351 114.176 329.351 149.875 271.55 c 4,21,22
 166.025 246.05 166.025 246.05 187.275 224.8 c 5,0,1
637.775 602.2 m 5,23,24
 685.375 536.75 685.375 536.75 693.875 458.55 c 4,25,26
 694.726 445.8 694.726 445.8 694.726 433.05 c 5,27,28
 695.575 426.25 695.575 426.25 694.726 417.75 c 5,29,30
 698.976 411.8 698.976 411.8 703.226 405.851 c 4,31,32
 706.625 401.601 706.625 401.601 709.176 396.5 c 4,33,34
 755.926 323.4 755.926 323.4 761.875 234.15 c 5,35,36
 766.125 247.75 766.125 247.75 768.676 260.5 c 4,37,38
 789.075 342.95 789.075 342.95 767.825 422.851 c 4,39,40
 745.726 504.45 745.726 504.45 687.075 562.25 c 4,41,42
 664.976 585.2 664.976 585.2 637.775 602.2 c 5,23,24
687.926 365.9 m 5,43,44
 676.025 313.2 676.025 313.2 646.275 270.7 c 4,45,46
 618.226 229.9 618.226 229.9 575.726 201.425 c 132,-1,47
 533.226 172.95 533.226 172.95 484.775 163.601 c 4,48,49
 435.476 153.4 435.476 153.4 385.325 164.025 c 132,-1,50
 335.176 174.65 335.176 174.65 295.226 203.55 c 4,51,52
 245.926 238.4 245.926 238.4 218.726 293.65 c 5,53,54
 214.476 247.75 214.476 247.75 226.375 203.55 c 4,55,56
 228.926 195.9 228.926 195.9 231.476 188.25 c 5,57,58
 239.125 183.15 239.125 183.15 247.625 178.05 c 4,59,60
 307.976 143.2 307.976 143.2 375.976 140.65 c 4,61,62
 382.775 140.65 382.775 140.65 387.45 135.125 c 132,-1,63
 392.125 129.601 392.125 129.601 392.125 122.8 c 132,-1,64
 392.125 116 392.125 116 386.601 111.325 c 132,-1,65
 381.075 106.65 381.075 106.65 374.275 106.65 c 4,66,67
 314.775 109.2 314.775 109.2 257.825 134.7 c 5,68,69
 260.375 129.601 260.375 129.601 263.775 125.351 c 4,70,71
 312.226 58.2002 312.226 58.2002 393.825 31.8506 c 4,72,73
 472.875 6.35059 472.875 6.35059 555.325 30.1504 c 4,74,75
 635.226 53.1006 635.226 53.1006 693.025 116 c 4,76,77
 708.325 133 708.325 133 721.926 153.4 c 5,78,79
 722.775 156.8 722.775 156.8 723.625 160.2 c 4,80,81
 726.176 174.65 726.176 174.65 727.025 189.95 c 4,82,83
 734.676 284.3 734.676 284.3 687.926 365.9 c 5,43,44
688.775 65 m 5,84,85
 632.676 17.4004 632.676 17.4004 564.676 -3 c 4,86,87
 472.875 -29.3496 472.875 -29.3496 383.625 -0.450195 c 4,88,89
 291.825 29.2998 291.825 29.2998 236.575 105.8 c 4,90,91
 222.976 124.5 222.976 124.5 212.775 145.75 c 4,92,93
 207.676 155.95 207.676 155.95 203.426 166.15 c 5,94,95
 194.926 172.101 194.926 172.101 187.275 178.9 c 4,96,97
 147.325 211.2 147.325 211.2 120.976 253.7 c 4,98,99
 81.0254 318.3 81.0254 318.3 75.9258 397.351 c 132,-1,100
 70.8252 476.4 70.8252 476.4 101.851 546.101 c 132,-1,101
 132.875 615.801 132.875 615.801 195.351 663.825 c 132,-1,102
 257.825 711.851 257.825 711.851 333.476 725.45 c 4,103,104
 436.325 743.301 436.325 743.301 531.525 693.15 c 4,105,106
 551.075 682.95 551.075 682.95 569.775 669.351 c 5,107,108
 591.025 663.4 591.025 663.4 611.426 654.9 c 4,109,110
 667.525 630.25 667.525 630.25 710.875 586.9 c 4,111,112
 776.325 521.45 776.325 521.45 800.125 431.351 c 4,113,114
 823.926 342.95 823.926 342.95 801.825 252.851 c 4,115,116
 792.476 213.75 792.476 213.75 775.476 178.05 c 4,117,118
 766.125 158.5 766.125 158.5 754.226 139.8 c 5,119,120
 749.125 117.7 749.125 117.7 740.625 95.6006 c 4,121,122
 705.775 2.9502 705.775 2.9502 627.575 -55.7002 c 4,123,124
 576.575 -93.9502 576.575 -93.9502 514.525 -111.375 c 132,-1,125
 452.476 -128.8 452.476 -128.8 389.575 -122.425 c 132,-1,126
 326.676 -116.05 326.676 -116.05 269.301 -86.7246 c 132,-1,127
 211.926 -57.3994 211.926 -57.3994 169.426 -9.7998 c 4,128,129
 165.176 -4.7002 165.176 -4.7002 165.601 2.52539 c 132,-1,130
 166.025 9.75 166.025 9.75 171.125 14.4248 c 132,-1,131
 176.226 19.1006 176.226 19.1006 183.45 18.6748 c 132,-1,132
 190.676 18.25 190.676 18.25 194.926 12.2998 c 4,133,134
 233.176 -30.2002 233.176 -30.2002 285.025 -56.5498 c 132,-1,135
 336.875 -82.8994 336.875 -82.8994 392.976 -88.4248 c 132,-1,136
 449.075 -93.9502 449.075 -93.9502 505.176 -78.2246 c 132,-1,137
 561.275 -62.5 561.275 -62.5 607.176 -28.5 c 4,138,139
 657.325 8.90039 657.325 8.90039 688.775 65 c 5,84,85
228.075 419.45 m 5,140,141
 247.625 449.2 247.625 449.2 272.275 472.15 c 4,142,143
 323.275 518.9 323.275 518.9 390.426 535.051 c 4,144,145
 482.226 557.15 482.226 557.15 572.325 517.2 c 5,146,147
 619.926 495.101 619.926 495.101 659.875 457.7 c 5,148,149
 648.825 545.25 648.825 545.25 586.775 609.851 c 4,150,151
 572.325 625.15 572.325 625.15 554.476 638.75 c 5,152,153
 551.075 639.601 551.075 639.601 546.825 640.45 c 4,154,155
 532.375 643.851 532.375 643.851 517.926 645.551 c 4,156,157
 449.926 653.2 449.926 653.2 387.875 629.4 c 4,158,159
 327.525 606.45 327.525 606.45 285.875 558.851 c 4,160,161
 244.226 510.4 244.226 510.4 231.476 449.2 c 4,162,163
 228.926 434.75 228.926 434.75 228.075 419.45 c 5,140,141
233.176 355.7 m 5,164,165
 236.575 340.4 236.575 340.4 241.676 327.65 c 4,166,167
 263.775 267.3 263.775 267.3 314.775 230.75 c 4,168,169
 349.625 206.101 349.625 206.101 392.976 197.175 c 132,-1,170
 436.325 188.25 436.325 188.25 477.976 196.75 c 4,171,172
 520.476 205.25 520.476 205.25 557.025 229.9 c 132,-1,173
 593.575 254.55 593.575 254.55 618.226 290.25 c 4,174,175
 651.375 337 651.375 337 659.025 396.5 c 4,176,177
 659.875 401.601 659.875 401.601 659.875 406.7 c 5,178,179
 656.476 411.8 656.476 411.8 653.075 415.2 c 4,180,181
 612.275 461.95 612.275 461.95 557.875 485.75 c 4,182,183
 478.825 521.45 478.825 521.45 398.075 501.9 c 4,184,185
 340.275 487.45 340.275 487.45 295.226 446.65 c 4,186,187
 261.226 416.05 261.226 416.05 241.676 374.4 c 4,188,189
 236.575 365.05 236.575 365.05 233.176 355.7 c 5,164,165
EndSplineSet
EndChar

StartChar: exclam
Encoding: 1 33 4
Width: 278
GlyphClass: 2
Flags: W
LayerCount: 2
Fore
SplineSet
99 627 m 1,0,-1
 182 627 l 1,1,-1
 173 176 l 1,2,-1
 109 176 l 1,3,-1
 99 627 l 1,0,-1
98.5 7.5 m 128,-1,5
 82 24 82 24 82 47.5 c 128,-1,6
 82 71 82 71 98.5 87.5 c 128,-1,7
 115 104 115 104 140.5 104 c 128,-1,8
 166 104 166 104 183.5 87.5 c 128,-1,9
 201 71 201 71 201 47.5 c 128,-1,10
 201 24 201 24 183.5 7.5 c 128,-1,11
 166 -9 166 -9 140.5 -9 c 128,-1,4
 115 -9 115 -9 98.5 7.5 c 128,-1,5
1081 95.084 m 5,12,13
 1072.5 92.5342 1072.5 92.5342 1064.85 90.834 c 4,14,15
 1030 84.8838 1030 84.8838 995.147 98.4844 c 4,16,17
 963.697 111.234 963.697 111.234 939.047 138.435 c 4,18,19
 899.098 181.784 899.098 181.784 885.497 256.584 c 4,20,21
 882.098 275.284 882.098 275.284 879.547 298.234 c 5,22,23
 865.947 303.334 865.947 303.334 856.598 306.734 c 4,24,25
 796.247 329.684 796.247 329.684 763.098 358.584 c 5,26,27
 758.848 352.634 758.848 352.634 755.447 348.384 c 4,28,29
 708.697 282.934 708.697 282.934 716.348 202.185 c 4,30,31
 717.197 195.384 717.197 195.384 712.947 189.859 c 132,-1,32
 708.697 184.334 708.697 184.334 701.473 183.909 c 132,-1,33
 694.247 183.484 694.247 183.484 688.723 187.734 c 132,-1,34
 683.197 191.984 683.197 191.984 683.197 198.784 c 4,35,36
 672.997 291.434 672.997 291.434 727.397 367.934 c 4,37,38
 733.348 375.584 733.348 375.584 739.297 382.384 c 5,39,40
 718.047 408.734 718.047 408.734 710.397 438.484 c 4,41,42
 701.047 476.734 701.047 476.734 714.647 510.734 c 4,43,44
 730.797 548.984 730.797 548.984 767.348 563.435 c 4,45,46
 786.897 571.084 786.897 571.084 806.447 569.384 c 4,47,48
 826.848 567.685 826.848 567.685 843.848 555.784 c 4,49,50
 865.947 540.484 865.947 540.484 880.397 507.334 c 4,51,52
 888.897 489.484 888.897 489.484 893.997 469.084 c 5,53,54
 974.747 480.134 974.747 480.134 1045.3 441.884 c 4,55,56
 1085.25 420.634 1085.25 420.634 1115 386.209 c 132,-1,57
 1144.75 351.784 1144.75 351.784 1160.05 310.134 c 4,58,59
 1186.4 240.435 1186.4 240.435 1164.3 179.234 c 4,60,61
 1151.55 145.234 1151.55 145.234 1126.9 122.284 c 4,62,63
 1120.1 116.334 1120.1 116.334 1112.45 111.234 c 5,64,65
 1122.65 60.2344 1122.65 60.2344 1112.87 7.95898 c 132,-1,66
 1103.1 -44.3154 1103.1 -44.3154 1075.9 -87.666 c 4,67,68
 1072.5 -93.6162 1072.5 -93.6162 1065.27 -94.8906 c 132,-1,69
 1058.05 -96.166 1058.05 -96.166 1052.52 -92.7656 c 132,-1,70
 1047 -89.3662 1047 -89.3662 1045.3 -82.1406 c 132,-1,71
 1043.6 -74.916 1043.6 -74.916 1047 -68.9658 c 4,72,73
 1094.6 5.83398 1094.6 5.83398 1081 95.084 c 5,12,13
911.848 322.884 m 5,74,75
 960.297 304.184 960.297 304.184 987.497 288.034 c 4,76,77
 1069.95 237.884 1069.95 237.884 1102.25 146.084 c 5,78,79
 1103.1 146.935 1103.1 146.935 1103.95 146.935 c 4,80,81
 1122.65 164.784 1122.65 164.784 1132 191.134 c 4,82,83
 1149.85 239.584 1149.85 239.584 1128.6 298.234 c 4,84,85
 1115 333.934 1115 333.934 1089.07 363.684 c 132,-1,86
 1063.15 393.434 1063.15 393.434 1029.15 412.134 c 4,87,88
 969.647 443.584 969.647 443.584 901.647 435.084 c 5,89,90
 905.047 412.134 905.047 412.134 907.598 382.384 c 4,91,92
 908.447 372.184 908.447 372.184 909.723 351.784 c 132,-1,93
 910.997 331.384 910.997 331.384 911.848 322.884 c 5,74,75
786.897 382.384 m 5,94,95
 815.797 359.434 815.797 359.434 869.348 338.184 c 4,96,97
 872.747 337.334 872.747 337.334 876.997 335.634 c 5,98,99
 874.447 374.734 874.447 374.734 873.598 379.834 c 4,100,101
 871.897 407.884 871.897 407.884 868.497 428.284 c 5,102,103
 822.598 414.684 822.598 414.684 786.897 382.384 c 5,94,95
763.098 407.034 m 5,104,105
 805.598 446.134 805.598 446.134 860.848 461.434 c 5,106,107
 856.598 479.284 856.598 479.284 849.797 493.734 c 4,108,109
 838.747 518.384 838.747 518.384 824.297 527.734 c 4,110,111
 814.947 534.534 814.947 534.534 803.047 535.384 c 132,-1,112
 791.147 536.234 791.147 536.234 780.098 531.984 c 4,113,114
 756.297 522.634 756.297 522.634 746.098 497.984 c 4,115,116
 736.747 474.184 736.747 474.184 743.547 446.984 c 4,117,118
 748.647 426.584 748.647 426.584 763.098 407.034 c 5,104,105
915.247 284.634 m 5,119,120
 916.947 272.734 916.947 272.734 918.647 262.534 c 4,121,122
 931.397 197.935 931.397 197.935 964.547 161.384 c 4,123,124
 984.098 140.134 984.098 140.134 1007.9 129.935 c 4,125,126
 1033.4 119.734 1033.4 119.734 1058.9 124.834 c 4,127,128
 1065.7 125.685 1065.7 125.685 1072.5 128.234 c 5,129,130
 1059.75 169.034 1059.75 169.034 1032.97 203.034 c 132,-1,131
 1006.2 237.034 1006.2 237.034 970.497 258.284 c 4,132,133
 948.397 271.884 948.397 271.884 915.247 284.634 c 5,119,120
EndSplineSet
EndChar

StartChar: quotedbl
Encoding: 2 34 5
Width: 306
GlyphClass: 2
Flags: W
LayerCount: 2
Fore
SplineSet
110 681 m 1,0,-1
 99 461 l 1,1,-1
 39 461 l 1,2,-1
 28 681 l 1,3,-1
 110 681 l 1,0,-1
278 681 m 1,4,-1
 267 461 l 1,5,-1
 207 461 l 1,6,-1
 196 681 l 1,7,-1
 278 681 l 1,4,-1
EndSplineSet
EndChar

StartChar: numbersign
Encoding: 3 35 6
Width: 627
GlyphClass: 2
Flags: W
LayerCount: 2
Fore
SplineSet
380 170 m 1,0,-1
 226 170 l 1,1,-1
 212 31 l 1,2,-1
 138 31 l 1,3,-1
 152 170 l 1,4,-1
 53 170 l 1,5,-1
 58 224 l 1,6,-1
 158 224 l 1,7,-1
 177 402 l 1,8,-1
 76 402 l 1,9,-1
 82 455 l 1,10,-1
 182 455 l 1,11,-1
 197 593 l 1,12,-1
 271 593 l 1,13,-1
 256 455 l 1,14,-1
 410 455 l 1,15,-1
 425 593 l 1,16,-1
 498 593 l 1,17,-1
 483 455 l 1,18,-1
 586 455 l 1,19,-1
 580 402 l 1,20,-1
 478 402 l 1,21,-1
 459 224 l 1,22,-1
 562 224 l 1,23,-1
 556 170 l 1,24,-1
 453 170 l 1,25,-1
 439 31 l 1,26,-1
 365 31 l 1,27,-1
 380 170 l 1,0,-1
232 224 m 1,28,-1
 385 224 l 1,29,-1
 404 402 l 1,30,-1
 251 402 l 1,31,-1
 232 224 l 1,28,-1
940.75 418.279 m 5,32,33
 905.9 425.93 905.9 425.93 872.75 445.479 c 4,34,35
 827.7 471.83 827.7 471.83 766.5 534.729 c 4,36,37
 715.5 586.58 715.5 586.58 698.5 601.88 c 5,38,39
 683.2 584.029 683.2 584.029 671.3 565.33 c 5,40,41
 648.35 525.38 648.35 525.38 647.5 482.029 c 4,42,43
 646.65 436.979 646.65 436.979 670.45 398.305 c 132,-1,44
 694.25 359.63 694.25 359.63 735.05 340.08 c 132,-1,45
 775.85 320.529 775.85 320.529 820.475 326.479 c 132,-1,46
 865.1 332.43 865.1 332.43 899.95 361.33 c 4,47,48
 926.3 384.279 926.3 384.279 940.75 418.279 c 5,32,33
950.95 450.58 m 5,49,50
 952.65 463.33 952.65 463.33 953.5 476.08 c 5,51,52
 953.5 508.38 953.5 508.38 939.475 538.979 c 132,-1,53
 925.45 569.58 925.45 569.58 901.65 590.83 c 4,54,55
 896.55 595.08 896.55 595.08 895.7 602.305 c 132,-1,56
 894.85 609.529 894.85 609.529 899.525 614.63 c 132,-1,57
 904.2 619.729 904.2 619.729 911.425 620.58 c 132,-1,58
 918.65 621.43 918.65 621.43 923.75 616.33 c 4,59,60
 953.5 589.979 953.5 589.979 970.5 552.58 c 132,-1,61
 987.5 515.18 987.5 515.18 987.5 475.229 c 5,62,63
 986.65 461.63 986.65 461.63 984.1 446.33 c 5,64,65
 996.85 446.33 996.85 446.33 1007.9 448.029 c 4,66,67
 1040.2 453.13 1040.2 453.13 1065.7 471.83 c 4,68,69
 1092.05 490.529 1092.05 490.529 1105.65 519.43 c 4,70,71
 1119.25 549.18 1119.25 549.18 1115.85 580.63 c 4,72,73
 1113.3 612.08 1113.3 612.08 1094.6 637.58 c 4,74,75
 1065.7 677.529 1065.7 677.529 1008.75 690.279 c 4,76,77
 964.55 700.479 964.55 700.479 901.65 691.979 c 4,78,79
 796.25 678.38 796.25 678.38 730.8 630.779 c 4,80,81
 727.4 628.229 727.4 628.229 724 624.83 c 5,82,83
 740.15 610.38 740.15 610.38 790.3 558.529 c 4,84,85
 848.95 499.029 848.95 499.029 890.6 475.229 c 4,86,87
 920.35 457.38 920.35 457.38 950.95 450.58 c 5,49,50
697.65 646.93 m 5,88,89
 703.6 652.88 703.6 652.88 711.25 657.979 c 4,90,91
 782.65 710.68 782.65 710.68 896.55 725.979 c 4,92,93
 966.25 735.33 966.25 735.33 1017.25 723.43 c 4,94,95
 1086.1 707.279 1086.1 707.279 1121.8 657.979 c 4,96,97
 1146.45 624.83 1146.45 624.83 1149.85 583.18 c 4,98,99
 1153.25 543.229 1153.25 543.229 1136.25 505.83 c 260,100,101
 1119.25 468.43 1119.25 468.43 1086.1 444.63 c 4,102,103
 1053.8 420.83 1053.8 420.83 1013 414.029 c 4,104,105
 995.15 411.479 995.15 411.479 975.6 412.33 c 5,106,107
 957.75 366.43 957.75 366.43 922.05 335.83 c 4,108,109
 879.55 299.279 879.55 299.279 824.725 292.479 c 132,-1,110
 769.9 285.68 769.9 285.68 720.175 309.479 c 132,-1,111
 670.45 333.279 670.45 333.279 641.55 380.455 c 132,-1,112
 612.65 427.63 612.65 427.63 613.5 482.88 c 4,113,114
 614.35 534.729 614.35 534.729 642.4 582.33 c 4,115,116
 655.15 603.58 655.15 603.58 672.15 623.13 c 5,117,118
 671.3 623.979 671.3 623.979 670.45 624.83 c 4,119,120
 611.8 669.029 611.8 669.029 556.55 672.43 c 5,121,122
 491.95 677.529 491.95 677.529 442.65 635.455 c 132,-1,123
 393.35 593.38 393.35 593.38 388.25 528.779 c 4,124,125
 388.25 521.979 388.25 521.979 382.725 517.305 c 132,-1,126
 377.2 512.63 377.2 512.63 369.975 513.479 c 132,-1,127
 362.75 514.33 362.75 514.33 358.5 519.43 c 132,-1,128
 354.25 524.529 354.25 524.529 354.25 531.33 c 4,129,130
 361.05 610.38 361.05 610.38 420.55 661.38 c 132,-1,131
 480.05 712.38 480.05 712.38 559.1 706.43 c 4,132,133
 624.55 702.18 624.55 702.18 690.85 652.029 c 4,134,135
 693.4 650.33 693.4 650.33 697.65 646.93 c 5,88,89
EndSplineSet
EndChar

StartChar: dollar
Encoding: 4 36 7
Width: 632
GlyphClass: 2
Flags: W
LayerCount: 2
Fore
SplineSet
417 330 m 2,0,1
 486 307 486 307 524.5 268.5 c 128,-1,2
 563 230 563 230 563 163.5 c 128,-1,3
 563 97 563 97 506 46.5 c 128,-1,4
 449 -4 449 -4 347 -10 c 1,5,-1
 347 -91 l 1,6,-1
 285 -91 l 1,7,-1
 285 -9 l 1,8,9
 190 -1 190 -1 129.5 50.5 c 128,-1,10
 69 102 69 102 69 189 c 1,11,-1
 146 189 l 1,12,13
 146 76 146 76 285 63 c 1,14,-1
 285 298 l 1,15,-1
 253 310 l 1,16,17
 170 336 170 336 127.5 372 c 128,-1,18
 85 408 85 408 85 475 c 128,-1,19
 85 542 85 542 135.5 586.5 c 128,-1,20
 186 631 186 631 285 638 c 1,21,-1
 285 713 l 1,22,-1
 347 713 l 1,23,-1
 347 637 l 1,24,25
 434 630 434 630 481 587 c 128,-1,26
 528 544 528 544 539 476 c 1,27,-1
 461 476 l 1,28,29
 444 556 444 556 347 568 c 1,30,-1
 347 353 l 1,31,-1
 417 330 l 2,0,1
475 167 m 0,32,33
 475 241 475 241 383 270 c 1,34,-1
 347 282 l 1,35,-1
 347 62 l 1,36,37
 410 67 410 67 442.5 98 c 128,-1,38
 475 129 475 129 475 167 c 0,32,33
199 536 m 128,-1,40
 170 509 170 509 170 472.5 c 128,-1,41
 170 436 170 436 190 415.5 c 128,-1,42
 210 395 210 395 255 381 c 1,43,-1
 285 370 l 1,44,-1
 285 569 l 1,45,39
 228 563 228 563 199 536 c 128,-1,40
EndSplineSet
EndChar

StartChar: percent
Encoding: 5 37 8
Width: 726
GlyphClass: 2
Flags: W
LayerCount: 2
Fore
SplineSet
279 602 m 128,-1,1
 317 564 317 564 317 496 c 256,2,3
 317 428 317 428 279.5 390.5 c 128,-1,4
 242 353 242 353 188 353 c 128,-1,5
 134 353 134 353 97.5 391 c 128,-1,6
 61 429 61 429 61 496 c 256,7,8
 61 563 61 563 98 601.5 c 128,-1,9
 135 640 135 640 188 640 c 128,-1,0
 241 640 241 640 279 602 c 128,-1,1
235 565 m 128,-1,11
 217 587 217 587 188 587 c 128,-1,12
 159 587 159 587 141 565 c 128,-1,13
 123 543 123 543 123 496 c 256,14,15
 123 449 123 449 141 428 c 128,-1,16
 159 407 159 407 188 407 c 128,-1,17
 217 407 217 407 235 428 c 128,-1,18
 253 449 253 449 253 496 c 256,19,10
 253 543 253 543 235 565 c 128,-1,11
534 629 m 1,20,-1
 616 629 l 1,21,-1
 193 0 l 1,22,-1
 112 0 l 1,23,-1
 534 629 l 1,20,-1
538 276 m 256,24,25
 592 276 592 276 629.5 238.5 c 128,-1,26
 667 201 667 201 667 132.5 c 128,-1,27
 667 64 667 64 629.5 26.5 c 128,-1,28
 592 -11 592 -11 538 -11 c 256,29,30
 484 -11 484 -11 447.5 27 c 128,-1,31
 411 65 411 65 411 132.5 c 128,-1,32
 411 200 411 200 447.5 238 c 128,-1,33
 484 276 484 276 538 276 c 256,24,25
538 223 m 256,34,35
 509 223 509 223 491 201 c 128,-1,36
 473 179 473 179 473 132 c 256,37,38
 473 85 473 85 491 64 c 128,-1,39
 509 43 509 43 538 43 c 256,40,41
 567 43 567 43 585 64 c 128,-1,42
 603 85 603 85 603 132 c 256,43,44
 603 179 603 179 585 201 c 128,-1,45
 567 223 567 223 538 223 c 256,34,35
940.75 418.279 m 5,46,47
 905.9 425.93 905.9 425.93 872.75 445.479 c 4,48,49
 827.7 471.83 827.7 471.83 766.5 534.729 c 4,50,51
 715.5 586.58 715.5 586.58 698.5 601.88 c 5,52,53
 683.2 584.029 683.2 584.029 671.3 565.33 c 5,54,55
 648.35 525.38 648.35 525.38 647.5 482.029 c 4,56,57
 646.65 436.979 646.65 436.979 670.45 398.305 c 132,-1,58
 694.25 359.63 694.25 359.63 735.05 340.08 c 132,-1,59
 775.85 320.529 775.85 320.529 820.475 326.479 c 132,-1,60
 865.1 332.43 865.1 332.43 899.95 361.33 c 4,61,62
 926.3 384.279 926.3 384.279 940.75 418.279 c 5,46,47
950.95 450.58 m 5,63,64
 952.65 463.33 952.65 463.33 953.5 476.08 c 5,65,66
 953.5 508.38 953.5 508.38 939.475 538.979 c 132,-1,67
 925.45 569.58 925.45 569.58 901.65 590.83 c 4,68,69
 896.55 595.08 896.55 595.08 895.7 602.305 c 132,-1,70
 894.85 609.529 894.85 609.529 899.525 614.63 c 132,-1,71
 904.2 619.729 904.2 619.729 911.425 620.58 c 132,-1,72
 918.65 621.43 918.65 621.43 923.75 616.33 c 4,73,74
 953.5 589.979 953.5 589.979 970.5 552.58 c 132,-1,75
 987.5 515.18 987.5 515.18 987.5 475.229 c 5,76,77
 986.65 461.63 986.65 461.63 984.1 446.33 c 5,78,79
 996.85 446.33 996.85 446.33 1007.9 448.029 c 4,80,81
 1040.2 453.13 1040.2 453.13 1065.7 471.83 c 4,82,83
 1092.05 490.529 1092.05 490.529 1105.65 519.43 c 4,84,85
 1119.25 549.18 1119.25 549.18 1115.85 580.63 c 4,86,87
 1113.3 612.08 1113.3 612.08 1094.6 637.58 c 4,88,89
 1065.7 677.529 1065.7 677.529 1008.75 690.279 c 4,90,91
 964.55 700.479 964.55 700.479 901.65 691.979 c 4,92,93
 796.25 678.38 796.25 678.38 730.8 630.779 c 4,94,95
 727.4 628.229 727.4 628.229 724 624.83 c 5,96,97
 740.15 610.38 740.15 610.38 790.3 558.529 c 4,98,99
 848.95 499.029 848.95 499.029 890.6 475.229 c 4,100,101
 920.35 457.38 920.35 457.38 950.95 450.58 c 5,63,64
697.65 646.93 m 5,102,103
 703.6 652.88 703.6 652.88 711.25 657.979 c 4,104,105
 782.65 710.68 782.65 710.68 896.55 725.979 c 4,106,107
 966.25 735.33 966.25 735.33 1017.25 723.43 c 4,108,109
 1086.1 707.279 1086.1 707.279 1121.8 657.979 c 4,110,111
 1146.45 624.83 1146.45 624.83 1149.85 583.18 c 4,112,113
 1153.25 543.229 1153.25 543.229 1136.25 505.83 c 260,114,115
 1119.25 468.43 1119.25 468.43 1086.1 444.63 c 4,116,117
 1053.8 420.83 1053.8 420.83 1013 414.029 c 4,118,119
 995.15 411.479 995.15 411.479 975.6 412.33 c 5,120,121
 957.75 366.43 957.75 366.43 922.05 335.83 c 4,122,123
 879.55 299.279 879.55 299.279 824.725 292.479 c 132,-1,124
 769.9 285.68 769.9 285.68 720.175 309.479 c 132,-1,125
 670.45 333.279 670.45 333.279 641.55 380.455 c 132,-1,126
 612.65 427.63 612.65 427.63 613.5 482.88 c 4,127,128
 614.35 534.729 614.35 534.729 642.4 582.33 c 4,129,130
 655.15 603.58 655.15 603.58 672.15 623.13 c 5,131,132
 671.3 623.979 671.3 623.979 670.45 624.83 c 4,133,134
 611.8 669.029 611.8 669.029 556.55 672.43 c 5,135,136
 491.95 677.529 491.95 677.529 442.65 635.455 c 132,-1,137
 393.35 593.38 393.35 593.38 388.25 528.779 c 4,138,139
 388.25 521.979 388.25 521.979 382.725 517.305 c 132,-1,140
 377.2 512.63 377.2 512.63 369.975 513.479 c 132,-1,141
 362.75 514.33 362.75 514.33 358.5 519.43 c 132,-1,142
 354.25 524.529 354.25 524.529 354.25 531.33 c 4,143,144
 361.05 610.38 361.05 610.38 420.55 661.38 c 132,-1,145
 480.05 712.38 480.05 712.38 559.1 706.43 c 4,146,147
 624.55 702.18 624.55 702.18 690.85 652.029 c 4,148,149
 693.4 650.33 693.4 650.33 697.65 646.93 c 5,102,103
EndSplineSet
EndChar

StartChar: ampersand
Encoding: 6 38 9
Width: 916
GlyphClass: 2
Flags: W
LayerCount: 2
Fore
SplineSet
725 350 m 1,0,1
 680 213 680 213 610 128 c 1,2,-1
 653 91 l 2,3,4
 673 74 673 74 688.5 66 c 128,-1,5
 704 58 704 58 728.5 58 c 128,-1,6
 753 58 753 58 772.5 76.5 c 128,-1,7
 792 95 792 95 795 140 c 1,8,-1
 869 140 l 1,9,10
 865 68 865 68 831.5 28.5 c 128,-1,11
 798 -11 798 -11 734 -11 c 0,12,13
 695 -11 695 -11 662 5 c 128,-1,14
 629 21 629 21 590 56 c 1,15,-1
 564 78 l 1,16,17
 464 -11 464 -11 336 -11 c 0,18,19
 231 -11 231 -11 160 41.5 c 128,-1,20
 89 94 89 94 89 168 c 128,-1,21
 89 242 89 242 136.5 279.5 c 128,-1,22
 184 317 184 317 276 332 c 1,23,-1
 262 345 l 1,24,25
 185 412 185 412 185 492 c 0,26,27
 185 555 185 555 237.5 597 c 128,-1,28
 290 639 290 639 376.5 639 c 128,-1,29
 463 639 463 639 514.5 597 c 128,-1,30
 566 555 566 555 566 495.5 c 128,-1,31
 566 436 566 436 527 393 c 128,-1,32
 488 350 488 350 400 312 c 1,33,-1
 558 173 l 1,34,35
 626 255 626 255 670 380 c 1,36,-1
 725 350 l 1,0,1
211.5 251 m 128,-1,38
 175 224 175 224 175 176 c 128,-1,39
 175 128 175 128 216.5 93.5 c 128,-1,40
 258 59 258 59 344 59 c 128,-1,41
 430 59 430 59 511 125 c 1,42,-1
 325 288 l 1,43,37
 248 278 248 278 211.5 251 c 128,-1,38
480 488 m 0,44,45
 480 524 480 524 452.5 548 c 128,-1,46
 425 572 425 572 375.5 572 c 128,-1,47
 326 572 326 572 298.5 544.5 c 128,-1,48
 271 517 271 517 271 485 c 128,-1,49
 271 453 271 453 284 428 c 128,-1,50
 297 403 297 403 327 377 c 1,51,-1
 354 352 l 1,52,53
 458 400 458 400 474 452 c 0,54,55
 480 469 480 469 480 488 c 0,44,45
940.75 418.279 m 5,56,57
 905.9 425.93 905.9 425.93 872.75 445.479 c 4,58,59
 827.7 471.83 827.7 471.83 766.5 534.729 c 4,60,61
 715.5 586.58 715.5 586.58 698.5 601.88 c 5,62,63
 683.2 584.029 683.2 584.029 671.3 565.33 c 5,64,65
 648.35 525.38 648.35 525.38 647.5 482.029 c 4,66,67
 646.65 436.979 646.65 436.979 670.45 398.305 c 132,-1,68
 694.25 359.63 694.25 359.63 735.05 340.08 c 132,-1,69
 775.85 320.529 775.85 320.529 820.475 326.479 c 132,-1,70
 865.1 332.43 865.1 332.43 899.95 361.33 c 4,71,72
 926.3 384.279 926.3 384.279 940.75 418.279 c 5,56,57
950.95 450.58 m 5,73,74
 952.65 463.33 952.65 463.33 953.5 476.08 c 5,75,76
 953.5 508.38 953.5 508.38 939.475 538.979 c 132,-1,77
 925.45 569.58 925.45 569.58 901.65 590.83 c 4,78,79
 896.55 595.08 896.55 595.08 895.7 602.305 c 132,-1,80
 894.85 609.529 894.85 609.529 899.525 614.63 c 132,-1,81
 904.2 619.729 904.2 619.729 911.425 620.58 c 132,-1,82
 918.65 621.43 918.65 621.43 923.75 616.33 c 4,83,84
 953.5 589.979 953.5 589.979 970.5 552.58 c 132,-1,85
 987.5 515.18 987.5 515.18 987.5 475.229 c 5,86,87
 986.65 461.63 986.65 461.63 984.1 446.33 c 5,88,89
 996.85 446.33 996.85 446.33 1007.9 448.029 c 4,90,91
 1040.2 453.13 1040.2 453.13 1065.7 471.83 c 4,92,93
 1092.05 490.529 1092.05 490.529 1105.65 519.43 c 4,94,95
 1119.25 549.18 1119.25 549.18 1115.85 580.63 c 4,96,97
 1113.3 612.08 1113.3 612.08 1094.6 637.58 c 4,98,99
 1065.7 677.529 1065.7 677.529 1008.75 690.279 c 4,100,101
 964.55 700.479 964.55 700.479 901.65 691.979 c 4,102,103
 796.25 678.38 796.25 678.38 730.8 630.779 c 4,104,105
 727.4 628.229 727.4 628.229 724 624.83 c 5,106,107
 740.15 610.38 740.15 610.38 790.3 558.529 c 4,108,109
 848.95 499.029 848.95 499.029 890.6 475.229 c 4,110,111
 920.35 457.38 920.35 457.38 950.95 450.58 c 5,73,74
697.65 646.93 m 5,112,113
 703.6 652.88 703.6 652.88 711.25 657.979 c 4,114,115
 782.65 710.68 782.65 710.68 896.55 725.979 c 4,116,117
 966.25 735.33 966.25 735.33 1017.25 723.43 c 4,118,119
 1086.1 707.279 1086.1 707.279 1121.8 657.979 c 4,120,121
 1146.45 624.83 1146.45 624.83 1149.85 583.18 c 4,122,123
 1153.25 543.229 1153.25 543.229 1136.25 505.83 c 260,124,125
 1119.25 468.43 1119.25 468.43 1086.1 444.63 c 4,126,127
 1053.8 420.83 1053.8 420.83 1013 414.029 c 4,128,129
 995.15 411.479 995.15 411.479 975.6 412.33 c 5,130,131
 957.75 366.43 957.75 366.43 922.05 335.83 c 4,132,133
 879.55 299.279 879.55 299.279 824.725 292.479 c 132,-1,134
 769.9 285.68 769.9 285.68 720.175 309.479 c 132,-1,135
 670.45 333.279 670.45 333.279 641.55 380.455 c 132,-1,136
 612.65 427.63 612.65 427.63 613.5 482.88 c 4,137,138
 614.35 534.729 614.35 534.729 642.4 582.33 c 4,139,140
 655.15 603.58 655.15 603.58 672.15 623.13 c 5,141,142
 671.3 623.979 671.3 623.979 670.45 624.83 c 4,143,144
 611.8 669.029 611.8 669.029 556.55 672.43 c 5,145,146
 491.95 677.529 491.95 677.529 442.65 635.455 c 132,-1,147
 393.35 593.38 393.35 593.38 388.25 528.779 c 4,148,149
 388.25 521.979 388.25 521.979 382.725 517.305 c 132,-1,150
 377.2 512.63 377.2 512.63 369.975 513.479 c 132,-1,151
 362.75 514.33 362.75 514.33 358.5 519.43 c 132,-1,152
 354.25 524.529 354.25 524.529 354.25 531.33 c 4,153,154
 361.05 610.38 361.05 610.38 420.55 661.38 c 132,-1,155
 480.05 712.38 480.05 712.38 559.1 706.43 c 4,156,157
 624.55 702.18 624.55 702.18 690.85 652.029 c 4,158,159
 693.4 650.33 693.4 650.33 697.65 646.93 c 5,112,113
EndSplineSet
EndChar

StartChar: quotesingle
Encoding: 7 39 10
Width: 136
GlyphClass: 2
Flags: W
LayerCount: 2
Fore
SplineSet
109 677 m 1,0,-1
 98 457 l 1,1,-1
 38 457 l 1,2,-1
 27 677 l 1,3,-1
 109 677 l 1,0,-1
EndSplineSet
EndChar

StartChar: parenleft
Encoding: 8 40 11
Width: 356
GlyphClass: 2
Flags: W
LayerCount: 2
Fore
SplineSet
155 307 m 128,-1,1
 155 102 155 102 328 -73 c 1,2,-1
 271 -113 l 1,3,4
 173 -24 173 -24 123 84 c 128,-1,5
 73 192 73 192 73 307.5 c 128,-1,6
 73 423 73 423 123 530.5 c 128,-1,7
 173 638 173 638 271 728 c 1,8,-1
 328 687 l 1,9,0
 155 512 155 512 155 307 c 128,-1,1
940.75 418.279 m 5,10,11
 905.9 425.93 905.9 425.93 872.75 445.479 c 4,12,13
 827.7 471.83 827.7 471.83 766.5 534.729 c 4,14,15
 715.5 586.58 715.5 586.58 698.5 601.88 c 5,16,17
 683.2 584.029 683.2 584.029 671.3 565.33 c 5,18,19
 648.35 525.38 648.35 525.38 647.5 482.029 c 4,20,21
 646.65 436.979 646.65 436.979 670.45 398.305 c 132,-1,22
 694.25 359.63 694.25 359.63 735.05 340.08 c 132,-1,23
 775.85 320.529 775.85 320.529 820.475 326.479 c 132,-1,24
 865.1 332.43 865.1 332.43 899.95 361.33 c 4,25,26
 926.3 384.279 926.3 384.279 940.75 418.279 c 5,10,11
950.95 450.58 m 5,27,28
 952.65 463.33 952.65 463.33 953.5 476.08 c 5,29,30
 953.5 508.38 953.5 508.38 939.475 538.979 c 132,-1,31
 925.45 569.58 925.45 569.58 901.65 590.83 c 4,32,33
 896.55 595.08 896.55 595.08 895.7 602.305 c 132,-1,34
 894.85 609.529 894.85 609.529 899.525 614.63 c 132,-1,35
 904.2 619.729 904.2 619.729 911.425 620.58 c 132,-1,36
 918.65 621.43 918.65 621.43 923.75 616.33 c 4,37,38
 953.5 589.979 953.5 589.979 970.5 552.58 c 132,-1,39
 987.5 515.18 987.5 515.18 987.5 475.229 c 5,40,41
 986.65 461.63 986.65 461.63 984.1 446.33 c 5,42,43
 996.85 446.33 996.85 446.33 1007.9 448.029 c 4,44,45
 1040.2 453.13 1040.2 453.13 1065.7 471.83 c 4,46,47
 1092.05 490.529 1092.05 490.529 1105.65 519.43 c 4,48,49
 1119.25 549.18 1119.25 549.18 1115.85 580.63 c 4,50,51
 1113.3 612.08 1113.3 612.08 1094.6 637.58 c 4,52,53
 1065.7 677.529 1065.7 677.529 1008.75 690.279 c 4,54,55
 964.55 700.479 964.55 700.479 901.65 691.979 c 4,56,57
 796.25 678.38 796.25 678.38 730.8 630.779 c 4,58,59
 727.4 628.229 727.4 628.229 724 624.83 c 5,60,61
 740.15 610.38 740.15 610.38 790.3 558.529 c 4,62,63
 848.95 499.029 848.95 499.029 890.6 475.229 c 4,64,65
 920.35 457.38 920.35 457.38 950.95 450.58 c 5,27,28
697.65 646.93 m 5,66,67
 703.6 652.88 703.6 652.88 711.25 657.979 c 4,68,69
 782.65 710.68 782.65 710.68 896.55 725.979 c 4,70,71
 966.25 735.33 966.25 735.33 1017.25 723.43 c 4,72,73
 1086.1 707.279 1086.1 707.279 1121.8 657.979 c 4,74,75
 1146.45 624.83 1146.45 624.83 1149.85 583.18 c 4,76,77
 1153.25 543.229 1153.25 543.229 1136.25 505.83 c 260,78,79
 1119.25 468.43 1119.25 468.43 1086.1 444.63 c 4,80,81
 1053.8 420.83 1053.8 420.83 1013 414.029 c 4,82,83
 995.15 411.479 995.15 411.479 975.6 412.33 c 5,84,85
 957.75 366.43 957.75 366.43 922.05 335.83 c 4,86,87
 879.55 299.279 879.55 299.279 824.725 292.479 c 132,-1,88
 769.9 285.68 769.9 285.68 720.175 309.479 c 132,-1,89
 670.45 333.279 670.45 333.279 641.55 380.455 c 132,-1,90
 612.65 427.63 612.65 427.63 613.5 482.88 c 4,91,92
 614.35 534.729 614.35 534.729 642.4 582.33 c 4,93,94
 655.15 603.58 655.15 603.58 672.15 623.13 c 5,95,96
 671.3 623.979 671.3 623.979 670.45 624.83 c 4,97,98
 611.8 669.029 611.8 669.029 556.55 672.43 c 5,99,100
 491.95 677.529 491.95 677.529 442.65 635.455 c 132,-1,101
 393.35 593.38 393.35 593.38 388.25 528.779 c 4,102,103
 388.25 521.979 388.25 521.979 382.725 517.305 c 132,-1,104
 377.2 512.63 377.2 512.63 369.975 513.479 c 132,-1,105
 362.75 514.33 362.75 514.33 358.5 519.43 c 132,-1,106
 354.25 524.529 354.25 524.529 354.25 531.33 c 4,107,108
 361.05 610.38 361.05 610.38 420.55 661.38 c 132,-1,109
 480.05 712.38 480.05 712.38 559.1 706.43 c 4,110,111
 624.55 702.18 624.55 702.18 690.85 652.029 c 4,112,113
 693.4 650.33 693.4 650.33 697.65 646.93 c 5,66,67
EndSplineSet
EndChar

StartChar: parenright
Encoding: 9 41 12
Width: 356
GlyphClass: 2
Flags: W
LayerCount: 2
Fore
SplineSet
201 307 m 128,-1,1
 201 512 201 512 28 687 c 1,2,-1
 85 728 l 1,3,4
 183 638 183 638 233 530.5 c 128,-1,5
 283 423 283 423 283 307.5 c 128,-1,6
 283 192 283 192 233 84 c 128,-1,7
 183 -24 183 -24 85 -113 c 1,8,-1
 28 -73 l 1,9,0
 201 102 201 102 201 307 c 128,-1,1
EndSplineSet
EndChar

StartChar: asterisk
Encoding: 10 42 13
Width: 412
GlyphClass: 2
Flags: W
LayerCount: 2
Fore
SplineSet
173 516 m 1,0,-1
 56 556 l 1,1,-1
 80 610 l 1,2,-1
 186 556 l 1,3,-1
 176 684 l 1,4,-1
 238 684 l 1,5,-1
 228 556 l 1,6,-1
 334 610 l 1,7,-1
 358 556 l 1,8,-1
 242 516 l 1,9,-1
 332 427 l 1,10,-1
 288 388 l 1,11,-1
 208 492 l 1,12,-1
 128 388 l 1,13,-1
 83 427 l 1,14,-1
 173 516 l 1,0,-1
EndSplineSet
EndChar

StartChar: plus
Encoding: 11 43 14
Width: 527
GlyphClass: 2
Flags: W
LayerCount: 2
Fore
SplineSet
303 491 m 1,0,-1
 303 279 l 1,1,-1
 509 279 l 1,2,-1
 509 212 l 1,3,-1
 303 212 l 1,4,-1
 303 0 l 1,5,-1
 224 0 l 1,6,-1
 224 212 l 1,7,-1
 18 212 l 1,8,-1
 18 279 l 1,9,-1
 224 279 l 1,10,-1
 224 491 l 1,11,-1
 303 491 l 1,0,-1
EndSplineSet
EndChar

StartChar: comma
Encoding: 12 44 15
Width: 210
GlyphClass: 2
Flags: W
LayerCount: 2
Fore
SplineSet
67 10 m 128,-1,1
 52 23 52 23 52 45 c 128,-1,2
 52 67 52 67 67.5 82 c 128,-1,3
 83 97 83 97 111.5 97 c 128,-1,4
 140 97 140 97 159 74.5 c 128,-1,5
 178 52 178 52 178 18 c 128,-1,6
 178 -16 178 -16 156 -51.5 c 128,-1,7
 134 -87 134 -87 89 -109 c 1,8,-1
 30 -80 l 1,9,10
 92 -50 92 -50 105 -5 c 1,11,0
 82 -3 82 -3 67 10 c 128,-1,1
1081 95.084 m 5,12,13
 1072.5 92.5342 1072.5 92.5342 1064.85 90.834 c 4,14,15
 1030 84.8838 1030 84.8838 995.147 98.4844 c 4,16,17
 963.697 111.234 963.697 111.234 939.047 138.435 c 4,18,19
 899.098 181.784 899.098 181.784 885.497 256.584 c 4,20,21
 882.098 275.284 882.098 275.284 879.547 298.234 c 5,22,23
 865.947 303.334 865.947 303.334 856.598 306.734 c 4,24,25
 796.247 329.684 796.247 329.684 763.098 358.584 c 5,26,27
 758.848 352.634 758.848 352.634 755.447 348.384 c 4,28,29
 708.697 282.934 708.697 282.934 716.348 202.185 c 4,30,31
 717.197 195.384 717.197 195.384 712.947 189.859 c 132,-1,32
 708.697 184.334 708.697 184.334 701.473 183.909 c 132,-1,33
 694.247 183.484 694.247 183.484 688.723 187.734 c 132,-1,34
 683.197 191.984 683.197 191.984 683.197 198.784 c 4,35,36
 672.997 291.434 672.997 291.434 727.397 367.934 c 4,37,38
 733.348 375.584 733.348 375.584 739.297 382.384 c 5,39,40
 718.047 408.734 718.047 408.734 710.397 438.484 c 4,41,42
 701.047 476.734 701.047 476.734 714.647 510.734 c 4,43,44
 730.797 548.984 730.797 548.984 767.348 563.435 c 4,45,46
 786.897 571.084 786.897 571.084 806.447 569.384 c 4,47,48
 826.848 567.685 826.848 567.685 843.848 555.784 c 4,49,50
 865.947 540.484 865.947 540.484 880.397 507.334 c 4,51,52
 888.897 489.484 888.897 489.484 893.997 469.084 c 5,53,54
 974.747 480.134 974.747 480.134 1045.3 441.884 c 4,55,56
 1085.25 420.634 1085.25 420.634 1115 386.209 c 132,-1,57
 1144.75 351.784 1144.75 351.784 1160.05 310.134 c 4,58,59
 1186.4 240.435 1186.4 240.435 1164.3 179.234 c 4,60,61
 1151.55 145.234 1151.55 145.234 1126.9 122.284 c 4,62,63
 1120.1 116.334 1120.1 116.334 1112.45 111.234 c 5,64,65
 1122.65 60.2344 1122.65 60.2344 1112.87 7.95898 c 132,-1,66
 1103.1 -44.3154 1103.1 -44.3154 1075.9 -87.666 c 4,67,68
 1072.5 -93.6162 1072.5 -93.6162 1065.27 -94.8906 c 132,-1,69
 1058.05 -96.166 1058.05 -96.166 1052.52 -92.7656 c 132,-1,70
 1047 -89.3662 1047 -89.3662 1045.3 -82.1406 c 132,-1,71
 1043.6 -74.916 1043.6 -74.916 1047 -68.9658 c 4,72,73
 1094.6 5.83398 1094.6 5.83398 1081 95.084 c 5,12,13
911.848 322.884 m 5,74,75
 960.297 304.184 960.297 304.184 987.497 288.034 c 4,76,77
 1069.95 237.884 1069.95 237.884 1102.25 146.084 c 5,78,79
 1103.1 146.935 1103.1 146.935 1103.95 146.935 c 4,80,81
 1122.65 164.784 1122.65 164.784 1132 191.134 c 4,82,83
 1149.85 239.584 1149.85 239.584 1128.6 298.234 c 4,84,85
 1115 333.934 1115 333.934 1089.07 363.684 c 132,-1,86
 1063.15 393.434 1063.15 393.434 1029.15 412.134 c 4,87,88
 969.647 443.584 969.647 443.584 901.647 435.084 c 5,89,90
 905.047 412.134 905.047 412.134 907.598 382.384 c 4,91,92
 908.447 372.184 908.447 372.184 909.723 351.784 c 132,-1,93
 910.997 331.384 910.997 331.384 911.848 322.884 c 5,74,75
786.897 382.384 m 5,94,95
 815.797 359.434 815.797 359.434 869.348 338.184 c 4,96,97
 872.747 337.334 872.747 337.334 876.997 335.634 c 5,98,99
 874.447 374.734 874.447 374.734 873.598 379.834 c 4,100,101
 871.897 407.884 871.897 407.884 868.497 428.284 c 5,102,103
 822.598 414.684 822.598 414.684 786.897 382.384 c 5,94,95
763.098 407.034 m 5,104,105
 805.598 446.134 805.598 446.134 860.848 461.434 c 5,106,107
 856.598 479.284 856.598 479.284 849.797 493.734 c 4,108,109
 838.747 518.384 838.747 518.384 824.297 527.734 c 4,110,111
 814.947 534.534 814.947 534.534 803.047 535.384 c 132,-1,112
 791.147 536.234 791.147 536.234 780.098 531.984 c 4,113,114
 756.297 522.634 756.297 522.634 746.098 497.984 c 4,115,116
 736.747 474.184 736.747 474.184 743.547 446.984 c 4,117,118
 748.647 426.584 748.647 426.584 763.098 407.034 c 5,104,105
915.247 284.634 m 5,119,120
 916.947 272.734 916.947 272.734 918.647 262.534 c 4,121,122
 931.397 197.935 931.397 197.935 964.547 161.384 c 4,123,124
 984.098 140.134 984.098 140.134 1007.9 129.935 c 4,125,126
 1033.4 119.734 1033.4 119.734 1058.9 124.834 c 4,127,128
 1065.7 125.685 1065.7 125.685 1072.5 128.234 c 5,129,130
 1059.75 169.034 1059.75 169.034 1032.97 203.034 c 132,-1,131
 1006.2 237.034 1006.2 237.034 970.497 258.284 c 4,132,133
 948.397 271.884 948.397 271.884 915.247 284.634 c 5,119,120
EndSplineSet
EndChar

StartChar: hyphen
Encoding: 13 45 16
Width: 349
GlyphClass: 2
Flags: W
LayerCount: 2
Fore
SplineSet
38 325 m 1,0,-1
 310 325 l 1,1,-1
 310 257 l 1,2,-1
 38 257 l 1,3,-1
 38 325 l 1,0,-1
EndSplineSet
EndChar

StartChar: period
Encoding: 14 46 17
Width: 179
GlyphClass: 2
Flags: W
LayerCount: 2
Fore
SplineSet
46.5 7.5 m 128,-1,1
 30 24 30 24 30 47.5 c 128,-1,2
 30 71 30 71 46.5 87.5 c 128,-1,3
 63 104 63 104 88.5 104 c 128,-1,4
 114 104 114 104 131 87.5 c 128,-1,5
 148 71 148 71 148 47.5 c 128,-1,6
 148 24 148 24 131 7.5 c 128,-1,7
 114 -9 114 -9 88.5 -9 c 128,-1,0
 63 -9 63 -9 46.5 7.5 c 128,-1,1
940.75 418.279 m 5,8,9
 905.9 425.93 905.9 425.93 872.75 445.479 c 4,10,11
 827.7 471.83 827.7 471.83 766.5 534.729 c 4,12,13
 715.5 586.58 715.5 586.58 698.5 601.88 c 5,14,15
 683.2 584.029 683.2 584.029 671.3 565.33 c 5,16,17
 648.35 525.38 648.35 525.38 647.5 482.029 c 4,18,19
 646.65 436.979 646.65 436.979 670.45 398.305 c 132,-1,20
 694.25 359.63 694.25 359.63 735.05 340.08 c 132,-1,21
 775.85 320.529 775.85 320.529 820.475 326.479 c 132,-1,22
 865.1 332.43 865.1 332.43 899.95 361.33 c 4,23,24
 926.3 384.279 926.3 384.279 940.75 418.279 c 5,8,9
950.95 450.58 m 5,25,26
 952.65 463.33 952.65 463.33 953.5 476.08 c 5,27,28
 953.5 508.38 953.5 508.38 939.475 538.979 c 132,-1,29
 925.45 569.58 925.45 569.58 901.65 590.83 c 4,30,31
 896.55 595.08 896.55 595.08 895.7 602.305 c 132,-1,32
 894.85 609.529 894.85 609.529 899.525 614.63 c 132,-1,33
 904.2 619.729 904.2 619.729 911.425 620.58 c 132,-1,34
 918.65 621.43 918.65 621.43 923.75 616.33 c 4,35,36
 953.5 589.979 953.5 589.979 970.5 552.58 c 132,-1,37
 987.5 515.18 987.5 515.18 987.5 475.229 c 5,38,39
 986.65 461.63 986.65 461.63 984.1 446.33 c 5,40,41
 996.85 446.33 996.85 446.33 1007.9 448.029 c 4,42,43
 1040.2 453.13 1040.2 453.13 1065.7 471.83 c 4,44,45
 1092.05 490.529 1092.05 490.529 1105.65 519.43 c 4,46,47
 1119.25 549.18 1119.25 549.18 1115.85 580.63 c 4,48,49
 1113.3 612.08 1113.3 612.08 1094.6 637.58 c 4,50,51
 1065.7 677.529 1065.7 677.529 1008.75 690.279 c 4,52,53
 964.55 700.479 964.55 700.479 901.65 691.979 c 4,54,55
 796.25 678.38 796.25 678.38 730.8 630.779 c 4,56,57
 727.4 628.229 727.4 628.229 724 624.83 c 5,58,59
 740.15 610.38 740.15 610.38 790.3 558.529 c 4,60,61
 848.95 499.029 848.95 499.029 890.6 475.229 c 4,62,63
 920.35 457.38 920.35 457.38 950.95 450.58 c 5,25,26
697.65 646.93 m 5,64,65
 703.6 652.88 703.6 652.88 711.25 657.979 c 4,66,67
 782.65 710.68 782.65 710.68 896.55 725.979 c 4,68,69
 966.25 735.33 966.25 735.33 1017.25 723.43 c 4,70,71
 1086.1 707.279 1086.1 707.279 1121.8 657.979 c 4,72,73
 1146.45 624.83 1146.45 624.83 1149.85 583.18 c 4,74,75
 1153.25 543.229 1153.25 543.229 1136.25 505.83 c 260,76,77
 1119.25 468.43 1119.25 468.43 1086.1 444.63 c 4,78,79
 1053.8 420.83 1053.8 420.83 1013 414.029 c 4,80,81
 995.15 411.479 995.15 411.479 975.6 412.33 c 5,82,83
 957.75 366.43 957.75 366.43 922.05 335.83 c 4,84,85
 879.55 299.279 879.55 299.279 824.725 292.479 c 132,-1,86
 769.9 285.68 769.9 285.68 720.175 309.479 c 132,-1,87
 670.45 333.279 670.45 333.279 641.55 380.455 c 132,-1,88
 612.65 427.63 612.65 427.63 613.5 482.88 c 4,89,90
 614.35 534.729 614.35 534.729 642.4 582.33 c 4,91,92
 655.15 603.58 655.15 603.58 672.15 623.13 c 5,93,94
 671.3 623.979 671.3 623.979 670.45 624.83 c 4,95,96
 611.8 669.029 611.8 669.029 556.55 672.43 c 5,97,98
 491.95 677.529 491.95 677.529 442.65 635.455 c 132,-1,99
 393.35 593.38 393.35 593.38 388.25 528.779 c 4,100,101
 388.25 521.979 388.25 521.979 382.725 517.305 c 132,-1,102
 377.2 512.63 377.2 512.63 369.975 513.479 c 132,-1,103
 362.75 514.33 362.75 514.33 358.5 519.43 c 132,-1,104
 354.25 524.529 354.25 524.529 354.25 531.33 c 4,105,106
 361.05 610.38 361.05 610.38 420.55 661.38 c 132,-1,107
 480.05 712.38 480.05 712.38 559.1 706.43 c 4,108,109
 624.55 702.18 624.55 702.18 690.85 652.029 c 4,110,111
 693.4 650.33 693.4 650.33 697.65 646.93 c 5,64,65
EndSplineSet
EndChar

StartChar: slash
Encoding: 15 47 18
Width: 432
GlyphClass: 2
Flags: W
LayerCount: 2
Fore
SplineSet
308 731 m 1,0,-1
 388 731 l 1,1,-1
 136 -73 l 1,2,-1
 57 -73 l 1,3,-1
 308 731 l 1,0,-1
940.75 418.279 m 5,4,5
 905.9 425.93 905.9 425.93 872.75 445.479 c 4,6,7
 827.7 471.83 827.7 471.83 766.5 534.729 c 4,8,9
 715.5 586.58 715.5 586.58 698.5 601.88 c 5,10,11
 683.2 584.029 683.2 584.029 671.3 565.33 c 5,12,13
 648.35 525.38 648.35 525.38 647.5 482.029 c 4,14,15
 646.65 436.979 646.65 436.979 670.45 398.305 c 132,-1,16
 694.25 359.63 694.25 359.63 735.05 340.08 c 132,-1,17
 775.85 320.529 775.85 320.529 820.475 326.479 c 132,-1,18
 865.1 332.43 865.1 332.43 899.95 361.33 c 4,19,20
 926.3 384.279 926.3 384.279 940.75 418.279 c 5,4,5
950.95 450.58 m 5,21,22
 952.65 463.33 952.65 463.33 953.5 476.08 c 5,23,24
 953.5 508.38 953.5 508.38 939.475 538.979 c 132,-1,25
 925.45 569.58 925.45 569.58 901.65 590.83 c 4,26,27
 896.55 595.08 896.55 595.08 895.7 602.305 c 132,-1,28
 894.85 609.529 894.85 609.529 899.525 614.63 c 132,-1,29
 904.2 619.729 904.2 619.729 911.425 620.58 c 132,-1,30
 918.65 621.43 918.65 621.43 923.75 616.33 c 4,31,32
 953.5 589.979 953.5 589.979 970.5 552.58 c 132,-1,33
 987.5 515.18 987.5 515.18 987.5 475.229 c 5,34,35
 986.65 461.63 986.65 461.63 984.1 446.33 c 5,36,37
 996.85 446.33 996.85 446.33 1007.9 448.029 c 4,38,39
 1040.2 453.13 1040.2 453.13 1065.7 471.83 c 4,40,41
 1092.05 490.529 1092.05 490.529 1105.65 519.43 c 4,42,43
 1119.25 549.18 1119.25 549.18 1115.85 580.63 c 4,44,45
 1113.3 612.08 1113.3 612.08 1094.6 637.58 c 4,46,47
 1065.7 677.529 1065.7 677.529 1008.75 690.279 c 4,48,49
 964.55 700.479 964.55 700.479 901.65 691.979 c 4,50,51
 796.25 678.38 796.25 678.38 730.8 630.779 c 4,52,53
 727.4 628.229 727.4 628.229 724 624.83 c 5,54,55
 740.15 610.38 740.15 610.38 790.3 558.529 c 4,56,57
 848.95 499.029 848.95 499.029 890.6 475.229 c 4,58,59
 920.35 457.38 920.35 457.38 950.95 450.58 c 5,21,22
697.65 646.93 m 5,60,61
 703.6 652.88 703.6 652.88 711.25 657.979 c 4,62,63
 782.65 710.68 782.65 710.68 896.55 725.979 c 4,64,65
 966.25 735.33 966.25 735.33 1017.25 723.43 c 4,66,67
 1086.1 707.279 1086.1 707.279 1121.8 657.979 c 4,68,69
 1146.45 624.83 1146.45 624.83 1149.85 583.18 c 4,70,71
 1153.25 543.229 1153.25 543.229 1136.25 505.83 c 260,72,73
 1119.25 468.43 1119.25 468.43 1086.1 444.63 c 4,74,75
 1053.8 420.83 1053.8 420.83 1013 414.029 c 4,76,77
 995.15 411.479 995.15 411.479 975.6 412.33 c 5,78,79
 957.75 366.43 957.75 366.43 922.05 335.83 c 4,80,81
 879.55 299.279 879.55 299.279 824.725 292.479 c 132,-1,82
 769.9 285.68 769.9 285.68 720.175 309.479 c 132,-1,83
 670.45 333.279 670.45 333.279 641.55 380.455 c 132,-1,84
 612.65 427.63 612.65 427.63 613.5 482.88 c 4,85,86
 614.35 534.729 614.35 534.729 642.4 582.33 c 4,87,88
 655.15 603.58 655.15 603.58 672.15 623.13 c 5,89,90
 671.3 623.979 671.3 623.979 670.45 624.83 c 4,91,92
 611.8 669.029 611.8 669.029 556.55 672.43 c 5,93,94
 491.95 677.529 491.95 677.529 442.65 635.455 c 132,-1,95
 393.35 593.38 393.35 593.38 388.25 528.779 c 4,96,97
 388.25 521.979 388.25 521.979 382.725 517.305 c 132,-1,98
 377.2 512.63 377.2 512.63 369.975 513.479 c 132,-1,99
 362.75 514.33 362.75 514.33 358.5 519.43 c 132,-1,100
 354.25 524.529 354.25 524.529 354.25 531.33 c 4,101,102
 361.05 610.38 361.05 610.38 420.55 661.38 c 132,-1,103
 480.05 712.38 480.05 712.38 559.1 706.43 c 4,104,105
 624.55 702.18 624.55 702.18 690.85 652.029 c 4,106,107
 693.4 650.33 693.4 650.33 697.65 646.93 c 5,60,61
EndSplineSet
EndChar

StartChar: zero
Encoding: 16 48 19
Width: 594
GlyphClass: 2
Flags: W
LayerCount: 2
Fore
SplineSet
478 556 m 128,-1,1
 544 472 544 472 544 314.5 c 128,-1,2
 544 157 544 157 478 73 c 128,-1,3
 412 -11 412 -11 298 -11 c 128,-1,4
 184 -11 184 -11 117.5 72 c 128,-1,5
 51 155 51 155 51 314.5 c 128,-1,6
 51 474 51 474 117.5 557 c 128,-1,7
 184 640 184 640 298 640 c 128,-1,0
 412 640 412 640 478 556 c 128,-1,1
420 502.5 m 128,-1,9
 378 568 378 568 297.5 568 c 128,-1,10
 217 568 217 568 175 502.5 c 128,-1,11
 133 437 133 437 133 314.5 c 128,-1,12
 133 192 133 192 175 126.5 c 128,-1,13
 217 61 217 61 297.5 61 c 128,-1,14
 378 61 378 61 420 126.5 c 128,-1,15
 462 192 462 192 462 314.5 c 128,-1,8
 462 437 462 437 420 502.5 c 128,-1,9
EndSplineSet
Substitution2: "'onum' Oldstyle Figures in Latin lookup 0 subtable" .notdef
EndChar

StartChar: one
Encoding: 17 49 20
Width: 331
GlyphClass: 2
Flags: W
LayerCount: 2
Fore
SplineSet
49 580 m 1,0,1
 116 589 116 589 166 631 c 1,2,-1
 230 631 l 1,3,-1
 230 0 l 1,4,-1
 152 0 l 1,5,-1
 152 537 l 1,6,7
 102 505 102 505 49 502 c 1,8,-1
 49 580 l 1,0,1
EndSplineSet
Substitution2: "'onum' Oldstyle Figures in Latin lookup 0 subtable" .notdef
EndChar

StartChar: two
Encoding: 18 50 21
Width: 580
GlyphClass: 2
Flags: W
LayerCount: 2
Fore
SplineSet
143 73 m 1,0,-1
 508 73 l 1,1,-1
 508 0 l 1,2,-1
 64 0 l 1,3,-1
 64 93 l 2,4,5
 64 204 64 204 148 256 c 0,6,7
 175 273 175 273 208 286 c 2,8,-1
 332 336 l 2,9,10
 428 374 428 374 428 461 c 0,11,12
 428 509 428 509 395 539.5 c 128,-1,13
 362 570 362 570 302.5 570 c 128,-1,14
 243 570 243 570 205.5 545 c 128,-1,15
 168 520 168 520 162 470 c 1,16,-1
 75 470 l 1,17,18
 80 552 80 552 141 596 c 128,-1,19
 202 640 202 640 297.5 640 c 128,-1,20
 393 640 393 640 453 588 c 128,-1,21
 513 536 513 536 513 459.5 c 128,-1,22
 513 383 513 383 473.5 338 c 128,-1,23
 434 293 434 293 365 266 c 2,24,-1
 238 215 l 2,25,26
 190 195 190 195 166.5 169.5 c 128,-1,27
 143 144 143 144 143 103 c 2,28,-1
 143 73 l 1,0,-1
EndSplineSet
Substitution2: "'onum' Oldstyle Figures in Latin lookup 0 subtable" .notdef
EndChar

StartChar: three
Encoding: 19 51 22
Width: 591
GlyphClass: 2
Flags: W
LayerCount: 2
Fore
SplineSet
505 468 m 0,0,1
 505 368 505 368 395 329 c 1,2,3
 455 312 455 312 492 273 c 128,-1,4
 529 234 529 234 529 173 c 0,5,6
 529 90 529 90 466 39.5 c 128,-1,7
 403 -11 403 -11 300 -11 c 128,-1,8
 197 -11 197 -11 124.5 42.5 c 128,-1,9
 52 96 52 96 52 193 c 1,10,-1
 134 193 l 1,11,12
 136 129 136 129 181.5 95 c 128,-1,13
 227 61 227 61 297 61 c 128,-1,14
 367 61 367 61 405.5 94.5 c 128,-1,15
 444 128 444 128 444 177.5 c 128,-1,16
 444 227 444 227 407 258.5 c 128,-1,17
 370 290 370 290 287 290 c 2,18,-1
 215 290 l 1,19,-1
 215 353 l 1,20,-1
 264 353 l 2,21,22
 336 353 336 353 378 381.5 c 128,-1,23
 420 410 420 410 420 458 c 128,-1,24
 420 506 420 506 386 537 c 128,-1,25
 352 568 352 568 296 568 c 128,-1,26
 240 568 240 568 202.5 548.5 c 128,-1,27
 165 529 165 529 152 476 c 1,28,-1
 70 476 l 1,29,30
 81 559 81 559 139 599.5 c 128,-1,31
 197 640 197 640 288.5 640 c 128,-1,32
 380 640 380 640 442.5 591.5 c 128,-1,33
 505 543 505 543 505 468 c 0,0,1
940.75 418.279 m 5,34,35
 905.9 425.93 905.9 425.93 872.75 445.479 c 4,36,37
 827.7 471.83 827.7 471.83 766.5 534.729 c 4,38,39
 715.5 586.58 715.5 586.58 698.5 601.88 c 5,40,41
 683.2 584.029 683.2 584.029 671.3 565.33 c 5,42,43
 648.35 525.38 648.35 525.38 647.5 482.029 c 4,44,45
 646.65 436.979 646.65 436.979 670.45 398.305 c 132,-1,46
 694.25 359.63 694.25 359.63 735.05 340.08 c 132,-1,47
 775.85 320.529 775.85 320.529 820.475 326.479 c 132,-1,48
 865.1 332.43 865.1 332.43 899.95 361.33 c 4,49,50
 926.3 384.279 926.3 384.279 940.75 418.279 c 5,34,35
950.95 450.58 m 5,51,52
 952.65 463.33 952.65 463.33 953.5 476.08 c 5,53,54
 953.5 508.38 953.5 508.38 939.475 538.979 c 132,-1,55
 925.45 569.58 925.45 569.58 901.65 590.83 c 4,56,57
 896.55 595.08 896.55 595.08 895.7 602.305 c 132,-1,58
 894.85 609.529 894.85 609.529 899.525 614.63 c 132,-1,59
 904.2 619.729 904.2 619.729 911.425 620.58 c 132,-1,60
 918.65 621.43 918.65 621.43 923.75 616.33 c 4,61,62
 953.5 589.979 953.5 589.979 970.5 552.58 c 132,-1,63
 987.5 515.18 987.5 515.18 987.5 475.229 c 5,64,65
 986.65 461.63 986.65 461.63 984.1 446.33 c 5,66,67
 996.85 446.33 996.85 446.33 1007.9 448.029 c 4,68,69
 1040.2 453.13 1040.2 453.13 1065.7 471.83 c 4,70,71
 1092.05 490.529 1092.05 490.529 1105.65 519.43 c 4,72,73
 1119.25 549.18 1119.25 549.18 1115.85 580.63 c 4,74,75
 1113.3 612.08 1113.3 612.08 1094.6 637.58 c 4,76,77
 1065.7 677.529 1065.7 677.529 1008.75 690.279 c 4,78,79
 964.55 700.479 964.55 700.479 901.65 691.979 c 4,80,81
 796.25 678.38 796.25 678.38 730.8 630.779 c 4,82,83
 727.4 628.229 727.4 628.229 724 624.83 c 5,84,85
 740.15 610.38 740.15 610.38 790.3 558.529 c 4,86,87
 848.95 499.029 848.95 499.029 890.6 475.229 c 4,88,89
 920.35 457.38 920.35 457.38 950.95 450.58 c 5,51,52
697.65 646.93 m 5,90,91
 703.6 652.88 703.6 652.88 711.25 657.979 c 4,92,93
 782.65 710.68 782.65 710.68 896.55 725.979 c 4,94,95
 966.25 735.33 966.25 735.33 1017.25 723.43 c 4,96,97
 1086.1 707.279 1086.1 707.279 1121.8 657.979 c 4,98,99
 1146.45 624.83 1146.45 624.83 1149.85 583.18 c 4,100,101
 1153.25 543.229 1153.25 543.229 1136.25 505.83 c 260,102,103
 1119.25 468.43 1119.25 468.43 1086.1 444.63 c 4,104,105
 1053.8 420.83 1053.8 420.83 1013 414.029 c 4,106,107
 995.15 411.479 995.15 411.479 975.6 412.33 c 5,108,109
 957.75 366.43 957.75 366.43 922.05 335.83 c 4,110,111
 879.55 299.279 879.55 299.279 824.725 292.479 c 132,-1,112
 769.9 285.68 769.9 285.68 720.175 309.479 c 132,-1,113
 670.45 333.279 670.45 333.279 641.55 380.455 c 132,-1,114
 612.65 427.63 612.65 427.63 613.5 482.88 c 4,115,116
 614.35 534.729 614.35 534.729 642.4 582.33 c 4,117,118
 655.15 603.58 655.15 603.58 672.15 623.13 c 5,119,120
 671.3 623.979 671.3 623.979 670.45 624.83 c 4,121,122
 611.8 669.029 611.8 669.029 556.55 672.43 c 5,123,124
 491.95 677.529 491.95 677.529 442.65 635.455 c 132,-1,125
 393.35 593.38 393.35 593.38 388.25 528.779 c 4,126,127
 388.25 521.979 388.25 521.979 382.725 517.305 c 132,-1,128
 377.2 512.63 377.2 512.63 369.975 513.479 c 132,-1,129
 362.75 514.33 362.75 514.33 358.5 519.43 c 132,-1,130
 354.25 524.529 354.25 524.529 354.25 531.33 c 4,131,132
 361.05 610.38 361.05 610.38 420.55 661.38 c 132,-1,133
 480.05 712.38 480.05 712.38 559.1 706.43 c 4,134,135
 624.55 702.18 624.55 702.18 690.85 652.029 c 4,136,137
 693.4 650.33 693.4 650.33 697.65 646.93 c 5,90,91
EndSplineSet
Substitution2: "'onum' Oldstyle Figures in Latin lookup 0 subtable" .notdef
EndChar

StartChar: four
Encoding: 20 52 23
Width: 559
GlyphClass: 2
Flags: W
LayerCount: 2
Fore
SplineSet
428 638 m 1,0,-1
 428 220 l 1,1,-1
 537 220 l 1,2,-1
 537 152 l 1,3,-1
 428 152 l 1,4,-1
 428 0 l 1,5,-1
 351 0 l 1,6,-1
 351 152 l 1,7,-1
 26 152 l 1,8,-1
 26 213 l 1,9,-1
 355 638 l 1,10,-1
 428 638 l 1,0,-1
120 213 m 1,11,-1
 353 213 l 1,12,-1
 353 513 l 1,13,-1
 120 213 l 1,11,-1
187.275 224.8 m 5,14,15
 178.775 280.05 178.775 280.05 190.676 332.75 c 4,16,17
 193.226 345.5 193.226 345.5 197.476 358.25 c 5,18,19
 194.926 371 194.926 371 194.075 384.601 c 4,20,21
 191.525 420.3 191.525 420.3 198.325 455.15 c 4,22,23
 212.775 525.7 212.775 525.7 260.375 580.95 c 4,24,25
 307.125 634.5 307.125 634.5 375.125 660.851 c 4,26,27
 421.875 678.7 421.875 678.7 472.875 681.25 c 5,28,29
 405.726 703.351 405.726 703.351 338.575 691.45 c 4,30,31
 272.275 680.4 272.275 680.4 216.176 637.051 c 132,-1,32
 160.075 593.7 160.075 593.7 132.45 532.075 c 132,-1,33
 104.825 470.45 104.825 470.45 109.5 399.9 c 132,-1,34
 114.176 329.351 114.176 329.351 149.875 271.55 c 4,35,36
 166.025 246.05 166.025 246.05 187.275 224.8 c 5,14,15
637.775 602.2 m 5,37,38
 685.375 536.75 685.375 536.75 693.875 458.55 c 4,39,40
 694.726 445.8 694.726 445.8 694.726 433.05 c 5,41,42
 695.575 426.25 695.575 426.25 694.726 417.75 c 5,43,44
 698.976 411.8 698.976 411.8 703.226 405.851 c 4,45,46
 706.625 401.601 706.625 401.601 709.176 396.5 c 4,47,48
 755.926 323.4 755.926 323.4 761.875 234.15 c 5,49,50
 766.125 247.75 766.125 247.75 768.676 260.5 c 4,51,52
 789.075 342.95 789.075 342.95 767.825 422.851 c 4,53,54
 745.726 504.45 745.726 504.45 687.075 562.25 c 4,55,56
 664.976 585.2 664.976 585.2 637.775 602.2 c 5,37,38
687.926 365.9 m 5,57,58
 676.025 313.2 676.025 313.2 646.275 270.7 c 4,59,60
 618.226 229.9 618.226 229.9 575.726 201.425 c 132,-1,61
 533.226 172.95 533.226 172.95 484.775 163.601 c 4,62,63
 435.476 153.4 435.476 153.4 385.325 164.025 c 132,-1,64
 335.176 174.65 335.176 174.65 295.226 203.55 c 4,65,66
 245.926 238.4 245.926 238.4 218.726 293.65 c 5,67,68
 214.476 247.75 214.476 247.75 226.375 203.55 c 4,69,70
 228.926 195.9 228.926 195.9 231.476 188.25 c 5,71,72
 239.125 183.15 239.125 183.15 247.625 178.05 c 4,73,74
 307.976 143.2 307.976 143.2 375.976 140.65 c 4,75,76
 382.775 140.65 382.775 140.65 387.45 135.125 c 132,-1,77
 392.125 129.601 392.125 129.601 392.125 122.8 c 132,-1,78
 392.125 116 392.125 116 386.601 111.325 c 132,-1,79
 381.075 106.65 381.075 106.65 374.275 106.65 c 4,80,81
 314.775 109.2 314.775 109.2 257.825 134.7 c 5,82,83
 260.375 129.601 260.375 129.601 263.775 125.351 c 4,84,85
 312.226 58.2002 312.226 58.2002 393.825 31.8506 c 4,86,87
 472.875 6.35059 472.875 6.35059 555.325 30.1504 c 4,88,89
 635.226 53.1006 635.226 53.1006 693.025 116 c 4,90,91
 708.325 133 708.325 133 721.926 153.4 c 5,92,93
 722.775 156.8 722.775 156.8 723.625 160.2 c 4,94,95
 726.176 174.65 726.176 174.65 727.025 189.95 c 4,96,97
 734.676 284.3 734.676 284.3 687.926 365.9 c 5,57,58
688.775 65 m 5,98,99
 632.676 17.4004 632.676 17.4004 564.676 -3 c 4,100,101
 472.875 -29.3496 472.875 -29.3496 383.625 -0.450195 c 4,102,103
 291.825 29.2998 291.825 29.2998 236.575 105.8 c 4,104,105
 222.976 124.5 222.976 124.5 212.775 145.75 c 4,106,107
 207.676 155.95 207.676 155.95 203.426 166.15 c 5,108,109
 194.926 172.101 194.926 172.101 187.275 178.9 c 4,110,111
 147.325 211.2 147.325 211.2 120.976 253.7 c 4,112,113
 81.0254 318.3 81.0254 318.3 75.9258 397.351 c 132,-1,114
 70.8252 476.4 70.8252 476.4 101.851 546.101 c 132,-1,115
 132.875 615.801 132.875 615.801 195.351 663.825 c 132,-1,116
 257.825 711.851 257.825 711.851 333.476 725.45 c 4,117,118
 436.325 743.301 436.325 743.301 531.525 693.15 c 4,119,120
 551.075 682.95 551.075 682.95 569.775 669.351 c 5,121,122
 591.025 663.4 591.025 663.4 611.426 654.9 c 4,123,124
 667.525 630.25 667.525 630.25 710.875 586.9 c 4,125,126
 776.325 521.45 776.325 521.45 800.125 431.351 c 4,127,128
 823.926 342.95 823.926 342.95 801.825 252.851 c 4,129,130
 792.476 213.75 792.476 213.75 775.476 178.05 c 4,131,132
 766.125 158.5 766.125 158.5 754.226 139.8 c 5,133,134
 749.125 117.7 749.125 117.7 740.625 95.6006 c 4,135,136
 705.775 2.9502 705.775 2.9502 627.575 -55.7002 c 4,137,138
 576.575 -93.9502 576.575 -93.9502 514.525 -111.375 c 132,-1,139
 452.476 -128.8 452.476 -128.8 389.575 -122.425 c 132,-1,140
 326.676 -116.05 326.676 -116.05 269.301 -86.7246 c 132,-1,141
 211.926 -57.3994 211.926 -57.3994 169.426 -9.7998 c 4,142,143
 165.176 -4.7002 165.176 -4.7002 165.601 2.52539 c 132,-1,144
 166.025 9.75 166.025 9.75 171.125 14.4248 c 132,-1,145
 176.226 19.1006 176.226 19.1006 183.45 18.6748 c 132,-1,146
 190.676 18.25 190.676 18.25 194.926 12.2998 c 4,147,148
 233.176 -30.2002 233.176 -30.2002 285.025 -56.5498 c 132,-1,149
 336.875 -82.8994 336.875 -82.8994 392.976 -88.4248 c 132,-1,150
 449.075 -93.9502 449.075 -93.9502 505.176 -78.2246 c 132,-1,151
 561.275 -62.5 561.275 -62.5 607.176 -28.5 c 4,152,153
 657.325 8.90039 657.325 8.90039 688.775 65 c 5,98,99
228.075 419.45 m 5,154,155
 247.625 449.2 247.625 449.2 272.275 472.15 c 4,156,157
 323.275 518.9 323.275 518.9 390.426 535.051 c 4,158,159
 482.226 557.15 482.226 557.15 572.325 517.2 c 5,160,161
 619.926 495.101 619.926 495.101 659.875 457.7 c 5,162,163
 648.825 545.25 648.825 545.25 586.775 609.851 c 4,164,165
 572.325 625.15 572.325 625.15 554.476 638.75 c 5,166,167
 551.075 639.601 551.075 639.601 546.825 640.45 c 4,168,169
 532.375 643.851 532.375 643.851 517.926 645.551 c 4,170,171
 449.926 653.2 449.926 653.2 387.875 629.4 c 4,172,173
 327.525 606.45 327.525 606.45 285.875 558.851 c 4,174,175
 244.226 510.4 244.226 510.4 231.476 449.2 c 4,176,177
 228.926 434.75 228.926 434.75 228.075 419.45 c 5,154,155
233.176 355.7 m 5,178,179
 236.575 340.4 236.575 340.4 241.676 327.65 c 4,180,181
 263.775 267.3 263.775 267.3 314.775 230.75 c 4,182,183
 349.625 206.101 349.625 206.101 392.976 197.175 c 132,-1,184
 436.325 188.25 436.325 188.25 477.976 196.75 c 4,185,186
 520.476 205.25 520.476 205.25 557.025 229.9 c 132,-1,187
 593.575 254.55 593.575 254.55 618.226 290.25 c 4,188,189
 651.375 337 651.375 337 659.025 396.5 c 4,190,191
 659.875 401.601 659.875 401.601 659.875 406.7 c 5,192,193
 656.476 411.8 656.476 411.8 653.075 415.2 c 4,194,195
 612.275 461.95 612.275 461.95 557.875 485.75 c 4,196,197
 478.825 521.45 478.825 521.45 398.075 501.9 c 4,198,199
 340.275 487.45 340.275 487.45 295.226 446.65 c 4,200,201
 261.226 416.05 261.226 416.05 241.676 374.4 c 4,202,203
 236.575 365.05 236.575 365.05 233.176 355.7 c 5,178,179
EndSplineSet
Substitution2: "'onum' Oldstyle Figures in Latin lookup 0 subtable" .notdef
EndChar

StartChar: five
Encoding: 21 53 24
Width: 565
GlyphClass: 2
Flags: W
LayerCount: 2
Fore
SplineSet
427 204 m 0,0,1
 427 323 427 323 272 323 c 2,2,-1
 103 323 l 1,3,-1
 130 629 l 1,4,-1
 479 629 l 1,5,-1
 479 557 l 1,6,-1
 206 557 l 1,7,-1
 189 376 l 1,8,9
 241 385 241 385 288 385 c 0,10,11
 391 385 391 385 450 339.5 c 128,-1,12
 509 294 509 294 509 202 c 128,-1,13
 509 110 509 110 447 49.5 c 128,-1,14
 385 -11 385 -11 287 -11 c 128,-1,15
 189 -11 189 -11 127 38.5 c 128,-1,16
 65 88 65 88 65 175 c 1,17,-1
 144 175 l 1,18,19
 144 93 144 93 228 68 c 0,20,21
 254 61 254 61 285 61 c 0,22,23
 349 61 349 61 388 101.5 c 128,-1,24
 427 142 427 142 427 204 c 0,0,1
EndSplineSet
Substitution2: "'onum' Oldstyle Figures in Latin lookup 0 subtable" .notdef
EndChar

StartChar: six
Encoding: 22 54 25
Width: 573
GlyphClass: 2
Flags: W
LayerCount: 2
Fore
SplineSet
425 470 m 1,0,1
 408 568 408 568 318 568 c 128,-1,2
 228 568 228 568 179.5 494 c 128,-1,3
 131 420 131 420 131 292 c 0,4,5
 131 239 131 239 136 204 c 1,6,7
 142 296 142 296 192.5 337.5 c 128,-1,8
 243 379 243 379 322 379 c 128,-1,9
 401 379 401 379 458 323.5 c 128,-1,10
 515 268 515 268 515 181.5 c 128,-1,11
 515 95 515 95 456 41.5 c 128,-1,12
 397 -12 397 -12 301 -12 c 0,13,14
 189 -12 189 -12 120 78 c 128,-1,15
 51 168 51 168 51 314.5 c 128,-1,16
 51 461 51 461 121 550.5 c 128,-1,17
 191 640 191 640 312 640 c 0,18,19
 396 640 396 640 449 593 c 128,-1,20
 502 546 502 546 510 470 c 1,21,-1
 425 470 l 1,0,1
207.5 273.5 m 128,-1,23
 170 238 170 238 170 183 c 128,-1,24
 170 128 170 128 207 94.5 c 128,-1,25
 244 61 244 61 301 61 c 128,-1,26
 358 61 358 61 395.5 94 c 128,-1,27
 433 127 433 127 433 185 c 256,28,29
 433 243 433 243 395.5 276 c 128,-1,30
 358 309 358 309 301.5 309 c 128,-1,22
 245 309 245 309 207.5 273.5 c 128,-1,23
940.75 418.279 m 5,31,32
 905.9 425.93 905.9 425.93 872.75 445.479 c 4,33,34
 827.7 471.83 827.7 471.83 766.5 534.729 c 4,35,36
 715.5 586.58 715.5 586.58 698.5 601.88 c 5,37,38
 683.2 584.029 683.2 584.029 671.3 565.33 c 5,39,40
 648.35 525.38 648.35 525.38 647.5 482.029 c 4,41,42
 646.65 436.979 646.65 436.979 670.45 398.305 c 132,-1,43
 694.25 359.63 694.25 359.63 735.05 340.08 c 132,-1,44
 775.85 320.529 775.85 320.529 820.475 326.479 c 132,-1,45
 865.1 332.43 865.1 332.43 899.95 361.33 c 4,46,47
 926.3 384.279 926.3 384.279 940.75 418.279 c 5,31,32
950.95 450.58 m 5,48,49
 952.65 463.33 952.65 463.33 953.5 476.08 c 5,50,51
 953.5 508.38 953.5 508.38 939.475 538.979 c 132,-1,52
 925.45 569.58 925.45 569.58 901.65 590.83 c 4,53,54
 896.55 595.08 896.55 595.08 895.7 602.305 c 132,-1,55
 894.85 609.529 894.85 609.529 899.525 614.63 c 132,-1,56
 904.2 619.729 904.2 619.729 911.425 620.58 c 132,-1,57
 918.65 621.43 918.65 621.43 923.75 616.33 c 4,58,59
 953.5 589.979 953.5 589.979 970.5 552.58 c 132,-1,60
 987.5 515.18 987.5 515.18 987.5 475.229 c 5,61,62
 986.65 461.63 986.65 461.63 984.1 446.33 c 5,63,64
 996.85 446.33 996.85 446.33 1007.9 448.029 c 4,65,66
 1040.2 453.13 1040.2 453.13 1065.7 471.83 c 4,67,68
 1092.05 490.529 1092.05 490.529 1105.65 519.43 c 4,69,70
 1119.25 549.18 1119.25 549.18 1115.85 580.63 c 4,71,72
 1113.3 612.08 1113.3 612.08 1094.6 637.58 c 4,73,74
 1065.7 677.529 1065.7 677.529 1008.75 690.279 c 4,75,76
 964.55 700.479 964.55 700.479 901.65 691.979 c 4,77,78
 796.25 678.38 796.25 678.38 730.8 630.779 c 4,79,80
 727.4 628.229 727.4 628.229 724 624.83 c 5,81,82
 740.15 610.38 740.15 610.38 790.3 558.529 c 4,83,84
 848.95 499.029 848.95 499.029 890.6 475.229 c 4,85,86
 920.35 457.38 920.35 457.38 950.95 450.58 c 5,48,49
697.65 646.93 m 5,87,88
 703.6 652.88 703.6 652.88 711.25 657.979 c 4,89,90
 782.65 710.68 782.65 710.68 896.55 725.979 c 4,91,92
 966.25 735.33 966.25 735.33 1017.25 723.43 c 4,93,94
 1086.1 707.279 1086.1 707.279 1121.8 657.979 c 4,95,96
 1146.45 624.83 1146.45 624.83 1149.85 583.18 c 4,97,98
 1153.25 543.229 1153.25 543.229 1136.25 505.83 c 260,99,100
 1119.25 468.43 1119.25 468.43 1086.1 444.63 c 4,101,102
 1053.8 420.83 1053.8 420.83 1013 414.029 c 4,103,104
 995.15 411.479 995.15 411.479 975.6 412.33 c 5,105,106
 957.75 366.43 957.75 366.43 922.05 335.83 c 4,107,108
 879.55 299.279 879.55 299.279 824.725 292.479 c 132,-1,109
 769.9 285.68 769.9 285.68 720.175 309.479 c 132,-1,110
 670.45 333.279 670.45 333.279 641.55 380.455 c 132,-1,111
 612.65 427.63 612.65 427.63 613.5 482.88 c 4,112,113
 614.35 534.729 614.35 534.729 642.4 582.33 c 4,114,115
 655.15 603.58 655.15 603.58 672.15 623.13 c 5,116,117
 671.3 623.979 671.3 623.979 670.45 624.83 c 4,118,119
 611.8 669.029 611.8 669.029 556.55 672.43 c 5,120,121
 491.95 677.529 491.95 677.529 442.65 635.455 c 132,-1,122
 393.35 593.38 393.35 593.38 388.25 528.779 c 4,123,124
 388.25 521.979 388.25 521.979 382.725 517.305 c 132,-1,125
 377.2 512.63 377.2 512.63 369.975 513.479 c 132,-1,126
 362.75 514.33 362.75 514.33 358.5 519.43 c 132,-1,127
 354.25 524.529 354.25 524.529 354.25 531.33 c 4,128,129
 361.05 610.38 361.05 610.38 420.55 661.38 c 132,-1,130
 480.05 712.38 480.05 712.38 559.1 706.43 c 4,131,132
 624.55 702.18 624.55 702.18 690.85 652.029 c 4,133,134
 693.4 650.33 693.4 650.33 697.65 646.93 c 5,87,88
EndSplineSet
Substitution2: "'onum' Oldstyle Figures in Latin lookup 0 subtable" .notdef
EndChar

StartChar: seven
Encoding: 23 55 26
Width: 470
GlyphClass: 2
Flags: W
LayerCount: 2
Fore
SplineSet
452 629 m 1,0,-1
 452 556 l 1,1,-1
 164 0 l 1,2,-1
 58 0 l 1,3,-1
 360 553 l 1,4,-1
 24 553 l 1,5,-1
 24 629 l 1,6,-1
 452 629 l 1,0,-1
1081 95.084 m 5,7,8
 1072.5 92.5342 1072.5 92.5342 1064.85 90.834 c 4,9,10
 1030 84.8838 1030 84.8838 995.147 98.4844 c 4,11,12
 963.697 111.234 963.697 111.234 939.047 138.435 c 4,13,14
 899.098 181.784 899.098 181.784 885.497 256.584 c 4,15,16
 882.098 275.284 882.098 275.284 879.547 298.234 c 5,17,18
 865.947 303.334 865.947 303.334 856.598 306.734 c 4,19,20
 796.247 329.684 796.247 329.684 763.098 358.584 c 5,21,22
 758.848 352.634 758.848 352.634 755.447 348.384 c 4,23,24
 708.697 282.934 708.697 282.934 716.348 202.185 c 4,25,26
 717.197 195.384 717.197 195.384 712.947 189.859 c 132,-1,27
 708.697 184.334 708.697 184.334 701.473 183.909 c 132,-1,28
 694.247 183.484 694.247 183.484 688.723 187.734 c 132,-1,29
 683.197 191.984 683.197 191.984 683.197 198.784 c 4,30,31
 672.997 291.434 672.997 291.434 727.397 367.934 c 4,32,33
 733.348 375.584 733.348 375.584 739.297 382.384 c 5,34,35
 718.047 408.734 718.047 408.734 710.397 438.484 c 4,36,37
 701.047 476.734 701.047 476.734 714.647 510.734 c 4,38,39
 730.797 548.984 730.797 548.984 767.348 563.435 c 4,40,41
 786.897 571.084 786.897 571.084 806.447 569.384 c 4,42,43
 826.848 567.685 826.848 567.685 843.848 555.784 c 4,44,45
 865.947 540.484 865.947 540.484 880.397 507.334 c 4,46,47
 888.897 489.484 888.897 489.484 893.997 469.084 c 5,48,49
 974.747 480.134 974.747 480.134 1045.3 441.884 c 4,50,51
 1085.25 420.634 1085.25 420.634 1115 386.209 c 132,-1,52
 1144.75 351.784 1144.75 351.784 1160.05 310.134 c 4,53,54
 1186.4 240.435 1186.4 240.435 1164.3 179.234 c 4,55,56
 1151.55 145.234 1151.55 145.234 1126.9 122.284 c 4,57,58
 1120.1 116.334 1120.1 116.334 1112.45 111.234 c 5,59,60
 1122.65 60.2344 1122.65 60.2344 1112.87 7.95898 c 132,-1,61
 1103.1 -44.3154 1103.1 -44.3154 1075.9 -87.666 c 4,62,63
 1072.5 -93.6162 1072.5 -93.6162 1065.27 -94.8906 c 132,-1,64
 1058.05 -96.166 1058.05 -96.166 1052.52 -92.7656 c 132,-1,65
 1047 -89.3662 1047 -89.3662 1045.3 -82.1406 c 132,-1,66
 1043.6 -74.916 1043.6 -74.916 1047 -68.9658 c 4,67,68
 1094.6 5.83398 1094.6 5.83398 1081 95.084 c 5,7,8
911.848 322.884 m 5,69,70
 960.297 304.184 960.297 304.184 987.497 288.034 c 4,71,72
 1069.95 237.884 1069.95 237.884 1102.25 146.084 c 5,73,74
 1103.1 146.935 1103.1 146.935 1103.95 146.935 c 4,75,76
 1122.65 164.784 1122.65 164.784 1132 191.134 c 4,77,78
 1149.85 239.584 1149.85 239.584 1128.6 298.234 c 4,79,80
 1115 333.934 1115 333.934 1089.07 363.684 c 132,-1,81
 1063.15 393.434 1063.15 393.434 1029.15 412.134 c 4,82,83
 969.647 443.584 969.647 443.584 901.647 435.084 c 5,84,85
 905.047 412.134 905.047 412.134 907.598 382.384 c 4,86,87
 908.447 372.184 908.447 372.184 909.723 351.784 c 132,-1,88
 910.997 331.384 910.997 331.384 911.848 322.884 c 5,69,70
786.897 382.384 m 5,89,90
 815.797 359.434 815.797 359.434 869.348 338.184 c 4,91,92
 872.747 337.334 872.747 337.334 876.997 335.634 c 5,93,94
 874.447 374.734 874.447 374.734 873.598 379.834 c 4,95,96
 871.897 407.884 871.897 407.884 868.497 428.284 c 5,97,98
 822.598 414.684 822.598 414.684 786.897 382.384 c 5,89,90
763.098 407.034 m 5,99,100
 805.598 446.134 805.598 446.134 860.848 461.434 c 5,101,102
 856.598 479.284 856.598 479.284 849.797 493.734 c 4,103,104
 838.747 518.384 838.747 518.384 824.297 527.734 c 4,105,106
 814.947 534.534 814.947 534.534 803.047 535.384 c 132,-1,107
 791.147 536.234 791.147 536.234 780.098 531.984 c 4,108,109
 756.297 522.634 756.297 522.634 746.098 497.984 c 4,110,111
 736.747 474.184 736.747 474.184 743.547 446.984 c 4,112,113
 748.647 426.584 748.647 426.584 763.098 407.034 c 5,99,100
915.247 284.634 m 5,114,115
 916.947 272.734 916.947 272.734 918.647 262.534 c 4,116,117
 931.397 197.935 931.397 197.935 964.547 161.384 c 4,118,119
 984.098 140.134 984.098 140.134 1007.9 129.935 c 4,120,121
 1033.4 119.734 1033.4 119.734 1058.9 124.834 c 4,122,123
 1065.7 125.685 1065.7 125.685 1072.5 128.234 c 5,124,125
 1059.75 169.034 1059.75 169.034 1032.97 203.034 c 132,-1,126
 1006.2 237.034 1006.2 237.034 970.497 258.284 c 4,127,128
 948.397 271.884 948.397 271.884 915.247 284.634 c 5,114,115
EndSplineSet
Substitution2: "'onum' Oldstyle Figures in Latin lookup 0 subtable" .notdef
EndChar

StartChar: eight
Encoding: 24 56 27
Width: 615
GlyphClass: 2
Flags: W
LayerCount: 2
Fore
SplineSet
201 318 m 1,0,1
 76 375 76 375 76 473 c 0,2,3
 76 548 76 548 138 594 c 128,-1,4
 200 640 200 640 302.5 640 c 128,-1,5
 405 640 405 640 471 591 c 128,-1,6
 537 542 537 542 537 465 c 0,7,8
 537 413 537 413 502.5 372 c 128,-1,9
 468 331 468 331 401 321 c 1,10,-1
 418 315 l 1,11,12
 487 289 487 289 524 253.5 c 128,-1,13
 561 218 561 218 561 157 c 0,14,15
 561 81 561 81 493.5 35 c 128,-1,16
 426 -11 426 -11 311.5 -11 c 128,-1,17
 197 -11 197 -11 126 40 c 128,-1,18
 55 91 55 91 55 168 c 0,19,20
 55 230 55 230 95.5 269 c 128,-1,21
 136 308 136 308 201 318 c 1,0,1
276 289 m 1,22,23
 213 282 213 282 175 249.5 c 128,-1,24
 137 217 137 217 137 169 c 128,-1,25
 137 121 137 121 185 91 c 128,-1,26
 233 61 233 61 310.5 61 c 128,-1,27
 388 61 388 61 433.5 87 c 128,-1,28
 479 113 479 113 479 150 c 128,-1,29
 479 187 479 187 455 209.5 c 128,-1,30
 431 232 431 232 389 247 c 2,31,-1
 276 289 l 1,22,23
159 463 m 0,32,33
 159 436 159 436 181 416.5 c 128,-1,34
 203 397 203 397 244 381 c 2,35,-1
 317 353 l 1,36,37
 377 355 377 355 416 384.5 c 128,-1,38
 455 414 455 414 455 461.5 c 128,-1,39
 455 509 455 509 414 538.5 c 128,-1,40
 373 568 373 568 308 568 c 128,-1,41
 243 568 243 568 201 539.5 c 128,-1,42
 159 511 159 511 159 463 c 0,32,33
940.75 418.279 m 5,43,44
 905.9 425.93 905.9 425.93 872.75 445.479 c 4,45,46
 827.7 471.83 827.7 471.83 766.5 534.729 c 4,47,48
 715.5 586.58 715.5 586.58 698.5 601.88 c 5,49,50
 683.2 584.029 683.2 584.029 671.3 565.33 c 5,51,52
 648.35 525.38 648.35 525.38 647.5 482.029 c 4,53,54
 646.65 436.979 646.65 436.979 670.45 398.305 c 132,-1,55
 694.25 359.63 694.25 359.63 735.05 340.08 c 132,-1,56
 775.85 320.529 775.85 320.529 820.475 326.479 c 132,-1,57
 865.1 332.43 865.1 332.43 899.95 361.33 c 4,58,59
 926.3 384.279 926.3 384.279 940.75 418.279 c 5,43,44
950.95 450.58 m 5,60,61
 952.65 463.33 952.65 463.33 953.5 476.08 c 5,62,63
 953.5 508.38 953.5 508.38 939.475 538.979 c 132,-1,64
 925.45 569.58 925.45 569.58 901.65 590.83 c 4,65,66
 896.55 595.08 896.55 595.08 895.7 602.305 c 132,-1,67
 894.85 609.529 894.85 609.529 899.525 614.63 c 132,-1,68
 904.2 619.729 904.2 619.729 911.425 620.58 c 132,-1,69
 918.65 621.43 918.65 621.43 923.75 616.33 c 4,70,71
 953.5 589.979 953.5 589.979 970.5 552.58 c 132,-1,72
 987.5 515.18 987.5 515.18 987.5 475.229 c 5,73,74
 986.65 461.63 986.65 461.63 984.1 446.33 c 5,75,76
 996.85 446.33 996.85 446.33 1007.9 448.029 c 4,77,78
 1040.2 453.13 1040.2 453.13 1065.7 471.83 c 4,79,80
 1092.05 490.529 1092.05 490.529 1105.65 519.43 c 4,81,82
 1119.25 549.18 1119.25 549.18 1115.85 580.63 c 4,83,84
 1113.3 612.08 1113.3 612.08 1094.6 637.58 c 4,85,86
 1065.7 677.529 1065.7 677.529 1008.75 690.279 c 4,87,88
 964.55 700.479 964.55 700.479 901.65 691.979 c 4,89,90
 796.25 678.38 796.25 678.38 730.8 630.779 c 4,91,92
 727.4 628.229 727.4 628.229 724 624.83 c 5,93,94
 740.15 610.38 740.15 610.38 790.3 558.529 c 4,95,96
 848.95 499.029 848.95 499.029 890.6 475.229 c 4,97,98
 920.35 457.38 920.35 457.38 950.95 450.58 c 5,60,61
697.65 646.93 m 5,99,100
 703.6 652.88 703.6 652.88 711.25 657.979 c 4,101,102
 782.65 710.68 782.65 710.68 896.55 725.979 c 4,103,104
 966.25 735.33 966.25 735.33 1017.25 723.43 c 4,105,106
 1086.1 707.279 1086.1 707.279 1121.8 657.979 c 4,107,108
 1146.45 624.83 1146.45 624.83 1149.85 583.18 c 4,109,110
 1153.25 543.229 1153.25 543.229 1136.25 505.83 c 260,111,112
 1119.25 468.43 1119.25 468.43 1086.1 444.63 c 4,113,114
 1053.8 420.83 1053.8 420.83 1013 414.029 c 4,115,116
 995.15 411.479 995.15 411.479 975.6 412.33 c 5,117,118
 957.75 366.43 957.75 366.43 922.05 335.83 c 4,119,120
 879.55 299.279 879.55 299.279 824.725 292.479 c 132,-1,121
 769.9 285.68 769.9 285.68 720.175 309.479 c 132,-1,122
 670.45 333.279 670.45 333.279 641.55 380.455 c 132,-1,123
 612.65 427.63 612.65 427.63 613.5 482.88 c 4,124,125
 614.35 534.729 614.35 534.729 642.4 582.33 c 4,126,127
 655.15 603.58 655.15 603.58 672.15 623.13 c 5,128,129
 671.3 623.979 671.3 623.979 670.45 624.83 c 4,130,131
 611.8 669.029 611.8 669.029 556.55 672.43 c 5,132,133
 491.95 677.529 491.95 677.529 442.65 635.455 c 132,-1,134
 393.35 593.38 393.35 593.38 388.25 528.779 c 4,135,136
 388.25 521.979 388.25 521.979 382.725 517.305 c 132,-1,137
 377.2 512.63 377.2 512.63 369.975 513.479 c 132,-1,138
 362.75 514.33 362.75 514.33 358.5 519.43 c 132,-1,139
 354.25 524.529 354.25 524.529 354.25 531.33 c 4,140,141
 361.05 610.38 361.05 610.38 420.55 661.38 c 132,-1,142
 480.05 712.38 480.05 712.38 559.1 706.43 c 4,143,144
 624.55 702.18 624.55 702.18 690.85 652.029 c 4,145,146
 693.4 650.33 693.4 650.33 697.65 646.93 c 5,99,100
EndSplineSet
Substitution2: "'onum' Oldstyle Figures in Latin lookup 0 subtable" .notdef
EndChar

StartChar: nine
Encoding: 25 57 28
Width: 581
GlyphClass: 2
Flags: W
LayerCount: 2
Fore
SplineSet
282 640 m 0,0,1
 333 640 333 640 379 618 c 128,-1,2
 425 596 425 596 458 555 c 0,3,4
 530 467 530 467 530 326 c 0,5,6
 530 81 530 81 394 12 c 0,7,8
 347 -11 347 -11 292 -11 c 0,9,10
 189 -11 189 -11 129 45 c 128,-1,11
 69 101 69 101 69 186 c 1,12,-1
 152 186 l 1,13,14
 154 129 154 129 188 95 c 128,-1,15
 222 61 222 61 274 61 c 128,-1,16
 326 61 326 61 358 80 c 0,17,18
 449 137 449 137 449 337 c 0,19,20
 449 378 449 378 444 411 c 1,21,22
 434 330 434 330 385.5 290 c 128,-1,23
 337 250 337 250 258.5 250 c 128,-1,24
 180 250 180 250 123 305.5 c 128,-1,25
 66 361 66 361 66 447 c 0,26,27
 66 534 66 534 125 587 c 128,-1,28
 184 640 184 640 282 640 c 0,0,1
279 567 m 128,-1,30
 222 567 222 567 185 534 c 128,-1,31
 148 501 148 501 148 443 c 256,32,33
 148 385 148 385 185.5 352 c 128,-1,34
 223 319 223 319 279.5 319 c 128,-1,35
 336 319 336 319 373.5 354.5 c 128,-1,36
 411 390 411 390 411 445 c 128,-1,37
 411 500 411 500 373.5 533.5 c 128,-1,29
 336 567 336 567 279 567 c 128,-1,30
187.275 224.8 m 5,38,39
 178.775 280.05 178.775 280.05 190.676 332.75 c 4,40,41
 193.226 345.5 193.226 345.5 197.476 358.25 c 5,42,43
 194.926 371 194.926 371 194.075 384.601 c 4,44,45
 191.525 420.3 191.525 420.3 198.325 455.15 c 4,46,47
 212.775 525.7 212.775 525.7 260.375 580.95 c 4,48,49
 307.125 634.5 307.125 634.5 375.125 660.851 c 4,50,51
 421.875 678.7 421.875 678.7 472.875 681.25 c 5,52,53
 405.726 703.351 405.726 703.351 338.575 691.45 c 4,54,55
 272.275 680.4 272.275 680.4 216.176 637.051 c 132,-1,56
 160.075 593.7 160.075 593.7 132.45 532.075 c 132,-1,57
 104.825 470.45 104.825 470.45 109.5 399.9 c 132,-1,58
 114.176 329.351 114.176 329.351 149.875 271.55 c 4,59,60
 166.025 246.05 166.025 246.05 187.275 224.8 c 5,38,39
637.775 602.2 m 5,61,62
 685.375 536.75 685.375 536.75 693.875 458.55 c 4,63,64
 694.726 445.8 694.726 445.8 694.726 433.05 c 5,65,66
 695.575 426.25 695.575 426.25 694.726 417.75 c 5,67,68
 698.976 411.8 698.976 411.8 703.226 405.851 c 4,69,70
 706.625 401.601 706.625 401.601 709.176 396.5 c 4,71,72
 755.926 323.4 755.926 323.4 761.875 234.15 c 5,73,74
 766.125 247.75 766.125 247.75 768.676 260.5 c 4,75,76
 789.075 342.95 789.075 342.95 767.825 422.851 c 4,77,78
 745.726 504.45 745.726 504.45 687.075 562.25 c 4,79,80
 664.976 585.2 664.976 585.2 637.775 602.2 c 5,61,62
687.926 365.9 m 5,81,82
 676.025 313.2 676.025 313.2 646.275 270.7 c 4,83,84
 618.226 229.9 618.226 229.9 575.726 201.425 c 132,-1,85
 533.226 172.95 533.226 172.95 484.775 163.601 c 4,86,87
 435.476 153.4 435.476 153.4 385.325 164.025 c 132,-1,88
 335.176 174.65 335.176 174.65 295.226 203.55 c 4,89,90
 245.926 238.4 245.926 238.4 218.726 293.65 c 5,91,92
 214.476 247.75 214.476 247.75 226.375 203.55 c 4,93,94
 228.926 195.9 228.926 195.9 231.476 188.25 c 5,95,96
 239.125 183.15 239.125 183.15 247.625 178.05 c 4,97,98
 307.976 143.2 307.976 143.2 375.976 140.65 c 4,99,100
 382.775 140.65 382.775 140.65 387.45 135.125 c 132,-1,101
 392.125 129.601 392.125 129.601 392.125 122.8 c 132,-1,102
 392.125 116 392.125 116 386.601 111.325 c 132,-1,103
 381.075 106.65 381.075 106.65 374.275 106.65 c 4,104,105
 314.775 109.2 314.775 109.2 257.825 134.7 c 5,106,107
 260.375 129.601 260.375 129.601 263.775 125.351 c 4,108,109
 312.226 58.2002 312.226 58.2002 393.825 31.8506 c 4,110,111
 472.875 6.35059 472.875 6.35059 555.325 30.1504 c 4,112,113
 635.226 53.1006 635.226 53.1006 693.025 116 c 4,114,115
 708.325 133 708.325 133 721.926 153.4 c 5,116,117
 722.775 156.8 722.775 156.8 723.625 160.2 c 4,118,119
 726.176 174.65 726.176 174.65 727.025 189.95 c 4,120,121
 734.676 284.3 734.676 284.3 687.926 365.9 c 5,81,82
688.775 65 m 5,122,123
 632.676 17.4004 632.676 17.4004 564.676 -3 c 4,124,125
 472.875 -29.3496 472.875 -29.3496 383.625 -0.450195 c 4,126,127
 291.825 29.2998 291.825 29.2998 236.575 105.8 c 4,128,129
 222.976 124.5 222.976 124.5 212.775 145.75 c 4,130,131
 207.676 155.95 207.676 155.95 203.426 166.15 c 5,132,133
 194.926 172.101 194.926 172.101 187.275 178.9 c 4,134,135
 147.325 211.2 147.325 211.2 120.976 253.7 c 4,136,137
 81.0254 318.3 81.0254 318.3 75.9258 397.351 c 132,-1,138
 70.8252 476.4 70.8252 476.4 101.851 546.101 c 132,-1,139
 132.875 615.801 132.875 615.801 195.351 663.825 c 132,-1,140
 257.825 711.851 257.825 711.851 333.476 725.45 c 4,141,142
 436.325 743.301 436.325 743.301 531.525 693.15 c 4,143,144
 551.075 682.95 551.075 682.95 569.775 669.351 c 5,145,146
 591.025 663.4 591.025 663.4 611.426 654.9 c 4,147,148
 667.525 630.25 667.525 630.25 710.875 586.9 c 4,149,150
 776.325 521.45 776.325 521.45 800.125 431.351 c 4,151,152
 823.926 342.95 823.926 342.95 801.825 252.851 c 4,153,154
 792.476 213.75 792.476 213.75 775.476 178.05 c 4,155,156
 766.125 158.5 766.125 158.5 754.226 139.8 c 5,157,158
 749.125 117.7 749.125 117.7 740.625 95.6006 c 4,159,160
 705.775 2.9502 705.775 2.9502 627.575 -55.7002 c 4,161,162
 576.575 -93.9502 576.575 -93.9502 514.525 -111.375 c 132,-1,163
 452.476 -128.8 452.476 -128.8 389.575 -122.425 c 132,-1,164
 326.676 -116.05 326.676 -116.05 269.301 -86.7246 c 132,-1,165
 211.926 -57.3994 211.926 -57.3994 169.426 -9.7998 c 4,166,167
 165.176 -4.7002 165.176 -4.7002 165.601 2.52539 c 132,-1,168
 166.025 9.75 166.025 9.75 171.125 14.4248 c 132,-1,169
 176.226 19.1006 176.226 19.1006 183.45 18.6748 c 132,-1,170
 190.676 18.25 190.676 18.25 194.926 12.2998 c 4,171,172
 233.176 -30.2002 233.176 -30.2002 285.025 -56.5498 c 132,-1,173
 336.875 -82.8994 336.875 -82.8994 392.976 -88.4248 c 132,-1,174
 449.075 -93.9502 449.075 -93.9502 505.176 -78.2246 c 132,-1,175
 561.275 -62.5 561.275 -62.5 607.176 -28.5 c 4,176,177
 657.325 8.90039 657.325 8.90039 688.775 65 c 5,122,123
228.075 419.45 m 5,178,179
 247.625 449.2 247.625 449.2 272.275 472.15 c 4,180,181
 323.275 518.9 323.275 518.9 390.426 535.051 c 4,182,183
 482.226 557.15 482.226 557.15 572.325 517.2 c 5,184,185
 619.926 495.101 619.926 495.101 659.875 457.7 c 5,186,187
 648.825 545.25 648.825 545.25 586.775 609.851 c 4,188,189
 572.325 625.15 572.325 625.15 554.476 638.75 c 5,190,191
 551.075 639.601 551.075 639.601 546.825 640.45 c 4,192,193
 532.375 643.851 532.375 643.851 517.926 645.551 c 4,194,195
 449.926 653.2 449.926 653.2 387.875 629.4 c 4,196,197
 327.525 606.45 327.525 606.45 285.875 558.851 c 4,198,199
 244.226 510.4 244.226 510.4 231.476 449.2 c 4,200,201
 228.926 434.75 228.926 434.75 228.075 419.45 c 5,178,179
233.176 355.7 m 5,202,203
 236.575 340.4 236.575 340.4 241.676 327.65 c 4,204,205
 263.775 267.3 263.775 267.3 314.775 230.75 c 4,206,207
 349.625 206.101 349.625 206.101 392.976 197.175 c 132,-1,208
 436.325 188.25 436.325 188.25 477.976 196.75 c 4,209,210
 520.476 205.25 520.476 205.25 557.025 229.9 c 132,-1,211
 593.575 254.55 593.575 254.55 618.226 290.25 c 4,212,213
 651.375 337 651.375 337 659.025 396.5 c 4,214,215
 659.875 401.601 659.875 401.601 659.875 406.7 c 5,216,217
 656.476 411.8 656.476 411.8 653.075 415.2 c 4,218,219
 612.275 461.95 612.275 461.95 557.875 485.75 c 4,220,221
 478.825 521.45 478.825 521.45 398.075 501.9 c 4,222,223
 340.275 487.45 340.275 487.45 295.226 446.65 c 4,224,225
 261.226 416.05 261.226 416.05 241.676 374.4 c 4,226,227
 236.575 365.05 236.575 365.05 233.176 355.7 c 5,202,203
EndSplineSet
Substitution2: "'onum' Oldstyle Figures in Latin lookup 0 subtable" .notdef
EndChar

StartChar: colon
Encoding: 26 58 29
Width: 231
GlyphClass: 2
Flags: W
LayerCount: 2
Fore
SplineSet
72.5 39.5 m 128,-1,1
 56 56 56 56 56 79.5 c 128,-1,2
 56 103 56 103 72.5 119.5 c 128,-1,3
 89 136 89 136 114.5 136 c 128,-1,4
 140 136 140 136 157 119.5 c 128,-1,5
 174 103 174 103 174 79.5 c 128,-1,6
 174 56 174 56 157 39.5 c 128,-1,7
 140 23 140 23 114.5 23 c 128,-1,0
 89 23 89 23 72.5 39.5 c 128,-1,1
72.5 345.5 m 128,-1,9
 56 362 56 362 56 385.5 c 128,-1,10
 56 409 56 409 72.5 425.5 c 128,-1,11
 89 442 89 442 114.5 442 c 128,-1,12
 140 442 140 442 157 425.5 c 128,-1,13
 174 409 174 409 174 385.5 c 128,-1,14
 174 362 174 362 157 345.5 c 128,-1,15
 140 329 140 329 114.5 329 c 128,-1,8
 89 329 89 329 72.5 345.5 c 128,-1,9
187.275 224.8 m 5,16,17
 178.775 280.05 178.775 280.05 190.676 332.75 c 4,18,19
 193.226 345.5 193.226 345.5 197.476 358.25 c 5,20,21
 194.926 371 194.926 371 194.075 384.601 c 4,22,23
 191.525 420.3 191.525 420.3 198.325 455.15 c 4,24,25
 212.775 525.7 212.775 525.7 260.375 580.95 c 4,26,27
 307.125 634.5 307.125 634.5 375.125 660.851 c 4,28,29
 421.875 678.7 421.875 678.7 472.875 681.25 c 5,30,31
 405.726 703.351 405.726 703.351 338.575 691.45 c 4,32,33
 272.275 680.4 272.275 680.4 216.176 637.051 c 132,-1,34
 160.075 593.7 160.075 593.7 132.45 532.075 c 132,-1,35
 104.825 470.45 104.825 470.45 109.5 399.9 c 132,-1,36
 114.176 329.351 114.176 329.351 149.875 271.55 c 4,37,38
 166.025 246.05 166.025 246.05 187.275 224.8 c 5,16,17
637.775 602.2 m 5,39,40
 685.375 536.75 685.375 536.75 693.875 458.55 c 4,41,42
 694.726 445.8 694.726 445.8 694.726 433.05 c 5,43,44
 695.575 426.25 695.575 426.25 694.726 417.75 c 5,45,46
 698.976 411.8 698.976 411.8 703.226 405.851 c 4,47,48
 706.625 401.601 706.625 401.601 709.176 396.5 c 4,49,50
 755.926 323.4 755.926 323.4 761.875 234.15 c 5,51,52
 766.125 247.75 766.125 247.75 768.676 260.5 c 4,53,54
 789.075 342.95 789.075 342.95 767.825 422.851 c 4,55,56
 745.726 504.45 745.726 504.45 687.075 562.25 c 4,57,58
 664.976 585.2 664.976 585.2 637.775 602.2 c 5,39,40
687.926 365.9 m 5,59,60
 676.025 313.2 676.025 313.2 646.275 270.7 c 4,61,62
 618.226 229.9 618.226 229.9 575.726 201.425 c 132,-1,63
 533.226 172.95 533.226 172.95 484.775 163.601 c 4,64,65
 435.476 153.4 435.476 153.4 385.325 164.025 c 132,-1,66
 335.176 174.65 335.176 174.65 295.226 203.55 c 4,67,68
 245.926 238.4 245.926 238.4 218.726 293.65 c 5,69,70
 214.476 247.75 214.476 247.75 226.375 203.55 c 4,71,72
 228.926 195.9 228.926 195.9 231.476 188.25 c 5,73,74
 239.125 183.15 239.125 183.15 247.625 178.05 c 4,75,76
 307.976 143.2 307.976 143.2 375.976 140.65 c 4,77,78
 382.775 140.65 382.775 140.65 387.45 135.125 c 132,-1,79
 392.125 129.601 392.125 129.601 392.125 122.8 c 132,-1,80
 392.125 116 392.125 116 386.601 111.325 c 132,-1,81
 381.075 106.65 381.075 106.65 374.275 106.65 c 4,82,83
 314.775 109.2 314.775 109.2 257.825 134.7 c 5,84,85
 260.375 129.601 260.375 129.601 263.775 125.351 c 4,86,87
 312.226 58.2002 312.226 58.2002 393.825 31.8506 c 4,88,89
 472.875 6.35059 472.875 6.35059 555.325 30.1504 c 4,90,91
 635.226 53.1006 635.226 53.1006 693.025 116 c 4,92,93
 708.325 133 708.325 133 721.926 153.4 c 5,94,95
 722.775 156.8 722.775 156.8 723.625 160.2 c 4,96,97
 726.176 174.65 726.176 174.65 727.025 189.95 c 4,98,99
 734.676 284.3 734.676 284.3 687.926 365.9 c 5,59,60
688.775 65 m 5,100,101
 632.676 17.4004 632.676 17.4004 564.676 -3 c 4,102,103
 472.875 -29.3496 472.875 -29.3496 383.625 -0.450195 c 4,104,105
 291.825 29.2998 291.825 29.2998 236.575 105.8 c 4,106,107
 222.976 124.5 222.976 124.5 212.775 145.75 c 4,108,109
 207.676 155.95 207.676 155.95 203.426 166.15 c 5,110,111
 194.926 172.101 194.926 172.101 187.275 178.9 c 4,112,113
 147.325 211.2 147.325 211.2 120.976 253.7 c 4,114,115
 81.0254 318.3 81.0254 318.3 75.9258 397.351 c 132,-1,116
 70.8252 476.4 70.8252 476.4 101.851 546.101 c 132,-1,117
 132.875 615.801 132.875 615.801 195.351 663.825 c 132,-1,118
 257.825 711.851 257.825 711.851 333.476 725.45 c 4,119,120
 436.325 743.301 436.325 743.301 531.525 693.15 c 4,121,122
 551.075 682.95 551.075 682.95 569.775 669.351 c 5,123,124
 591.025 663.4 591.025 663.4 611.426 654.9 c 4,125,126
 667.525 630.25 667.525 630.25 710.875 586.9 c 4,127,128
 776.325 521.45 776.325 521.45 800.125 431.351 c 4,129,130
 823.926 342.95 823.926 342.95 801.825 252.851 c 4,131,132
 792.476 213.75 792.476 213.75 775.476 178.05 c 4,133,134
 766.125 158.5 766.125 158.5 754.226 139.8 c 5,135,136
 749.125 117.7 749.125 117.7 740.625 95.6006 c 4,137,138
 705.775 2.9502 705.775 2.9502 627.575 -55.7002 c 4,139,140
 576.575 -93.9502 576.575 -93.9502 514.525 -111.375 c 132,-1,141
 452.476 -128.8 452.476 -128.8 389.575 -122.425 c 132,-1,142
 326.676 -116.05 326.676 -116.05 269.301 -86.7246 c 132,-1,143
 211.926 -57.3994 211.926 -57.3994 169.426 -9.7998 c 4,144,145
 165.176 -4.7002 165.176 -4.7002 165.601 2.52539 c 132,-1,146
 166.025 9.75 166.025 9.75 171.125 14.4248 c 132,-1,147
 176.226 19.1006 176.226 19.1006 183.45 18.6748 c 132,-1,148
 190.676 18.25 190.676 18.25 194.926 12.2998 c 4,149,150
 233.176 -30.2002 233.176 -30.2002 285.025 -56.5498 c 132,-1,151
 336.875 -82.8994 336.875 -82.8994 392.976 -88.4248 c 132,-1,152
 449.075 -93.9502 449.075 -93.9502 505.176 -78.2246 c 132,-1,153
 561.275 -62.5 561.275 -62.5 607.176 -28.5 c 4,154,155
 657.325 8.90039 657.325 8.90039 688.775 65 c 5,100,101
228.075 419.45 m 5,156,157
 247.625 449.2 247.625 449.2 272.275 472.15 c 4,158,159
 323.275 518.9 323.275 518.9 390.426 535.051 c 4,160,161
 482.226 557.15 482.226 557.15 572.325 517.2 c 5,162,163
 619.926 495.101 619.926 495.101 659.875 457.7 c 5,164,165
 648.825 545.25 648.825 545.25 586.775 609.851 c 4,166,167
 572.325 625.15 572.325 625.15 554.476 638.75 c 5,168,169
 551.075 639.601 551.075 639.601 546.825 640.45 c 4,170,171
 532.375 643.851 532.375 643.851 517.926 645.551 c 4,172,173
 449.926 653.2 449.926 653.2 387.875 629.4 c 4,174,175
 327.525 606.45 327.525 606.45 285.875 558.851 c 4,176,177
 244.226 510.4 244.226 510.4 231.476 449.2 c 4,178,179
 228.926 434.75 228.926 434.75 228.075 419.45 c 5,156,157
233.176 355.7 m 5,180,181
 236.575 340.4 236.575 340.4 241.676 327.65 c 4,182,183
 263.775 267.3 263.775 267.3 314.775 230.75 c 4,184,185
 349.625 206.101 349.625 206.101 392.976 197.175 c 132,-1,186
 436.325 188.25 436.325 188.25 477.976 196.75 c 4,187,188
 520.476 205.25 520.476 205.25 557.025 229.9 c 132,-1,189
 593.575 254.55 593.575 254.55 618.226 290.25 c 4,190,191
 651.375 337 651.375 337 659.025 396.5 c 4,192,193
 659.875 401.601 659.875 401.601 659.875 406.7 c 5,194,195
 656.476 411.8 656.476 411.8 653.075 415.2 c 4,196,197
 612.275 461.95 612.275 461.95 557.875 485.75 c 4,198,199
 478.825 521.45 478.825 521.45 398.075 501.9 c 4,200,201
 340.275 487.45 340.275 487.45 295.226 446.65 c 4,202,203
 261.226 416.05 261.226 416.05 241.676 374.4 c 4,204,205
 236.575 365.05 236.575 365.05 233.176 355.7 c 5,180,181
EndSplineSet
EndChar

StartChar: semicolon
Encoding: 27 59 30
Width: 262
GlyphClass: 2
Flags: W
LayerCount: 2
Fore
SplineSet
94 10 m 128,-1,1
 79 23 79 23 79 45 c 128,-1,2
 79 67 79 67 94.5 82 c 128,-1,3
 110 97 110 97 138.5 97 c 128,-1,4
 167 97 167 97 186 74.5 c 128,-1,5
 205 52 205 52 205 18 c 128,-1,6
 205 -16 205 -16 183 -51.5 c 128,-1,7
 161 -87 161 -87 116 -109 c 1,8,-1
 57 -80 l 1,9,10
 119 -50 119 -50 132 -5 c 1,11,0
 109 -3 109 -3 94 10 c 128,-1,1
98.5 345.5 m 128,-1,13
 82 362 82 362 82 385.5 c 128,-1,14
 82 409 82 409 98.5 425.5 c 128,-1,15
 115 442 115 442 140.5 442 c 128,-1,16
 166 442 166 442 183 425.5 c 128,-1,17
 200 409 200 409 200 385.5 c 128,-1,18
 200 362 200 362 183 345.5 c 128,-1,19
 166 329 166 329 140.5 329 c 128,-1,12
 115 329 115 329 98.5 345.5 c 128,-1,13
940.75 418.279 m 5,20,21
 905.9 425.93 905.9 425.93 872.75 445.479 c 4,22,23
 827.7 471.83 827.7 471.83 766.5 534.729 c 4,24,25
 715.5 586.58 715.5 586.58 698.5 601.88 c 5,26,27
 683.2 584.029 683.2 584.029 671.3 565.33 c 5,28,29
 648.35 525.38 648.35 525.38 647.5 482.029 c 4,30,31
 646.65 436.979 646.65 436.979 670.45 398.305 c 132,-1,32
 694.25 359.63 694.25 359.63 735.05 340.08 c 132,-1,33
 775.85 320.529 775.85 320.529 820.475 326.479 c 132,-1,34
 865.1 332.43 865.1 332.43 899.95 361.33 c 4,35,36
 926.3 384.279 926.3 384.279 940.75 418.279 c 5,20,21
950.95 450.58 m 5,37,38
 952.65 463.33 952.65 463.33 953.5 476.08 c 5,39,40
 953.5 508.38 953.5 508.38 939.475 538.979 c 132,-1,41
 925.45 569.58 925.45 569.58 901.65 590.83 c 4,42,43
 896.55 595.08 896.55 595.08 895.7 602.305 c 132,-1,44
 894.85 609.529 894.85 609.529 899.525 614.63 c 132,-1,45
 904.2 619.729 904.2 619.729 911.425 620.58 c 132,-1,46
 918.65 621.43 918.65 621.43 923.75 616.33 c 4,47,48
 953.5 589.979 953.5 589.979 970.5 552.58 c 132,-1,49
 987.5 515.18 987.5 515.18 987.5 475.229 c 5,50,51
 986.65 461.63 986.65 461.63 984.1 446.33 c 5,52,53
 996.85 446.33 996.85 446.33 1007.9 448.029 c 4,54,55
 1040.2 453.13 1040.2 453.13 1065.7 471.83 c 4,56,57
 1092.05 490.529 1092.05 490.529 1105.65 519.43 c 4,58,59
 1119.25 549.18 1119.25 549.18 1115.85 580.63 c 4,60,61
 1113.3 612.08 1113.3 612.08 1094.6 637.58 c 4,62,63
 1065.7 677.529 1065.7 677.529 1008.75 690.279 c 4,64,65
 964.55 700.479 964.55 700.479 901.65 691.979 c 4,66,67
 796.25 678.38 796.25 678.38 730.8 630.779 c 4,68,69
 727.4 628.229 727.4 628.229 724 624.83 c 5,70,71
 740.15 610.38 740.15 610.38 790.3 558.529 c 4,72,73
 848.95 499.029 848.95 499.029 890.6 475.229 c 4,74,75
 920.35 457.38 920.35 457.38 950.95 450.58 c 5,37,38
697.65 646.93 m 5,76,77
 703.6 652.88 703.6 652.88 711.25 657.979 c 4,78,79
 782.65 710.68 782.65 710.68 896.55 725.979 c 4,80,81
 966.25 735.33 966.25 735.33 1017.25 723.43 c 4,82,83
 1086.1 707.279 1086.1 707.279 1121.8 657.979 c 4,84,85
 1146.45 624.83 1146.45 624.83 1149.85 583.18 c 4,86,87
 1153.25 543.229 1153.25 543.229 1136.25 505.83 c 260,88,89
 1119.25 468.43 1119.25 468.43 1086.1 444.63 c 4,90,91
 1053.8 420.83 1053.8 420.83 1013 414.029 c 4,92,93
 995.15 411.479 995.15 411.479 975.6 412.33 c 5,94,95
 957.75 366.43 957.75 366.43 922.05 335.83 c 4,96,97
 879.55 299.279 879.55 299.279 824.725 292.479 c 132,-1,98
 769.9 285.68 769.9 285.68 720.175 309.479 c 132,-1,99
 670.45 333.279 670.45 333.279 641.55 380.455 c 132,-1,100
 612.65 427.63 612.65 427.63 613.5 482.88 c 4,101,102
 614.35 534.729 614.35 534.729 642.4 582.33 c 4,103,104
 655.15 603.58 655.15 603.58 672.15 623.13 c 5,105,106
 671.3 623.979 671.3 623.979 670.45 624.83 c 4,107,108
 611.8 669.029 611.8 669.029 556.55 672.43 c 5,109,110
 491.95 677.529 491.95 677.529 442.65 635.455 c 132,-1,111
 393.35 593.38 393.35 593.38 388.25 528.779 c 4,112,113
 388.25 521.979 388.25 521.979 382.725 517.305 c 132,-1,114
 377.2 512.63 377.2 512.63 369.975 513.479 c 132,-1,115
 362.75 514.33 362.75 514.33 358.5 519.43 c 132,-1,116
 354.25 524.529 354.25 524.529 354.25 531.33 c 4,117,118
 361.05 610.38 361.05 610.38 420.55 661.38 c 132,-1,119
 480.05 712.38 480.05 712.38 559.1 706.43 c 4,120,121
 624.55 702.18 624.55 702.18 690.85 652.029 c 4,122,123
 693.4 650.33 693.4 650.33 697.65 646.93 c 5,76,77
EndSplineSet
EndChar

StartChar: less
Encoding: 28 60 31
Width: 454
GlyphClass: 2
Flags: W
LayerCount: 2
Fore
SplineSet
408 512 m 1,0,-1
 120 305 l 1,1,-1
 408 101 l 1,2,-1
 356 40 l 1,3,-1
 40 271 l 1,4,-1
 40 340 l 1,5,-1
 356 572 l 1,6,-1
 408 512 l 1,0,-1
940.75 418.279 m 5,7,8
 905.9 425.93 905.9 425.93 872.75 445.479 c 4,9,10
 827.7 471.83 827.7 471.83 766.5 534.729 c 4,11,12
 715.5 586.58 715.5 586.58 698.5 601.88 c 5,13,14
 683.2 584.029 683.2 584.029 671.3 565.33 c 5,15,16
 648.35 525.38 648.35 525.38 647.5 482.029 c 4,17,18
 646.65 436.979 646.65 436.979 670.45 398.305 c 132,-1,19
 694.25 359.63 694.25 359.63 735.05 340.08 c 132,-1,20
 775.85 320.529 775.85 320.529 820.475 326.479 c 132,-1,21
 865.1 332.43 865.1 332.43 899.95 361.33 c 4,22,23
 926.3 384.279 926.3 384.279 940.75 418.279 c 5,7,8
950.95 450.58 m 5,24,25
 952.65 463.33 952.65 463.33 953.5 476.08 c 5,26,27
 953.5 508.38 953.5 508.38 939.475 538.979 c 132,-1,28
 925.45 569.58 925.45 569.58 901.65 590.83 c 4,29,30
 896.55 595.08 896.55 595.08 895.7 602.305 c 132,-1,31
 894.85 609.529 894.85 609.529 899.525 614.63 c 132,-1,32
 904.2 619.729 904.2 619.729 911.425 620.58 c 132,-1,33
 918.65 621.43 918.65 621.43 923.75 616.33 c 4,34,35
 953.5 589.979 953.5 589.979 970.5 552.58 c 132,-1,36
 987.5 515.18 987.5 515.18 987.5 475.229 c 5,37,38
 986.65 461.63 986.65 461.63 984.1 446.33 c 5,39,40
 996.85 446.33 996.85 446.33 1007.9 448.029 c 4,41,42
 1040.2 453.13 1040.2 453.13 1065.7 471.83 c 4,43,44
 1092.05 490.529 1092.05 490.529 1105.65 519.43 c 4,45,46
 1119.25 549.18 1119.25 549.18 1115.85 580.63 c 4,47,48
 1113.3 612.08 1113.3 612.08 1094.6 637.58 c 4,49,50
 1065.7 677.529 1065.7 677.529 1008.75 690.279 c 4,51,52
 964.55 700.479 964.55 700.479 901.65 691.979 c 4,53,54
 796.25 678.38 796.25 678.38 730.8 630.779 c 4,55,56
 727.4 628.229 727.4 628.229 724 624.83 c 5,57,58
 740.15 610.38 740.15 610.38 790.3 558.529 c 4,59,60
 848.95 499.029 848.95 499.029 890.6 475.229 c 4,61,62
 920.35 457.38 920.35 457.38 950.95 450.58 c 5,24,25
697.65 646.93 m 5,63,64
 703.6 652.88 703.6 652.88 711.25 657.979 c 4,65,66
 782.65 710.68 782.65 710.68 896.55 725.979 c 4,67,68
 966.25 735.33 966.25 735.33 1017.25 723.43 c 4,69,70
 1086.1 707.279 1086.1 707.279 1121.8 657.979 c 4,71,72
 1146.45 624.83 1146.45 624.83 1149.85 583.18 c 4,73,74
 1153.25 543.229 1153.25 543.229 1136.25 505.83 c 260,75,76
 1119.25 468.43 1119.25 468.43 1086.1 444.63 c 4,77,78
 1053.8 420.83 1053.8 420.83 1013 414.029 c 4,79,80
 995.15 411.479 995.15 411.479 975.6 412.33 c 5,81,82
 957.75 366.43 957.75 366.43 922.05 335.83 c 4,83,84
 879.55 299.279 879.55 299.279 824.725 292.479 c 132,-1,85
 769.9 285.68 769.9 285.68 720.175 309.479 c 132,-1,86
 670.45 333.279 670.45 333.279 641.55 380.455 c 132,-1,87
 612.65 427.63 612.65 427.63 613.5 482.88 c 4,88,89
 614.35 534.729 614.35 534.729 642.4 582.33 c 4,90,91
 655.15 603.58 655.15 603.58 672.15 623.13 c 5,92,93
 671.3 623.979 671.3 623.979 670.45 624.83 c 4,94,95
 611.8 669.029 611.8 669.029 556.55 672.43 c 5,96,97
 491.95 677.529 491.95 677.529 442.65 635.455 c 132,-1,98
 393.35 593.38 393.35 593.38 388.25 528.779 c 4,99,100
 388.25 521.979 388.25 521.979 382.725 517.305 c 132,-1,101
 377.2 512.63 377.2 512.63 369.975 513.479 c 132,-1,102
 362.75 514.33 362.75 514.33 358.5 519.43 c 132,-1,103
 354.25 524.529 354.25 524.529 354.25 531.33 c 4,104,105
 361.05 610.38 361.05 610.38 420.55 661.38 c 132,-1,106
 480.05 712.38 480.05 712.38 559.1 706.43 c 4,107,108
 624.55 702.18 624.55 702.18 690.85 652.029 c 4,109,110
 693.4 650.33 693.4 650.33 697.65 646.93 c 5,63,64
EndSplineSet
EndChar

StartChar: equal
Encoding: 29 61 32
Width: 488
GlyphClass: 2
Flags: W
LayerCount: 2
Fore
SplineSet
409 185 m 1,0,-1
 409 117 l 1,1,-1
 79 117 l 1,2,-1
 79 185 l 1,3,-1
 409 185 l 1,0,-1
409 377 m 1,4,-1
 409 308 l 1,5,-1
 79 308 l 1,6,-1
 79 377 l 1,7,-1
 409 377 l 1,4,-1
1081 95.084 m 5,8,9
 1072.5 92.5342 1072.5 92.5342 1064.85 90.834 c 4,10,11
 1030 84.8838 1030 84.8838 995.147 98.4844 c 4,12,13
 963.697 111.234 963.697 111.234 939.047 138.435 c 4,14,15
 899.098 181.784 899.098 181.784 885.497 256.584 c 4,16,17
 882.098 275.284 882.098 275.284 879.547 298.234 c 5,18,19
 865.947 303.334 865.947 303.334 856.598 306.734 c 4,20,21
 796.247 329.684 796.247 329.684 763.098 358.584 c 5,22,23
 758.848 352.634 758.848 352.634 755.447 348.384 c 4,24,25
 708.697 282.934 708.697 282.934 716.348 202.185 c 4,26,27
 717.197 195.384 717.197 195.384 712.947 189.859 c 132,-1,28
 708.697 184.334 708.697 184.334 701.473 183.909 c 132,-1,29
 694.247 183.484 694.247 183.484 688.723 187.734 c 132,-1,30
 683.197 191.984 683.197 191.984 683.197 198.784 c 4,31,32
 672.997 291.434 672.997 291.434 727.397 367.934 c 4,33,34
 733.348 375.584 733.348 375.584 739.297 382.384 c 5,35,36
 718.047 408.734 718.047 408.734 710.397 438.484 c 4,37,38
 701.047 476.734 701.047 476.734 714.647 510.734 c 4,39,40
 730.797 548.984 730.797 548.984 767.348 563.435 c 4,41,42
 786.897 571.084 786.897 571.084 806.447 569.384 c 4,43,44
 826.848 567.685 826.848 567.685 843.848 555.784 c 4,45,46
 865.947 540.484 865.947 540.484 880.397 507.334 c 4,47,48
 888.897 489.484 888.897 489.484 893.997 469.084 c 5,49,50
 974.747 480.134 974.747 480.134 1045.3 441.884 c 4,51,52
 1085.25 420.634 1085.25 420.634 1115 386.209 c 132,-1,53
 1144.75 351.784 1144.75 351.784 1160.05 310.134 c 4,54,55
 1186.4 240.435 1186.4 240.435 1164.3 179.234 c 4,56,57
 1151.55 145.234 1151.55 145.234 1126.9 122.284 c 4,58,59
 1120.1 116.334 1120.1 116.334 1112.45 111.234 c 5,60,61
 1122.65 60.2344 1122.65 60.2344 1112.87 7.95898 c 132,-1,62
 1103.1 -44.3154 1103.1 -44.3154 1075.9 -87.666 c 4,63,64
 1072.5 -93.6162 1072.5 -93.6162 1065.27 -94.8906 c 132,-1,65
 1058.05 -96.166 1058.05 -96.166 1052.52 -92.7656 c 132,-1,66
 1047 -89.3662 1047 -89.3662 1045.3 -82.1406 c 132,-1,67
 1043.6 -74.916 1043.6 -74.916 1047 -68.9658 c 4,68,69
 1094.6 5.83398 1094.6 5.83398 1081 95.084 c 5,8,9
911.848 322.884 m 5,70,71
 960.297 304.184 960.297 304.184 987.497 288.034 c 4,72,73
 1069.95 237.884 1069.95 237.884 1102.25 146.084 c 5,74,75
 1103.1 146.935 1103.1 146.935 1103.95 146.935 c 4,76,77
 1122.65 164.784 1122.65 164.784 1132 191.134 c 4,78,79
 1149.85 239.584 1149.85 239.584 1128.6 298.234 c 4,80,81
 1115 333.934 1115 333.934 1089.07 363.684 c 132,-1,82
 1063.15 393.434 1063.15 393.434 1029.15 412.134 c 4,83,84
 969.647 443.584 969.647 443.584 901.647 435.084 c 5,85,86
 905.047 412.134 905.047 412.134 907.598 382.384 c 4,87,88
 908.447 372.184 908.447 372.184 909.723 351.784 c 132,-1,89
 910.997 331.384 910.997 331.384 911.848 322.884 c 5,70,71
786.897 382.384 m 5,90,91
 815.797 359.434 815.797 359.434 869.348 338.184 c 4,92,93
 872.747 337.334 872.747 337.334 876.997 335.634 c 5,94,95
 874.447 374.734 874.447 374.734 873.598 379.834 c 4,96,97
 871.897 407.884 871.897 407.884 868.497 428.284 c 5,98,99
 822.598 414.684 822.598 414.684 786.897 382.384 c 5,90,91
763.098 407.034 m 5,100,101
 805.598 446.134 805.598 446.134 860.848 461.434 c 5,102,103
 856.598 479.284 856.598 479.284 849.797 493.734 c 4,104,105
 838.747 518.384 838.747 518.384 824.297 527.734 c 4,106,107
 814.947 534.534 814.947 534.534 803.047 535.384 c 132,-1,108
 791.147 536.234 791.147 536.234 780.098 531.984 c 4,109,110
 756.297 522.634 756.297 522.634 746.098 497.984 c 4,111,112
 736.747 474.184 736.747 474.184 743.547 446.984 c 4,113,114
 748.647 426.584 748.647 426.584 763.098 407.034 c 5,100,101
915.247 284.634 m 5,115,116
 916.947 272.734 916.947 272.734 918.647 262.534 c 4,117,118
 931.397 197.935 931.397 197.935 964.547 161.384 c 4,119,120
 984.098 140.134 984.098 140.134 1007.9 129.935 c 4,121,122
 1033.4 119.734 1033.4 119.734 1058.9 124.834 c 4,123,124
 1065.7 125.685 1065.7 125.685 1072.5 128.234 c 5,125,126
 1059.75 169.034 1059.75 169.034 1032.97 203.034 c 132,-1,127
 1006.2 237.034 1006.2 237.034 970.497 258.284 c 4,128,129
 948.397 271.884 948.397 271.884 915.247 284.634 c 5,115,116
EndSplineSet
EndChar

StartChar: greater
Encoding: 30 62 33
Width: 454
GlyphClass: 2
Flags: W
LayerCount: 2
Fore
SplineSet
98 572 m 1,0,-1
 414 340 l 1,1,-1
 414 271 l 1,2,-1
 98 40 l 1,3,-1
 47 101 l 1,4,-1
 333 305 l 1,5,-1
 47 512 l 1,6,-1
 98 572 l 1,0,-1
1081 95.084 m 5,7,8
 1072.5 92.5342 1072.5 92.5342 1064.85 90.834 c 4,9,10
 1030 84.8838 1030 84.8838 995.147 98.4844 c 4,11,12
 963.697 111.234 963.697 111.234 939.047 138.435 c 4,13,14
 899.098 181.784 899.098 181.784 885.497 256.584 c 4,15,16
 882.098 275.284 882.098 275.284 879.547 298.234 c 5,17,18
 865.947 303.334 865.947 303.334 856.598 306.734 c 4,19,20
 796.247 329.684 796.247 329.684 763.098 358.584 c 5,21,22
 758.848 352.634 758.848 352.634 755.447 348.384 c 4,23,24
 708.697 282.934 708.697 282.934 716.348 202.185 c 4,25,26
 717.197 195.384 717.197 195.384 712.947 189.859 c 132,-1,27
 708.697 184.334 708.697 184.334 701.473 183.909 c 132,-1,28
 694.247 183.484 694.247 183.484 688.723 187.734 c 132,-1,29
 683.197 191.984 683.197 191.984 683.197 198.784 c 4,30,31
 672.997 291.434 672.997 291.434 727.397 367.934 c 4,32,33
 733.348 375.584 733.348 375.584 739.297 382.384 c 5,34,35
 718.047 408.734 718.047 408.734 710.397 438.484 c 4,36,37
 701.047 476.734 701.047 476.734 714.647 510.734 c 4,38,39
 730.797 548.984 730.797 548.984 767.348 563.435 c 4,40,41
 786.897 571.084 786.897 571.084 806.447 569.384 c 4,42,43
 826.848 567.685 826.848 567.685 843.848 555.784 c 4,44,45
 865.947 540.484 865.947 540.484 880.397 507.334 c 4,46,47
 888.897 489.484 888.897 489.484 893.997 469.084 c 5,48,49
 974.747 480.134 974.747 480.134 1045.3 441.884 c 4,50,51
 1085.25 420.634 1085.25 420.634 1115 386.209 c 132,-1,52
 1144.75 351.784 1144.75 351.784 1160.05 310.134 c 4,53,54
 1186.4 240.435 1186.4 240.435 1164.3 179.234 c 4,55,56
 1151.55 145.234 1151.55 145.234 1126.9 122.284 c 4,57,58
 1120.1 116.334 1120.1 116.334 1112.45 111.234 c 5,59,60
 1122.65 60.2344 1122.65 60.2344 1112.87 7.95898 c 132,-1,61
 1103.1 -44.3154 1103.1 -44.3154 1075.9 -87.666 c 4,62,63
 1072.5 -93.6162 1072.5 -93.6162 1065.27 -94.8906 c 132,-1,64
 1058.05 -96.166 1058.05 -96.166 1052.52 -92.7656 c 132,-1,65
 1047 -89.3662 1047 -89.3662 1045.3 -82.1406 c 132,-1,66
 1043.6 -74.916 1043.6 -74.916 1047 -68.9658 c 4,67,68
 1094.6 5.83398 1094.6 5.83398 1081 95.084 c 5,7,8
911.848 322.884 m 5,69,70
 960.297 304.184 960.297 304.184 987.497 288.034 c 4,71,72
 1069.95 237.884 1069.95 237.884 1102.25 146.084 c 5,73,74
 1103.1 146.935 1103.1 146.935 1103.95 146.935 c 4,75,76
 1122.65 164.784 1122.65 164.784 1132 191.134 c 4,77,78
 1149.85 239.584 1149.85 239.584 1128.6 298.234 c 4,79,80
 1115 333.934 1115 333.934 1089.07 363.684 c 132,-1,81
 1063.15 393.434 1063.15 393.434 1029.15 412.134 c 4,82,83
 969.647 443.584 969.647 443.584 901.647 435.084 c 5,84,85
 905.047 412.134 905.047 412.134 907.598 382.384 c 4,86,87
 908.447 372.184 908.447 372.184 909.723 351.784 c 132,-1,88
 910.997 331.384 910.997 331.384 911.848 322.884 c 5,69,70
786.897 382.384 m 5,89,90
 815.797 359.434 815.797 359.434 869.348 338.184 c 4,91,92
 872.747 337.334 872.747 337.334 876.997 335.634 c 5,93,94
 874.447 374.734 874.447 374.734 873.598 379.834 c 4,95,96
 871.897 407.884 871.897 407.884 868.497 428.284 c 5,97,98
 822.598 414.684 822.598 414.684 786.897 382.384 c 5,89,90
763.098 407.034 m 5,99,100
 805.598 446.134 805.598 446.134 860.848 461.434 c 5,101,102
 856.598 479.284 856.598 479.284 849.797 493.734 c 4,103,104
 838.747 518.384 838.747 518.384 824.297 527.734 c 4,105,106
 814.947 534.534 814.947 534.534 803.047 535.384 c 132,-1,107
 791.147 536.234 791.147 536.234 780.098 531.984 c 4,108,109
 756.297 522.634 756.297 522.634 746.098 497.984 c 4,110,111
 736.747 474.184 736.747 474.184 743.547 446.984 c 4,112,113
 748.647 426.584 748.647 426.584 763.098 407.034 c 5,99,100
915.247 284.634 m 5,114,115
 916.947 272.734 916.947 272.734 918.647 262.534 c 4,116,117
 931.397 197.935 931.397 197.935 964.547 161.384 c 4,118,119
 984.098 140.134 984.098 140.134 1007.9 129.935 c 4,120,121
 1033.4 119.734 1033.4 119.734 1058.9 124.834 c 4,122,123
 1065.7 125.685 1065.7 125.685 1072.5 128.234 c 5,124,125
 1059.75 169.034 1059.75 169.034 1032.97 203.034 c 132,-1,126
 1006.2 237.034 1006.2 237.034 970.497 258.284 c 4,127,128
 948.397 271.884 948.397 271.884 915.247 284.634 c 5,114,115
EndSplineSet
EndChar

StartChar: question
Encoding: 31 63 34
Width: 499
GlyphClass: 2
Flags: W
LayerCount: 2
Fore
SplineSet
248 568 m 0,0,1
 131 568 131 568 114 476 c 1,2,-1
 30 476 l 1,3,4
 37 550 37 550 91 595 c 128,-1,5
 145 640 145 640 242.5 640 c 128,-1,6
 340 640 340 640 396.5 592 c 128,-1,7
 453 544 453 544 453 475 c 0,8,9
 453 423 453 423 427 388.5 c 128,-1,10
 401 354 401 354 343 322 c 0,11,12
 318 308 318 308 301 297 c 128,-1,13
 284 286 284 286 274 272 c 0,14,15
 255 247 255 247 255 200 c 2,16,-1
 255 161 l 1,17,-1
 177 161 l 1,18,-1
 177 206 l 2,19,20
 177 269 177 269 198 302.5 c 128,-1,21
 219 336 219 336 274 366 c 128,-1,22
 329 396 329 396 348 418.5 c 128,-1,23
 367 441 367 441 367 479 c 128,-1,24
 367 517 367 517 335.5 542.5 c 128,-1,25
 304 568 304 568 248 568 c 0,0,1
217 102 m 256,26,27
 243 102 243 102 260 85 c 128,-1,28
 277 68 277 68 277 44.5 c 128,-1,29
 277 21 277 21 260 5 c 128,-1,30
 243 -11 243 -11 217 -11 c 256,31,32
 191 -11 191 -11 175 5 c 128,-1,33
 159 21 159 21 159 44.5 c 128,-1,34
 159 68 159 68 175 85 c 128,-1,35
 191 102 191 102 217 102 c 256,26,27
187.275 224.8 m 5,36,37
 178.775 280.05 178.775 280.05 190.676 332.75 c 4,38,39
 193.226 345.5 193.226 345.5 197.476 358.25 c 5,40,41
 194.926 371 194.926 371 194.075 384.601 c 4,42,43
 191.525 420.3 191.525 420.3 198.325 455.15 c 4,44,45
 212.775 525.7 212.775 525.7 260.375 580.95 c 4,46,47
 307.125 634.5 307.125 634.5 375.125 660.851 c 4,48,49
 421.875 678.7 421.875 678.7 472.875 681.25 c 5,50,51
 405.726 703.351 405.726 703.351 338.575 691.45 c 4,52,53
 272.275 680.4 272.275 680.4 216.176 637.051 c 132,-1,54
 160.075 593.7 160.075 593.7 132.45 532.075 c 132,-1,55
 104.825 470.45 104.825 470.45 109.5 399.9 c 132,-1,56
 114.176 329.351 114.176 329.351 149.875 271.55 c 4,57,58
 166.025 246.05 166.025 246.05 187.275 224.8 c 5,36,37
637.775 602.2 m 5,59,60
 685.375 536.75 685.375 536.75 693.875 458.55 c 4,61,62
 694.726 445.8 694.726 445.8 694.726 433.05 c 5,63,64
 695.575 426.25 695.575 426.25 694.726 417.75 c 5,65,66
 698.976 411.8 698.976 411.8 703.226 405.851 c 4,67,68
 706.625 401.601 706.625 401.601 709.176 396.5 c 4,69,70
 755.926 323.4 755.926 323.4 761.875 234.15 c 5,71,72
 766.125 247.75 766.125 247.75 768.676 260.5 c 4,73,74
 789.075 342.95 789.075 342.95 767.825 422.851 c 4,75,76
 745.726 504.45 745.726 504.45 687.075 562.25 c 4,77,78
 664.976 585.2 664.976 585.2 637.775 602.2 c 5,59,60
687.926 365.9 m 5,79,80
 676.025 313.2 676.025 313.2 646.275 270.7 c 4,81,82
 618.226 229.9 618.226 229.9 575.726 201.425 c 132,-1,83
 533.226 172.95 533.226 172.95 484.775 163.601 c 4,84,85
 435.476 153.4 435.476 153.4 385.325 164.025 c 132,-1,86
 335.176 174.65 335.176 174.65 295.226 203.55 c 4,87,88
 245.926 238.4 245.926 238.4 218.726 293.65 c 5,89,90
 214.476 247.75 214.476 247.75 226.375 203.55 c 4,91,92
 228.926 195.9 228.926 195.9 231.476 188.25 c 5,93,94
 239.125 183.15 239.125 183.15 247.625 178.05 c 4,95,96
 307.976 143.2 307.976 143.2 375.976 140.65 c 4,97,98
 382.775 140.65 382.775 140.65 387.45 135.125 c 132,-1,99
 392.125 129.601 392.125 129.601 392.125 122.8 c 132,-1,100
 392.125 116 392.125 116 386.601 111.325 c 132,-1,101
 381.075 106.65 381.075 106.65 374.275 106.65 c 4,102,103
 314.775 109.2 314.775 109.2 257.825 134.7 c 5,104,105
 260.375 129.601 260.375 129.601 263.775 125.351 c 4,106,107
 312.226 58.2002 312.226 58.2002 393.825 31.8506 c 4,108,109
 472.875 6.35059 472.875 6.35059 555.325 30.1504 c 4,110,111
 635.226 53.1006 635.226 53.1006 693.025 116 c 4,112,113
 708.325 133 708.325 133 721.926 153.4 c 5,114,115
 722.775 156.8 722.775 156.8 723.625 160.2 c 4,116,117
 726.176 174.65 726.176 174.65 727.025 189.95 c 4,118,119
 734.676 284.3 734.676 284.3 687.926 365.9 c 5,79,80
688.775 65 m 5,120,121
 632.676 17.4004 632.676 17.4004 564.676 -3 c 4,122,123
 472.875 -29.3496 472.875 -29.3496 383.625 -0.450195 c 4,124,125
 291.825 29.2998 291.825 29.2998 236.575 105.8 c 4,126,127
 222.976 124.5 222.976 124.5 212.775 145.75 c 4,128,129
 207.676 155.95 207.676 155.95 203.426 166.15 c 5,130,131
 194.926 172.101 194.926 172.101 187.275 178.9 c 4,132,133
 147.325 211.2 147.325 211.2 120.976 253.7 c 4,134,135
 81.0254 318.3 81.0254 318.3 75.9258 397.351 c 132,-1,136
 70.8252 476.4 70.8252 476.4 101.851 546.101 c 132,-1,137
 132.875 615.801 132.875 615.801 195.351 663.825 c 132,-1,138
 257.825 711.851 257.825 711.851 333.476 725.45 c 4,139,140
 436.325 743.301 436.325 743.301 531.525 693.15 c 4,141,142
 551.075 682.95 551.075 682.95 569.775 669.351 c 5,143,144
 591.025 663.4 591.025 663.4 611.426 654.9 c 4,145,146
 667.525 630.25 667.525 630.25 710.875 586.9 c 4,147,148
 776.325 521.45 776.325 521.45 800.125 431.351 c 4,149,150
 823.926 342.95 823.926 342.95 801.825 252.851 c 4,151,152
 792.476 213.75 792.476 213.75 775.476 178.05 c 4,153,154
 766.125 158.5 766.125 158.5 754.226 139.8 c 5,155,156
 749.125 117.7 749.125 117.7 740.625 95.6006 c 4,157,158
 705.775 2.9502 705.775 2.9502 627.575 -55.7002 c 4,159,160
 576.575 -93.9502 576.575 -93.9502 514.525 -111.375 c 132,-1,161
 452.476 -128.8 452.476 -128.8 389.575 -122.425 c 132,-1,162
 326.676 -116.05 326.676 -116.05 269.301 -86.7246 c 132,-1,163
 211.926 -57.3994 211.926 -57.3994 169.426 -9.7998 c 4,164,165
 165.176 -4.7002 165.176 -4.7002 165.601 2.52539 c 132,-1,166
 166.025 9.75 166.025 9.75 171.125 14.4248 c 132,-1,167
 176.226 19.1006 176.226 19.1006 183.45 18.6748 c 132,-1,168
 190.676 18.25 190.676 18.25 194.926 12.2998 c 4,169,170
 233.176 -30.2002 233.176 -30.2002 285.025 -56.5498 c 132,-1,171
 336.875 -82.8994 336.875 -82.8994 392.976 -88.4248 c 132,-1,172
 449.075 -93.9502 449.075 -93.9502 505.176 -78.2246 c 132,-1,173
 561.275 -62.5 561.275 -62.5 607.176 -28.5 c 4,174,175
 657.325 8.90039 657.325 8.90039 688.775 65 c 5,120,121
228.075 419.45 m 5,176,177
 247.625 449.2 247.625 449.2 272.275 472.15 c 4,178,179
 323.275 518.9 323.275 518.9 390.426 535.051 c 4,180,181
 482.226 557.15 482.226 557.15 572.325 517.2 c 5,182,183
 619.926 495.101 619.926 495.101 659.875 457.7 c 5,184,185
 648.825 545.25 648.825 545.25 586.775 609.851 c 4,186,187
 572.325 625.15 572.325 625.15 554.476 638.75 c 5,188,189
 551.075 639.601 551.075 639.601 546.825 640.45 c 4,190,191
 532.375 643.851 532.375 643.851 517.926 645.551 c 4,192,193
 449.926 653.2 449.926 653.2 387.875 629.4 c 4,194,195
 327.525 606.45 327.525 606.45 285.875 558.851 c 4,196,197
 244.226 510.4 244.226 510.4 231.476 449.2 c 4,198,199
 228.926 434.75 228.926 434.75 228.075 419.45 c 5,176,177
233.176 355.7 m 5,200,201
 236.575 340.4 236.575 340.4 241.676 327.65 c 4,202,203
 263.775 267.3 263.775 267.3 314.775 230.75 c 4,204,205
 349.625 206.101 349.625 206.101 392.976 197.175 c 132,-1,206
 436.325 188.25 436.325 188.25 477.976 196.75 c 4,207,208
 520.476 205.25 520.476 205.25 557.025 229.9 c 132,-1,209
 593.575 254.55 593.575 254.55 618.226 290.25 c 4,210,211
 651.375 337 651.375 337 659.025 396.5 c 4,212,213
 659.875 401.601 659.875 401.601 659.875 406.7 c 5,214,215
 656.476 411.8 656.476 411.8 653.075 415.2 c 4,216,217
 612.275 461.95 612.275 461.95 557.875 485.75 c 4,218,219
 478.825 521.45 478.825 521.45 398.075 501.9 c 4,220,221
 340.275 487.45 340.275 487.45 295.226 446.65 c 4,222,223
 261.226 416.05 261.226 416.05 241.676 374.4 c 4,224,225
 236.575 365.05 236.575 365.05 233.176 355.7 c 5,200,201
EndSplineSet
EndChar

StartChar: at
Encoding: 32 64 35
Width: 940
GlyphClass: 2
Flags: W
LayerCount: 2
Fore
SplineSet
575 289 m 2,0,1
 575 373 575 373 516 373 c 256,2,3
 457 373 457 373 410 324.5 c 128,-1,4
 363 276 363 276 363 202 c 0,5,6
 363 149 363 149 390.5 120 c 128,-1,7
 418 91 418 91 459 91 c 128,-1,8
 500 91 500 91 526 114.5 c 128,-1,9
 552 138 552 138 575 183 c 1,10,-1
 575 289 l 2,0,1
641 138 m 2,11,12
 641 87 641 87 680 87 c 0,13,14
 700 87 700 87 723.5 100.5 c 128,-1,15
 747 114 747 114 766 140 c 0,16,17
 812 201 812 201 812 296 c 0,18,19
 812 415 812 415 731 492 c 128,-1,20
 650 569 650 569 511 569 c 0,21,22
 429 569 429 569 362 541 c 128,-1,23
 295 513 295 513 248 466 c 0,24,25
 148 366 148 366 148 217 c 128,-1,26
 148 68 148 68 254 -24.5 c 128,-1,27
 360 -117 360 -117 545 -117 c 1,28,-1
 545 -181 l 1,29,30
 332 -181 332 -181 198 -66 c 0,31,32
 135 -12 135 -12 101 62.5 c 128,-1,33
 67 137 67 137 67 226 c 128,-1,34
 67 315 67 315 100 391 c 128,-1,35
 133 467 133 467 192 522.5 c 128,-1,36
 251 578 251 578 332.5 609 c 128,-1,37
 414 640 414 640 505 640 c 128,-1,38
 596 640 596 640 667 613 c 128,-1,39
 738 586 738 586 788 539.5 c 128,-1,40
 838 493 838 493 866 430 c 128,-1,41
 894 367 894 367 894 300 c 0,42,43
 894 178 894 178 829.5 103 c 128,-1,44
 765 28 765 28 679 28 c 0,45,46
 636 28 636 28 610 46 c 128,-1,47
 584 64 584 64 579 98 c 1,48,-1
 576 114 l 1,49,50
 558 76 558 76 528 52 c 128,-1,51
 498 28 498 28 458 28 c 0,52,53
 384 28 384 28 336.5 77 c 128,-1,54
 289 126 289 126 289 201 c 0,55,56
 289 300 289 300 355 367.5 c 128,-1,57
 421 435 421 435 512 435 c 0,58,59
 572 435 572 435 606.5 399 c 128,-1,60
 641 363 641 363 641 290 c 2,61,-1
 641 138 l 2,11,12
187.275 224.8 m 5,62,63
 178.775 280.05 178.775 280.05 190.676 332.75 c 4,64,65
 193.226 345.5 193.226 345.5 197.476 358.25 c 5,66,67
 194.926 371 194.926 371 194.075 384.601 c 4,68,69
 191.525 420.3 191.525 420.3 198.325 455.15 c 4,70,71
 212.775 525.7 212.775 525.7 260.375 580.95 c 4,72,73
 307.125 634.5 307.125 634.5 375.125 660.851 c 4,74,75
 421.875 678.7 421.875 678.7 472.875 681.25 c 5,76,77
 405.726 703.351 405.726 703.351 338.575 691.45 c 4,78,79
 272.275 680.4 272.275 680.4 216.176 637.051 c 132,-1,80
 160.075 593.7 160.075 593.7 132.45 532.075 c 132,-1,81
 104.825 470.45 104.825 470.45 109.5 399.9 c 132,-1,82
 114.176 329.351 114.176 329.351 149.875 271.55 c 4,83,84
 166.025 246.05 166.025 246.05 187.275 224.8 c 5,62,63
637.775 602.2 m 5,85,86
 685.375 536.75 685.375 536.75 693.875 458.55 c 4,87,88
 694.726 445.8 694.726 445.8 694.726 433.05 c 5,89,90
 695.575 426.25 695.575 426.25 694.726 417.75 c 5,91,92
 698.976 411.8 698.976 411.8 703.226 405.851 c 4,93,94
 706.625 401.601 706.625 401.601 709.176 396.5 c 4,95,96
 755.926 323.4 755.926 323.4 761.875 234.15 c 5,97,98
 766.125 247.75 766.125 247.75 768.676 260.5 c 4,99,100
 789.075 342.95 789.075 342.95 767.825 422.851 c 4,101,102
 745.726 504.45 745.726 504.45 687.075 562.25 c 4,103,104
 664.976 585.2 664.976 585.2 637.775 602.2 c 5,85,86
687.926 365.9 m 5,105,106
 676.025 313.2 676.025 313.2 646.275 270.7 c 4,107,108
 618.226 229.9 618.226 229.9 575.726 201.425 c 132,-1,109
 533.226 172.95 533.226 172.95 484.775 163.601 c 4,110,111
 435.476 153.4 435.476 153.4 385.325 164.025 c 132,-1,112
 335.176 174.65 335.176 174.65 295.226 203.55 c 4,113,114
 245.926 238.4 245.926 238.4 218.726 293.65 c 5,115,116
 214.476 247.75 214.476 247.75 226.375 203.55 c 4,117,118
 228.926 195.9 228.926 195.9 231.476 188.25 c 5,119,120
 239.125 183.15 239.125 183.15 247.625 178.05 c 4,121,122
 307.976 143.2 307.976 143.2 375.976 140.65 c 4,123,124
 382.775 140.65 382.775 140.65 387.45 135.125 c 132,-1,125
 392.125 129.601 392.125 129.601 392.125 122.8 c 132,-1,126
 392.125 116 392.125 116 386.601 111.325 c 132,-1,127
 381.075 106.65 381.075 106.65 374.275 106.65 c 4,128,129
 314.775 109.2 314.775 109.2 257.825 134.7 c 5,130,131
 260.375 129.601 260.375 129.601 263.775 125.351 c 4,132,133
 312.226 58.2002 312.226 58.2002 393.825 31.8506 c 4,134,135
 472.875 6.35059 472.875 6.35059 555.325 30.1504 c 4,136,137
 635.226 53.1006 635.226 53.1006 693.025 116 c 4,138,139
 708.325 133 708.325 133 721.926 153.4 c 5,140,141
 722.775 156.8 722.775 156.8 723.625 160.2 c 4,142,143
 726.176 174.65 726.176 174.65 727.025 189.95 c 4,144,145
 734.676 284.3 734.676 284.3 687.926 365.9 c 5,105,106
688.775 65 m 5,146,147
 632.676 17.4004 632.676 17.4004 564.676 -3 c 4,148,149
 472.875 -29.3496 472.875 -29.3496 383.625 -0.450195 c 4,150,151
 291.825 29.2998 291.825 29.2998 236.575 105.8 c 4,152,153
 222.976 124.5 222.976 124.5 212.775 145.75 c 4,154,155
 207.676 155.95 207.676 155.95 203.426 166.15 c 5,156,157
 194.926 172.101 194.926 172.101 187.275 178.9 c 4,158,159
 147.325 211.2 147.325 211.2 120.976 253.7 c 4,160,161
 81.0254 318.3 81.0254 318.3 75.9258 397.351 c 132,-1,162
 70.8252 476.4 70.8252 476.4 101.851 546.101 c 132,-1,163
 132.875 615.801 132.875 615.801 195.351 663.825 c 132,-1,164
 257.825 711.851 257.825 711.851 333.476 725.45 c 4,165,166
 436.325 743.301 436.325 743.301 531.525 693.15 c 4,167,168
 551.075 682.95 551.075 682.95 569.775 669.351 c 5,169,170
 591.025 663.4 591.025 663.4 611.426 654.9 c 4,171,172
 667.525 630.25 667.525 630.25 710.875 586.9 c 4,173,174
 776.325 521.45 776.325 521.45 800.125 431.351 c 4,175,176
 823.926 342.95 823.926 342.95 801.825 252.851 c 4,177,178
 792.476 213.75 792.476 213.75 775.476 178.05 c 4,179,180
 766.125 158.5 766.125 158.5 754.226 139.8 c 5,181,182
 749.125 117.7 749.125 117.7 740.625 95.6006 c 4,183,184
 705.775 2.9502 705.775 2.9502 627.575 -55.7002 c 4,185,186
 576.575 -93.9502 576.575 -93.9502 514.525 -111.375 c 132,-1,187
 452.476 -128.8 452.476 -128.8 389.575 -122.425 c 132,-1,188
 326.676 -116.05 326.676 -116.05 269.301 -86.7246 c 132,-1,189
 211.926 -57.3994 211.926 -57.3994 169.426 -9.7998 c 4,190,191
 165.176 -4.7002 165.176 -4.7002 165.601 2.52539 c 132,-1,192
 166.025 9.75 166.025 9.75 171.125 14.4248 c 132,-1,193
 176.226 19.1006 176.226 19.1006 183.45 18.6748 c 132,-1,194
 190.676 18.25 190.676 18.25 194.926 12.2998 c 4,195,196
 233.176 -30.2002 233.176 -30.2002 285.025 -56.5498 c 132,-1,197
 336.875 -82.8994 336.875 -82.8994 392.976 -88.4248 c 132,-1,198
 449.075 -93.9502 449.075 -93.9502 505.176 -78.2246 c 132,-1,199
 561.275 -62.5 561.275 -62.5 607.176 -28.5 c 4,200,201
 657.325 8.90039 657.325 8.90039 688.775 65 c 5,146,147
228.075 419.45 m 5,202,203
 247.625 449.2 247.625 449.2 272.275 472.15 c 4,204,205
 323.275 518.9 323.275 518.9 390.426 535.051 c 4,206,207
 482.226 557.15 482.226 557.15 572.325 517.2 c 5,208,209
 619.926 495.101 619.926 495.101 659.875 457.7 c 5,210,211
 648.825 545.25 648.825 545.25 586.775 609.851 c 4,212,213
 572.325 625.15 572.325 625.15 554.476 638.75 c 5,214,215
 551.075 639.601 551.075 639.601 546.825 640.45 c 4,216,217
 532.375 643.851 532.375 643.851 517.926 645.551 c 4,218,219
 449.926 653.2 449.926 653.2 387.875 629.4 c 4,220,221
 327.525 606.45 327.525 606.45 285.875 558.851 c 4,222,223
 244.226 510.4 244.226 510.4 231.476 449.2 c 4,224,225
 228.926 434.75 228.926 434.75 228.075 419.45 c 5,202,203
233.176 355.7 m 5,226,227
 236.575 340.4 236.575 340.4 241.676 327.65 c 4,228,229
 263.775 267.3 263.775 267.3 314.775 230.75 c 4,230,231
 349.625 206.101 349.625 206.101 392.976 197.175 c 132,-1,232
 436.325 188.25 436.325 188.25 477.976 196.75 c 4,233,234
 520.476 205.25 520.476 205.25 557.025 229.9 c 132,-1,235
 593.575 254.55 593.575 254.55 618.226 290.25 c 4,236,237
 651.375 337 651.375 337 659.025 396.5 c 4,238,239
 659.875 401.601 659.875 401.601 659.875 406.7 c 5,240,241
 656.476 411.8 656.476 411.8 653.075 415.2 c 4,242,243
 612.275 461.95 612.275 461.95 557.875 485.75 c 4,244,245
 478.825 521.45 478.825 521.45 398.075 501.9 c 4,246,247
 340.275 487.45 340.275 487.45 295.226 446.65 c 4,248,249
 261.226 416.05 261.226 416.05 241.676 374.4 c 4,250,251
 236.575 365.05 236.575 365.05 233.176 355.7 c 5,226,227
EndSplineSet
EndChar

StartChar: A
Encoding: 33 65 36
Width: 575
GlyphClass: 2
Flags: W
LayerCount: 2
Fore
SplineSet
242 629 m 1,0,-1
 338 629 l 1,1,-1
 549 0 l 1,2,-1
 467 0 l 1,3,-1
 413 160 l 1,4,-1
 163 160 l 1,5,-1
 109 0 l 1,6,-1
 26 0 l 1,7,-1
 242 629 l 1,0,-1
184 222 m 1,8,-1
 393 222 l 1,9,-1
 289 532 l 1,10,-1
 184 222 l 1,8,-1
187.275 224.8 m 5,11,12
 178.775 280.05 178.775 280.05 190.676 332.75 c 4,13,14
 193.226 345.5 193.226 345.5 197.476 358.25 c 5,15,16
 194.926 371 194.926 371 194.075 384.601 c 4,17,18
 191.525 420.3 191.525 420.3 198.325 455.15 c 4,19,20
 212.775 525.7 212.775 525.7 260.375 580.95 c 4,21,22
 307.125 634.5 307.125 634.5 375.125 660.851 c 4,23,24
 421.875 678.7 421.875 678.7 472.875 681.25 c 5,25,26
 405.726 703.351 405.726 703.351 338.575 691.45 c 4,27,28
 272.275 680.4 272.275 680.4 216.176 637.051 c 132,-1,29
 160.075 593.7 160.075 593.7 132.45 532.075 c 132,-1,30
 104.825 470.45 104.825 470.45 109.5 399.9 c 132,-1,31
 114.176 329.351 114.176 329.351 149.875 271.55 c 4,32,33
 166.025 246.05 166.025 246.05 187.275 224.8 c 5,11,12
637.775 602.2 m 5,34,35
 685.375 536.75 685.375 536.75 693.875 458.55 c 4,36,37
 694.726 445.8 694.726 445.8 694.726 433.05 c 5,38,39
 695.575 426.25 695.575 426.25 694.726 417.75 c 5,40,41
 698.976 411.8 698.976 411.8 703.226 405.851 c 4,42,43
 706.625 401.601 706.625 401.601 709.176 396.5 c 4,44,45
 755.926 323.4 755.926 323.4 761.875 234.15 c 5,46,47
 766.125 247.75 766.125 247.75 768.676 260.5 c 4,48,49
 789.075 342.95 789.075 342.95 767.825 422.851 c 4,50,51
 745.726 504.45 745.726 504.45 687.075 562.25 c 4,52,53
 664.976 585.2 664.976 585.2 637.775 602.2 c 5,34,35
687.926 365.9 m 5,54,55
 676.025 313.2 676.025 313.2 646.275 270.7 c 4,56,57
 618.226 229.9 618.226 229.9 575.726 201.425 c 132,-1,58
 533.226 172.95 533.226 172.95 484.775 163.601 c 4,59,60
 435.476 153.4 435.476 153.4 385.325 164.025 c 132,-1,61
 335.176 174.65 335.176 174.65 295.226 203.55 c 4,62,63
 245.926 238.4 245.926 238.4 218.726 293.65 c 5,64,65
 214.476 247.75 214.476 247.75 226.375 203.55 c 4,66,67
 228.926 195.9 228.926 195.9 231.476 188.25 c 5,68,69
 239.125 183.15 239.125 183.15 247.625 178.05 c 4,70,71
 307.976 143.2 307.976 143.2 375.976 140.65 c 4,72,73
 382.775 140.65 382.775 140.65 387.45 135.125 c 132,-1,74
 392.125 129.601 392.125 129.601 392.125 122.8 c 132,-1,75
 392.125 116 392.125 116 386.601 111.325 c 132,-1,76
 381.075 106.65 381.075 106.65 374.275 106.65 c 4,77,78
 314.775 109.2 314.775 109.2 257.825 134.7 c 5,79,80
 260.375 129.601 260.375 129.601 263.775 125.351 c 4,81,82
 312.226 58.2002 312.226 58.2002 393.825 31.8506 c 4,83,84
 472.875 6.35059 472.875 6.35059 555.325 30.1504 c 4,85,86
 635.226 53.1006 635.226 53.1006 693.025 116 c 4,87,88
 708.325 133 708.325 133 721.926 153.4 c 5,89,90
 722.775 156.8 722.775 156.8 723.625 160.2 c 4,91,92
 726.176 174.65 726.176 174.65 727.025 189.95 c 4,93,94
 734.676 284.3 734.676 284.3 687.926 365.9 c 5,54,55
688.775 65 m 5,95,96
 632.676 17.4004 632.676 17.4004 564.676 -3 c 4,97,98
 472.875 -29.3496 472.875 -29.3496 383.625 -0.450195 c 4,99,100
 291.825 29.2998 291.825 29.2998 236.575 105.8 c 4,101,102
 222.976 124.5 222.976 124.5 212.775 145.75 c 4,103,104
 207.676 155.95 207.676 155.95 203.426 166.15 c 5,105,106
 194.926 172.101 194.926 172.101 187.275 178.9 c 4,107,108
 147.325 211.2 147.325 211.2 120.976 253.7 c 4,109,110
 81.0254 318.3 81.0254 318.3 75.9258 397.351 c 132,-1,111
 70.8252 476.4 70.8252 476.4 101.851 546.101 c 132,-1,112
 132.875 615.801 132.875 615.801 195.351 663.825 c 132,-1,113
 257.825 711.851 257.825 711.851 333.476 725.45 c 4,114,115
 436.325 743.301 436.325 743.301 531.525 693.15 c 4,116,117
 551.075 682.95 551.075 682.95 569.775 669.351 c 5,118,119
 591.025 663.4 591.025 663.4 611.426 654.9 c 4,120,121
 667.525 630.25 667.525 630.25 710.875 586.9 c 4,122,123
 776.325 521.45 776.325 521.45 800.125 431.351 c 4,124,125
 823.926 342.95 823.926 342.95 801.825 252.851 c 4,126,127
 792.476 213.75 792.476 213.75 775.476 178.05 c 4,128,129
 766.125 158.5 766.125 158.5 754.226 139.8 c 5,130,131
 749.125 117.7 749.125 117.7 740.625 95.6006 c 4,132,133
 705.775 2.9502 705.775 2.9502 627.575 -55.7002 c 4,134,135
 576.575 -93.9502 576.575 -93.9502 514.525 -111.375 c 132,-1,136
 452.476 -128.8 452.476 -128.8 389.575 -122.425 c 132,-1,137
 326.676 -116.05 326.676 -116.05 269.301 -86.7246 c 132,-1,138
 211.926 -57.3994 211.926 -57.3994 169.426 -9.7998 c 4,139,140
 165.176 -4.7002 165.176 -4.7002 165.601 2.52539 c 132,-1,141
 166.025 9.75 166.025 9.75 171.125 14.4248 c 132,-1,142
 176.226 19.1006 176.226 19.1006 183.45 18.6748 c 132,-1,143
 190.676 18.25 190.676 18.25 194.926 12.2998 c 4,144,145
 233.176 -30.2002 233.176 -30.2002 285.025 -56.5498 c 132,-1,146
 336.875 -82.8994 336.875 -82.8994 392.976 -88.4248 c 132,-1,147
 449.075 -93.9502 449.075 -93.9502 505.176 -78.2246 c 132,-1,148
 561.275 -62.5 561.275 -62.5 607.176 -28.5 c 4,149,150
 657.325 8.90039 657.325 8.90039 688.775 65 c 5,95,96
228.075 419.45 m 5,151,152
 247.625 449.2 247.625 449.2 272.275 472.15 c 4,153,154
 323.275 518.9 323.275 518.9 390.426 535.051 c 4,155,156
 482.226 557.15 482.226 557.15 572.325 517.2 c 5,157,158
 619.926 495.101 619.926 495.101 659.875 457.7 c 5,159,160
 648.825 545.25 648.825 545.25 586.775 609.851 c 4,161,162
 572.325 625.15 572.325 625.15 554.476 638.75 c 5,163,164
 551.075 639.601 551.075 639.601 546.825 640.45 c 4,165,166
 532.375 643.851 532.375 643.851 517.926 645.551 c 4,167,168
 449.926 653.2 449.926 653.2 387.875 629.4 c 4,169,170
 327.525 606.45 327.525 606.45 285.875 558.851 c 4,171,172
 244.226 510.4 244.226 510.4 231.476 449.2 c 4,173,174
 228.926 434.75 228.926 434.75 228.075 419.45 c 5,151,152
233.176 355.7 m 5,175,176
 236.575 340.4 236.575 340.4 241.676 327.65 c 4,177,178
 263.775 267.3 263.775 267.3 314.775 230.75 c 4,179,180
 349.625 206.101 349.625 206.101 392.976 197.175 c 132,-1,181
 436.325 188.25 436.325 188.25 477.976 196.75 c 4,182,183
 520.476 205.25 520.476 205.25 557.025 229.9 c 132,-1,184
 593.575 254.55 593.575 254.55 618.226 290.25 c 4,185,186
 651.375 337 651.375 337 659.025 396.5 c 4,187,188
 659.875 401.601 659.875 401.601 659.875 406.7 c 5,189,190
 656.476 411.8 656.476 411.8 653.075 415.2 c 4,191,192
 612.275 461.95 612.275 461.95 557.875 485.75 c 4,193,194
 478.825 521.45 478.825 521.45 398.075 501.9 c 4,195,196
 340.275 487.45 340.275 487.45 295.226 446.65 c 4,197,198
 261.226 416.05 261.226 416.05 241.676 374.4 c 4,199,200
 236.575 365.05 236.575 365.05 233.176 355.7 c 5,175,176
EndSplineSet
EndChar

StartChar: B
Encoding: 34 66 37
Width: 622
GlyphClass: 2
Flags: W
LayerCount: 2
Fore
SplineSet
101 629 m 1,0,-1
 336 629 l 2,1,2
 435 629 435 629 488.5 582 c 128,-1,3
 542 535 542 535 542 464 c 0,4,5
 542 410 542 410 512.5 370 c 128,-1,6
 483 330 483 330 423 316 c 1,7,8
 482 306 482 306 517.5 265 c 128,-1,9
 553 224 553 224 553 172 c 0,10,11
 553 56 553 56 440 15 c 0,12,13
 398 0 398 0 337 0 c 2,14,-1
 101 0 l 1,15,-1
 101 629 l 1,0,-1
335 69 m 2,16,17
 407 69 407 69 438 98 c 128,-1,18
 469 127 469 127 469 175 c 256,19,20
 469 223 469 223 435 251.5 c 128,-1,21
 401 280 401 280 335 280 c 2,22,-1
 180 280 l 1,23,-1
 180 69 l 1,24,-1
 335 69 l 2,16,17
180 348 m 1,25,-1
 334 348 l 2,26,27
 392 348 392 348 426.5 376.5 c 128,-1,28
 461 405 461 405 461 455 c 128,-1,29
 461 505 461 505 427.5 533 c 128,-1,30
 394 561 394 561 334 561 c 2,31,-1
 180 561 l 1,32,-1
 180 348 l 1,25,-1
1081 95.084 m 5,33,34
 1072.5 92.5342 1072.5 92.5342 1064.85 90.834 c 4,35,36
 1030 84.8838 1030 84.8838 995.147 98.4844 c 4,37,38
 963.697 111.234 963.697 111.234 939.047 138.435 c 4,39,40
 899.098 181.784 899.098 181.784 885.497 256.584 c 4,41,42
 882.098 275.284 882.098 275.284 879.547 298.234 c 5,43,44
 865.947 303.334 865.947 303.334 856.598 306.734 c 4,45,46
 796.247 329.684 796.247 329.684 763.098 358.584 c 5,47,48
 758.848 352.634 758.848 352.634 755.447 348.384 c 4,49,50
 708.697 282.934 708.697 282.934 716.348 202.185 c 4,51,52
 717.197 195.384 717.197 195.384 712.947 189.859 c 132,-1,53
 708.697 184.334 708.697 184.334 701.473 183.909 c 132,-1,54
 694.247 183.484 694.247 183.484 688.723 187.734 c 132,-1,55
 683.197 191.984 683.197 191.984 683.197 198.784 c 4,56,57
 672.997 291.434 672.997 291.434 727.397 367.934 c 4,58,59
 733.348 375.584 733.348 375.584 739.297 382.384 c 5,60,61
 718.047 408.734 718.047 408.734 710.397 438.484 c 4,62,63
 701.047 476.734 701.047 476.734 714.647 510.734 c 4,64,65
 730.797 548.984 730.797 548.984 767.348 563.435 c 4,66,67
 786.897 571.084 786.897 571.084 806.447 569.384 c 4,68,69
 826.848 567.685 826.848 567.685 843.848 555.784 c 4,70,71
 865.947 540.484 865.947 540.484 880.397 507.334 c 4,72,73
 888.897 489.484 888.897 489.484 893.997 469.084 c 5,74,75
 974.747 480.134 974.747 480.134 1045.3 441.884 c 4,76,77
 1085.25 420.634 1085.25 420.634 1115 386.209 c 132,-1,78
 1144.75 351.784 1144.75 351.784 1160.05 310.134 c 4,79,80
 1186.4 240.435 1186.4 240.435 1164.3 179.234 c 4,81,82
 1151.55 145.234 1151.55 145.234 1126.9 122.284 c 4,83,84
 1120.1 116.334 1120.1 116.334 1112.45 111.234 c 5,85,86
 1122.65 60.2344 1122.65 60.2344 1112.87 7.95898 c 132,-1,87
 1103.1 -44.3154 1103.1 -44.3154 1075.9 -87.666 c 4,88,89
 1072.5 -93.6162 1072.5 -93.6162 1065.27 -94.8906 c 132,-1,90
 1058.05 -96.166 1058.05 -96.166 1052.52 -92.7656 c 132,-1,91
 1047 -89.3662 1047 -89.3662 1045.3 -82.1406 c 132,-1,92
 1043.6 -74.916 1043.6 -74.916 1047 -68.9658 c 4,93,94
 1094.6 5.83398 1094.6 5.83398 1081 95.084 c 5,33,34
911.848 322.884 m 5,95,96
 960.297 304.184 960.297 304.184 987.497 288.034 c 4,97,98
 1069.95 237.884 1069.95 237.884 1102.25 146.084 c 5,99,100
 1103.1 146.935 1103.1 146.935 1103.95 146.935 c 4,101,102
 1122.65 164.784 1122.65 164.784 1132 191.134 c 4,103,104
 1149.85 239.584 1149.85 239.584 1128.6 298.234 c 4,105,106
 1115 333.934 1115 333.934 1089.07 363.684 c 132,-1,107
 1063.15 393.434 1063.15 393.434 1029.15 412.134 c 4,108,109
 969.647 443.584 969.647 443.584 901.647 435.084 c 5,110,111
 905.047 412.134 905.047 412.134 907.598 382.384 c 4,112,113
 908.447 372.184 908.447 372.184 909.723 351.784 c 132,-1,114
 910.997 331.384 910.997 331.384 911.848 322.884 c 5,95,96
786.897 382.384 m 5,115,116
 815.797 359.434 815.797 359.434 869.348 338.184 c 4,117,118
 872.747 337.334 872.747 337.334 876.997 335.634 c 5,119,120
 874.447 374.734 874.447 374.734 873.598 379.834 c 4,121,122
 871.897 407.884 871.897 407.884 868.497 428.284 c 5,123,124
 822.598 414.684 822.598 414.684 786.897 382.384 c 5,115,116
763.098 407.034 m 5,125,126
 805.598 446.134 805.598 446.134 860.848 461.434 c 5,127,128
 856.598 479.284 856.598 479.284 849.797 493.734 c 4,129,130
 838.747 518.384 838.747 518.384 824.297 527.734 c 4,131,132
 814.947 534.534 814.947 534.534 803.047 535.384 c 132,-1,133
 791.147 536.234 791.147 536.234 780.098 531.984 c 4,134,135
 756.297 522.634 756.297 522.634 746.098 497.984 c 4,136,137
 736.747 474.184 736.747 474.184 743.547 446.984 c 4,138,139
 748.647 426.584 748.647 426.584 763.098 407.034 c 5,125,126
915.247 284.634 m 5,140,141
 916.947 272.734 916.947 272.734 918.647 262.534 c 4,142,143
 931.397 197.935 931.397 197.935 964.547 161.384 c 4,144,145
 984.098 140.134 984.098 140.134 1007.9 129.935 c 4,146,147
 1033.4 119.734 1033.4 119.734 1058.9 124.834 c 4,148,149
 1065.7 125.685 1065.7 125.685 1072.5 128.234 c 5,150,151
 1059.75 169.034 1059.75 169.034 1032.97 203.034 c 132,-1,152
 1006.2 237.034 1006.2 237.034 970.497 258.284 c 4,153,154
 948.397 271.884 948.397 271.884 915.247 284.634 c 5,140,141
EndSplineSet
EndChar

StartChar: C
Encoding: 35 67 38
Width: 613
GlyphClass: 2
Flags: W
LayerCount: 2
Fore
SplineSet
319 640 m 0,0,1
 420 640 420 640 481.5 589.5 c 128,-1,2
 543 539 543 539 566 458 c 1,3,-1
 481 441 l 1,4,5
 461 500 461 500 418.5 534.5 c 128,-1,6
 376 569 376 569 319 569 c 0,7,8
 240 569 240 569 188 503 c 128,-1,9
 136 437 136 437 136 319.5 c 128,-1,10
 136 202 136 202 182.5 131 c 128,-1,11
 229 60 229 60 319 60 c 0,12,13
 394 60 394 60 437.5 99.5 c 128,-1,14
 481 139 481 139 481 204 c 1,15,-1
 566 204 l 1,16,17
 566 105 566 105 498.5 47 c 128,-1,18
 431 -11 431 -11 313.5 -11 c 128,-1,19
 196 -11 196 -11 123.5 79 c 128,-1,20
 51 169 51 169 51 320 c 128,-1,21
 51 471 51 471 126 555.5 c 128,-1,22
 201 640 201 640 319 640 c 0,0,1
1081 95.084 m 5,23,24
 1072.5 92.5342 1072.5 92.5342 1064.85 90.834 c 4,25,26
 1030 84.8838 1030 84.8838 995.147 98.4844 c 4,27,28
 963.697 111.234 963.697 111.234 939.047 138.435 c 4,29,30
 899.098 181.784 899.098 181.784 885.497 256.584 c 4,31,32
 882.098 275.284 882.098 275.284 879.547 298.234 c 5,33,34
 865.947 303.334 865.947 303.334 856.598 306.734 c 4,35,36
 796.247 329.684 796.247 329.684 763.098 358.584 c 5,37,38
 758.848 352.634 758.848 352.634 755.447 348.384 c 4,39,40
 708.697 282.934 708.697 282.934 716.348 202.185 c 4,41,42
 717.197 195.384 717.197 195.384 712.947 189.859 c 132,-1,43
 708.697 184.334 708.697 184.334 701.473 183.909 c 132,-1,44
 694.247 183.484 694.247 183.484 688.723 187.734 c 132,-1,45
 683.197 191.984 683.197 191.984 683.197 198.784 c 4,46,47
 672.997 291.434 672.997 291.434 727.397 367.934 c 4,48,49
 733.348 375.584 733.348 375.584 739.297 382.384 c 5,50,51
 718.047 408.734 718.047 408.734 710.397 438.484 c 4,52,53
 701.047 476.734 701.047 476.734 714.647 510.734 c 4,54,55
 730.797 548.984 730.797 548.984 767.348 563.435 c 4,56,57
 786.897 571.084 786.897 571.084 806.447 569.384 c 4,58,59
 826.848 567.685 826.848 567.685 843.848 555.784 c 4,60,61
 865.947 540.484 865.947 540.484 880.397 507.334 c 4,62,63
 888.897 489.484 888.897 489.484 893.997 469.084 c 5,64,65
 974.747 480.134 974.747 480.134 1045.3 441.884 c 4,66,67
 1085.25 420.634 1085.25 420.634 1115 386.209 c 132,-1,68
 1144.75 351.784 1144.75 351.784 1160.05 310.134 c 4,69,70
 1186.4 240.435 1186.4 240.435 1164.3 179.234 c 4,71,72
 1151.55 145.234 1151.55 145.234 1126.9 122.284 c 4,73,74
 1120.1 116.334 1120.1 116.334 1112.45 111.234 c 5,75,76
 1122.65 60.2344 1122.65 60.2344 1112.87 7.95898 c 132,-1,77
 1103.1 -44.3154 1103.1 -44.3154 1075.9 -87.666 c 4,78,79
 1072.5 -93.6162 1072.5 -93.6162 1065.27 -94.8906 c 132,-1,80
 1058.05 -96.166 1058.05 -96.166 1052.52 -92.7656 c 132,-1,81
 1047 -89.3662 1047 -89.3662 1045.3 -82.1406 c 132,-1,82
 1043.6 -74.916 1043.6 -74.916 1047 -68.9658 c 4,83,84
 1094.6 5.83398 1094.6 5.83398 1081 95.084 c 5,23,24
911.848 322.884 m 5,85,86
 960.297 304.184 960.297 304.184 987.497 288.034 c 4,87,88
 1069.95 237.884 1069.95 237.884 1102.25 146.084 c 5,89,90
 1103.1 146.935 1103.1 146.935 1103.95 146.935 c 4,91,92
 1122.65 164.784 1122.65 164.784 1132 191.134 c 4,93,94
 1149.85 239.584 1149.85 239.584 1128.6 298.234 c 4,95,96
 1115 333.934 1115 333.934 1089.07 363.684 c 132,-1,97
 1063.15 393.434 1063.15 393.434 1029.15 412.134 c 4,98,99
 969.647 443.584 969.647 443.584 901.647 435.084 c 5,100,101
 905.047 412.134 905.047 412.134 907.598 382.384 c 4,102,103
 908.447 372.184 908.447 372.184 909.723 351.784 c 132,-1,104
 910.997 331.384 910.997 331.384 911.848 322.884 c 5,85,86
786.897 382.384 m 5,105,106
 815.797 359.434 815.797 359.434 869.348 338.184 c 4,107,108
 872.747 337.334 872.747 337.334 876.997 335.634 c 5,109,110
 874.447 374.734 874.447 374.734 873.598 379.834 c 4,111,112
 871.897 407.884 871.897 407.884 868.497 428.284 c 5,113,114
 822.598 414.684 822.598 414.684 786.897 382.384 c 5,105,106
763.098 407.034 m 5,115,116
 805.598 446.134 805.598 446.134 860.848 461.434 c 5,117,118
 856.598 479.284 856.598 479.284 849.797 493.734 c 4,119,120
 838.747 518.384 838.747 518.384 824.297 527.734 c 4,121,122
 814.947 534.534 814.947 534.534 803.047 535.384 c 132,-1,123
 791.147 536.234 791.147 536.234 780.098 531.984 c 4,124,125
 756.297 522.634 756.297 522.634 746.098 497.984 c 4,126,127
 736.747 474.184 736.747 474.184 743.547 446.984 c 4,128,129
 748.647 426.584 748.647 426.584 763.098 407.034 c 5,115,116
915.247 284.634 m 5,130,131
 916.947 272.734 916.947 272.734 918.647 262.534 c 4,132,133
 931.397 197.935 931.397 197.935 964.547 161.384 c 4,134,135
 984.098 140.134 984.098 140.134 1007.9 129.935 c 4,136,137
 1033.4 119.734 1033.4 119.734 1058.9 124.834 c 4,138,139
 1065.7 125.685 1065.7 125.685 1072.5 128.234 c 5,140,141
 1059.75 169.034 1059.75 169.034 1032.97 203.034 c 132,-1,142
 1006.2 237.034 1006.2 237.034 970.497 258.284 c 4,143,144
 948.397 271.884 948.397 271.884 915.247 284.634 c 5,130,131
EndSplineSet
EndChar

StartChar: D
Encoding: 36 68 39
Width: 661
GlyphClass: 2
Flags: W
LayerCount: 2
Fore
SplineSet
285 629 m 2,0,1
 427 629 427 629 512.5 543.5 c 128,-1,2
 598 458 598 458 598 314.5 c 128,-1,3
 598 171 598 171 512.5 85.5 c 128,-1,4
 427 0 427 0 285 0 c 2,5,-1
 100 0 l 1,6,-1
 100 629 l 1,7,-1
 285 629 l 2,0,1
179 69 m 1,8,-1
 285 69 l 2,9,10
 390 69 390 69 452 138.5 c 128,-1,11
 514 208 514 208 514 315 c 256,12,13
 514 422 514 422 451.5 490.5 c 128,-1,14
 389 559 389 559 285 559 c 2,15,-1
 179 559 l 1,16,-1
 179 69 l 1,8,-1
187.275 224.8 m 5,17,18
 178.775 280.05 178.775 280.05 190.676 332.75 c 4,19,20
 193.226 345.5 193.226 345.5 197.476 358.25 c 5,21,22
 194.926 371 194.926 371 194.075 384.601 c 4,23,24
 191.525 420.3 191.525 420.3 198.325 455.15 c 4,25,26
 212.775 525.7 212.775 525.7 260.375 580.95 c 4,27,28
 307.125 634.5 307.125 634.5 375.125 660.851 c 4,29,30
 421.875 678.7 421.875 678.7 472.875 681.25 c 5,31,32
 405.726 703.351 405.726 703.351 338.575 691.45 c 4,33,34
 272.275 680.4 272.275 680.4 216.176 637.051 c 132,-1,35
 160.075 593.7 160.075 593.7 132.45 532.075 c 132,-1,36
 104.825 470.45 104.825 470.45 109.5 399.9 c 132,-1,37
 114.176 329.351 114.176 329.351 149.875 271.55 c 4,38,39
 166.025 246.05 166.025 246.05 187.275 224.8 c 5,17,18
637.775 602.2 m 5,40,41
 685.375 536.75 685.375 536.75 693.875 458.55 c 4,42,43
 694.726 445.8 694.726 445.8 694.726 433.05 c 5,44,45
 695.575 426.25 695.575 426.25 694.726 417.75 c 5,46,47
 698.976 411.8 698.976 411.8 703.226 405.851 c 4,48,49
 706.625 401.601 706.625 401.601 709.176 396.5 c 4,50,51
 755.926 323.4 755.926 323.4 761.875 234.15 c 5,52,53
 766.125 247.75 766.125 247.75 768.676 260.5 c 4,54,55
 789.075 342.95 789.075 342.95 767.825 422.851 c 4,56,57
 745.726 504.45 745.726 504.45 687.075 562.25 c 4,58,59
 664.976 585.2 664.976 585.2 637.775 602.2 c 5,40,41
687.926 365.9 m 5,60,61
 676.025 313.2 676.025 313.2 646.275 270.7 c 4,62,63
 618.226 229.9 618.226 229.9 575.726 201.425 c 132,-1,64
 533.226 172.95 533.226 172.95 484.775 163.601 c 4,65,66
 435.476 153.4 435.476 153.4 385.325 164.025 c 132,-1,67
 335.176 174.65 335.176 174.65 295.226 203.55 c 4,68,69
 245.926 238.4 245.926 238.4 218.726 293.65 c 5,70,71
 214.476 247.75 214.476 247.75 226.375 203.55 c 4,72,73
 228.926 195.9 228.926 195.9 231.476 188.25 c 5,74,75
 239.125 183.15 239.125 183.15 247.625 178.05 c 4,76,77
 307.976 143.2 307.976 143.2 375.976 140.65 c 4,78,79
 382.775 140.65 382.775 140.65 387.45 135.125 c 132,-1,80
 392.125 129.601 392.125 129.601 392.125 122.8 c 132,-1,81
 392.125 116 392.125 116 386.601 111.325 c 132,-1,82
 381.075 106.65 381.075 106.65 374.275 106.65 c 4,83,84
 314.775 109.2 314.775 109.2 257.825 134.7 c 5,85,86
 260.375 129.601 260.375 129.601 263.775 125.351 c 4,87,88
 312.226 58.2002 312.226 58.2002 393.825 31.8506 c 4,89,90
 472.875 6.35059 472.875 6.35059 555.325 30.1504 c 4,91,92
 635.226 53.1006 635.226 53.1006 693.025 116 c 4,93,94
 708.325 133 708.325 133 721.926 153.4 c 5,95,96
 722.775 156.8 722.775 156.8 723.625 160.2 c 4,97,98
 726.176 174.65 726.176 174.65 727.025 189.95 c 4,99,100
 734.676 284.3 734.676 284.3 687.926 365.9 c 5,60,61
688.775 65 m 5,101,102
 632.676 17.4004 632.676 17.4004 564.676 -3 c 4,103,104
 472.875 -29.3496 472.875 -29.3496 383.625 -0.450195 c 4,105,106
 291.825 29.2998 291.825 29.2998 236.575 105.8 c 4,107,108
 222.976 124.5 222.976 124.5 212.775 145.75 c 4,109,110
 207.676 155.95 207.676 155.95 203.426 166.15 c 5,111,112
 194.926 172.101 194.926 172.101 187.275 178.9 c 4,113,114
 147.325 211.2 147.325 211.2 120.976 253.7 c 4,115,116
 81.0254 318.3 81.0254 318.3 75.9258 397.351 c 132,-1,117
 70.8252 476.4 70.8252 476.4 101.851 546.101 c 132,-1,118
 132.875 615.801 132.875 615.801 195.351 663.825 c 132,-1,119
 257.825 711.851 257.825 711.851 333.476 725.45 c 4,120,121
 436.325 743.301 436.325 743.301 531.525 693.15 c 4,122,123
 551.075 682.95 551.075 682.95 569.775 669.351 c 5,124,125
 591.025 663.4 591.025 663.4 611.426 654.9 c 4,126,127
 667.525 630.25 667.525 630.25 710.875 586.9 c 4,128,129
 776.325 521.45 776.325 521.45 800.125 431.351 c 4,130,131
 823.926 342.95 823.926 342.95 801.825 252.851 c 4,132,133
 792.476 213.75 792.476 213.75 775.476 178.05 c 4,134,135
 766.125 158.5 766.125 158.5 754.226 139.8 c 5,136,137
 749.125 117.7 749.125 117.7 740.625 95.6006 c 4,138,139
 705.775 2.9502 705.775 2.9502 627.575 -55.7002 c 4,140,141
 576.575 -93.9502 576.575 -93.9502 514.525 -111.375 c 132,-1,142
 452.476 -128.8 452.476 -128.8 389.575 -122.425 c 132,-1,143
 326.676 -116.05 326.676 -116.05 269.301 -86.7246 c 132,-1,144
 211.926 -57.3994 211.926 -57.3994 169.426 -9.7998 c 4,145,146
 165.176 -4.7002 165.176 -4.7002 165.601 2.52539 c 132,-1,147
 166.025 9.75 166.025 9.75 171.125 14.4248 c 132,-1,148
 176.226 19.1006 176.226 19.1006 183.45 18.6748 c 132,-1,149
 190.676 18.25 190.676 18.25 194.926 12.2998 c 4,150,151
 233.176 -30.2002 233.176 -30.2002 285.025 -56.5498 c 132,-1,152
 336.875 -82.8994 336.875 -82.8994 392.976 -88.4248 c 132,-1,153
 449.075 -93.9502 449.075 -93.9502 505.176 -78.2246 c 132,-1,154
 561.275 -62.5 561.275 -62.5 607.176 -28.5 c 4,155,156
 657.325 8.90039 657.325 8.90039 688.775 65 c 5,101,102
228.075 419.45 m 5,157,158
 247.625 449.2 247.625 449.2 272.275 472.15 c 4,159,160
 323.275 518.9 323.275 518.9 390.426 535.051 c 4,161,162
 482.226 557.15 482.226 557.15 572.325 517.2 c 5,163,164
 619.926 495.101 619.926 495.101 659.875 457.7 c 5,165,166
 648.825 545.25 648.825 545.25 586.775 609.851 c 4,167,168
 572.325 625.15 572.325 625.15 554.476 638.75 c 5,169,170
 551.075 639.601 551.075 639.601 546.825 640.45 c 4,171,172
 532.375 643.851 532.375 643.851 517.926 645.551 c 4,173,174
 449.926 653.2 449.926 653.2 387.875 629.4 c 4,175,176
 327.525 606.45 327.525 606.45 285.875 558.851 c 4,177,178
 244.226 510.4 244.226 510.4 231.476 449.2 c 4,179,180
 228.926 434.75 228.926 434.75 228.075 419.45 c 5,157,158
233.176 355.7 m 5,181,182
 236.575 340.4 236.575 340.4 241.676 327.65 c 4,183,184
 263.775 267.3 263.775 267.3 314.775 230.75 c 4,185,186
 349.625 206.101 349.625 206.101 392.976 197.175 c 132,-1,187
 436.325 188.25 436.325 188.25 477.976 196.75 c 4,188,189
 520.476 205.25 520.476 205.25 557.025 229.9 c 132,-1,190
 593.575 254.55 593.575 254.55 618.226 290.25 c 4,191,192
 651.375 337 651.375 337 659.025 396.5 c 4,193,194
 659.875 401.601 659.875 401.601 659.875 406.7 c 5,195,196
 656.476 411.8 656.476 411.8 653.075 415.2 c 4,197,198
 612.275 461.95 612.275 461.95 557.875 485.75 c 4,199,200
 478.825 521.45 478.825 521.45 398.075 501.9 c 4,201,202
 340.275 487.45 340.275 487.45 295.226 446.65 c 4,203,204
 261.226 416.05 261.226 416.05 241.676 374.4 c 4,205,206
 236.575 365.05 236.575 365.05 233.176 355.7 c 5,181,182
EndSplineSet
EndChar

StartChar: E
Encoding: 37 69 40
Width: 562
GlyphClass: 2
Flags: W
LayerCount: 2
Fore
SplineSet
100 629 m 1,0,-1
 487 629 l 1,1,-1
 487 561 l 1,2,-1
 179 561 l 1,3,-1
 179 350 l 1,4,-1
 469 350 l 1,5,-1
 469 283 l 1,6,-1
 179 283 l 1,7,-1
 179 69 l 1,8,-1
 487 69 l 1,9,-1
 487 0 l 1,10,-1
 100 0 l 1,11,-1
 100 629 l 1,0,-1
1081 95.084 m 5,12,13
 1072.5 92.5342 1072.5 92.5342 1064.85 90.834 c 4,14,15
 1030 84.8838 1030 84.8838 995.147 98.4844 c 4,16,17
 963.697 111.234 963.697 111.234 939.047 138.435 c 4,18,19
 899.098 181.784 899.098 181.784 885.497 256.584 c 4,20,21
 882.098 275.284 882.098 275.284 879.547 298.234 c 5,22,23
 865.947 303.334 865.947 303.334 856.598 306.734 c 4,24,25
 796.247 329.684 796.247 329.684 763.098 358.584 c 5,26,27
 758.848 352.634 758.848 352.634 755.447 348.384 c 4,28,29
 708.697 282.934 708.697 282.934 716.348 202.185 c 4,30,31
 717.197 195.384 717.197 195.384 712.947 189.859 c 132,-1,32
 708.697 184.334 708.697 184.334 701.473 183.909 c 132,-1,33
 694.247 183.484 694.247 183.484 688.723 187.734 c 132,-1,34
 683.197 191.984 683.197 191.984 683.197 198.784 c 4,35,36
 672.997 291.434 672.997 291.434 727.397 367.934 c 4,37,38
 733.348 375.584 733.348 375.584 739.297 382.384 c 5,39,40
 718.047 408.734 718.047 408.734 710.397 438.484 c 4,41,42
 701.047 476.734 701.047 476.734 714.647 510.734 c 4,43,44
 730.797 548.984 730.797 548.984 767.348 563.435 c 4,45,46
 786.897 571.084 786.897 571.084 806.447 569.384 c 4,47,48
 826.848 567.685 826.848 567.685 843.848 555.784 c 4,49,50
 865.947 540.484 865.947 540.484 880.397 507.334 c 4,51,52
 888.897 489.484 888.897 489.484 893.997 469.084 c 5,53,54
 974.747 480.134 974.747 480.134 1045.3 441.884 c 4,55,56
 1085.25 420.634 1085.25 420.634 1115 386.209 c 132,-1,57
 1144.75 351.784 1144.75 351.784 1160.05 310.134 c 4,58,59
 1186.4 240.435 1186.4 240.435 1164.3 179.234 c 4,60,61
 1151.55 145.234 1151.55 145.234 1126.9 122.284 c 4,62,63
 1120.1 116.334 1120.1 116.334 1112.45 111.234 c 5,64,65
 1122.65 60.2344 1122.65 60.2344 1112.87 7.95898 c 132,-1,66
 1103.1 -44.3154 1103.1 -44.3154 1075.9 -87.666 c 4,67,68
 1072.5 -93.6162 1072.5 -93.6162 1065.27 -94.8906 c 132,-1,69
 1058.05 -96.166 1058.05 -96.166 1052.52 -92.7656 c 132,-1,70
 1047 -89.3662 1047 -89.3662 1045.3 -82.1406 c 132,-1,71
 1043.6 -74.916 1043.6 -74.916 1047 -68.9658 c 4,72,73
 1094.6 5.83398 1094.6 5.83398 1081 95.084 c 5,12,13
911.848 322.884 m 5,74,75
 960.297 304.184 960.297 304.184 987.497 288.034 c 4,76,77
 1069.95 237.884 1069.95 237.884 1102.25 146.084 c 5,78,79
 1103.1 146.935 1103.1 146.935 1103.95 146.935 c 4,80,81
 1122.65 164.784 1122.65 164.784 1132 191.134 c 4,82,83
 1149.85 239.584 1149.85 239.584 1128.6 298.234 c 4,84,85
 1115 333.934 1115 333.934 1089.07 363.684 c 132,-1,86
 1063.15 393.434 1063.15 393.434 1029.15 412.134 c 4,87,88
 969.647 443.584 969.647 443.584 901.647 435.084 c 5,89,90
 905.047 412.134 905.047 412.134 907.598 382.384 c 4,91,92
 908.447 372.184 908.447 372.184 909.723 351.784 c 132,-1,93
 910.997 331.384 910.997 331.384 911.848 322.884 c 5,74,75
786.897 382.384 m 5,94,95
 815.797 359.434 815.797 359.434 869.348 338.184 c 4,96,97
 872.747 337.334 872.747 337.334 876.997 335.634 c 5,98,99
 874.447 374.734 874.447 374.734 873.598 379.834 c 4,100,101
 871.897 407.884 871.897 407.884 868.497 428.284 c 5,102,103
 822.598 414.684 822.598 414.684 786.897 382.384 c 5,94,95
763.098 407.034 m 5,104,105
 805.598 446.134 805.598 446.134 860.848 461.434 c 5,106,107
 856.598 479.284 856.598 479.284 849.797 493.734 c 4,108,109
 838.747 518.384 838.747 518.384 824.297 527.734 c 4,110,111
 814.947 534.534 814.947 534.534 803.047 535.384 c 132,-1,112
 791.147 536.234 791.147 536.234 780.098 531.984 c 4,113,114
 756.297 522.634 756.297 522.634 746.098 497.984 c 4,115,116
 736.747 474.184 736.747 474.184 743.547 446.984 c 4,117,118
 748.647 426.584 748.647 426.584 763.098 407.034 c 5,104,105
915.247 284.634 m 5,119,120
 916.947 272.734 916.947 272.734 918.647 262.534 c 4,121,122
 931.397 197.935 931.397 197.935 964.547 161.384 c 4,123,124
 984.098 140.134 984.098 140.134 1007.9 129.935 c 4,125,126
 1033.4 119.734 1033.4 119.734 1058.9 124.834 c 4,127,128
 1065.7 125.685 1065.7 125.685 1072.5 128.234 c 5,129,130
 1059.75 169.034 1059.75 169.034 1032.97 203.034 c 132,-1,131
 1006.2 237.034 1006.2 237.034 970.497 258.284 c 4,132,133
 948.397 271.884 948.397 271.884 915.247 284.634 c 5,119,120
EndSplineSet
EndChar

StartChar: F
Encoding: 38 70 41
Width: 524
GlyphClass: 2
Flags: W
LayerCount: 2
Fore
SplineSet
101 629 m 1,0,-1
 483 629 l 1,1,-1
 483 561 l 1,2,-1
 180 561 l 1,3,-1
 180 352 l 1,4,-1
 462 352 l 1,5,-1
 462 284 l 1,6,-1
 180 284 l 1,7,-1
 180 0 l 1,8,-1
 101 0 l 1,9,-1
 101 629 l 1,0,-1
EndSplineSet
EndChar

StartChar: G
Encoding: 39 71 42
Width: 645
GlyphClass: 2
Flags: W
LayerCount: 2
Fore
SplineSet
490 108 m 1,0,1
 448 -11 448 -11 327 -11 c 128,-1,2
 206 -11 206 -11 128.5 77 c 128,-1,3
 51 165 51 165 51 314 c 128,-1,4
 51 463 51 463 135.5 551 c 128,-1,5
 220 639 220 639 346 639 c 0,6,7
 420 639 420 639 475.5 609 c 128,-1,8
 531 579 531 579 571 513 c 1,9,-1
 495 487 l 1,10,11
 430 568 430 568 343 568 c 128,-1,12
 256 568 256 568 195.5 497 c 128,-1,13
 135 426 135 426 135 312.5 c 128,-1,14
 135 199 135 199 187 130 c 128,-1,15
 239 61 239 61 327 61 c 0,16,17
 399 61 399 61 443 109 c 128,-1,18
 487 157 487 157 487 251 c 2,19,-1
 487 253 l 1,20,-1
 329 259 l 1,21,-1
 329 311 l 1,22,-1
 564 311 l 1,23,-1
 564 0 l 1,24,-1
 500 0 l 1,25,-1
 490 108 l 1,0,1
EndSplineSet
EndChar

StartChar: H
Encoding: 40 72 43
Width: 669
GlyphClass: 2
Flags: W
LayerCount: 2
Fore
SplineSet
180 629 m 1,0,-1
 180 352 l 1,1,-1
 489 352 l 1,2,-1
 489 629 l 1,3,-1
 568 629 l 1,4,-1
 568 0 l 1,5,-1
 489 0 l 1,6,-1
 489 284 l 1,7,-1
 180 284 l 1,8,-1
 180 0 l 1,9,-1
 101 0 l 1,10,-1
 101 629 l 1,11,-1
 180 629 l 1,0,-1
1081 95.084 m 5,12,13
 1072.5 92.5342 1072.5 92.5342 1064.85 90.834 c 4,14,15
 1030 84.8838 1030 84.8838 995.147 98.4844 c 4,16,17
 963.697 111.234 963.697 111.234 939.047 138.435 c 4,18,19
 899.098 181.784 899.098 181.784 885.497 256.584 c 4,20,21
 882.098 275.284 882.098 275.284 879.547 298.234 c 5,22,23
 865.947 303.334 865.947 303.334 856.598 306.734 c 4,24,25
 796.247 329.684 796.247 329.684 763.098 358.584 c 5,26,27
 758.848 352.634 758.848 352.634 755.447 348.384 c 4,28,29
 708.697 282.934 708.697 282.934 716.348 202.185 c 4,30,31
 717.197 195.384 717.197 195.384 712.947 189.859 c 132,-1,32
 708.697 184.334 708.697 184.334 701.473 183.909 c 132,-1,33
 694.247 183.484 694.247 183.484 688.723 187.734 c 132,-1,34
 683.197 191.984 683.197 191.984 683.197 198.784 c 4,35,36
 672.997 291.434 672.997 291.434 727.397 367.934 c 4,37,38
 733.348 375.584 733.348 375.584 739.297 382.384 c 5,39,40
 718.047 408.734 718.047 408.734 710.397 438.484 c 4,41,42
 701.047 476.734 701.047 476.734 714.647 510.734 c 4,43,44
 730.797 548.984 730.797 548.984 767.348 563.435 c 4,45,46
 786.897 571.084 786.897 571.084 806.447 569.384 c 4,47,48
 826.848 567.685 826.848 567.685 843.848 555.784 c 4,49,50
 865.947 540.484 865.947 540.484 880.397 507.334 c 4,51,52
 888.897 489.484 888.897 489.484 893.997 469.084 c 5,53,54
 974.747 480.134 974.747 480.134 1045.3 441.884 c 4,55,56
 1085.25 420.634 1085.25 420.634 1115 386.209 c 132,-1,57
 1144.75 351.784 1144.75 351.784 1160.05 310.134 c 4,58,59
 1186.4 240.435 1186.4 240.435 1164.3 179.234 c 4,60,61
 1151.55 145.234 1151.55 145.234 1126.9 122.284 c 4,62,63
 1120.1 116.334 1120.1 116.334 1112.45 111.234 c 5,64,65
 1122.65 60.2344 1122.65 60.2344 1112.87 7.95898 c 132,-1,66
 1103.1 -44.3154 1103.1 -44.3154 1075.9 -87.666 c 4,67,68
 1072.5 -93.6162 1072.5 -93.6162 1065.27 -94.8906 c 132,-1,69
 1058.05 -96.166 1058.05 -96.166 1052.52 -92.7656 c 132,-1,70
 1047 -89.3662 1047 -89.3662 1045.3 -82.1406 c 132,-1,71
 1043.6 -74.916 1043.6 -74.916 1047 -68.9658 c 4,72,73
 1094.6 5.83398 1094.6 5.83398 1081 95.084 c 5,12,13
911.848 322.884 m 5,74,75
 960.297 304.184 960.297 304.184 987.497 288.034 c 4,76,77
 1069.95 237.884 1069.95 237.884 1102.25 146.084 c 5,78,79
 1103.1 146.935 1103.1 146.935 1103.95 146.935 c 4,80,81
 1122.65 164.784 1122.65 164.784 1132 191.134 c 4,82,83
 1149.85 239.584 1149.85 239.584 1128.6 298.234 c 4,84,85
 1115 333.934 1115 333.934 1089.07 363.684 c 132,-1,86
 1063.15 393.434 1063.15 393.434 1029.15 412.134 c 4,87,88
 969.647 443.584 969.647 443.584 901.647 435.084 c 5,89,90
 905.047 412.134 905.047 412.134 907.598 382.384 c 4,91,92
 908.447 372.184 908.447 372.184 909.723 351.784 c 132,-1,93
 910.997 331.384 910.997 331.384 911.848 322.884 c 5,74,75
786.897 382.384 m 5,94,95
 815.797 359.434 815.797 359.434 869.348 338.184 c 4,96,97
 872.747 337.334 872.747 337.334 876.997 335.634 c 5,98,99
 874.447 374.734 874.447 374.734 873.598 379.834 c 4,100,101
 871.897 407.884 871.897 407.884 868.497 428.284 c 5,102,103
 822.598 414.684 822.598 414.684 786.897 382.384 c 5,94,95
763.098 407.034 m 5,104,105
 805.598 446.134 805.598 446.134 860.848 461.434 c 5,106,107
 856.598 479.284 856.598 479.284 849.797 493.734 c 4,108,109
 838.747 518.384 838.747 518.384 824.297 527.734 c 4,110,111
 814.947 534.534 814.947 534.534 803.047 535.384 c 132,-1,112
 791.147 536.234 791.147 536.234 780.098 531.984 c 4,113,114
 756.297 522.634 756.297 522.634 746.098 497.984 c 4,115,116
 736.747 474.184 736.747 474.184 743.547 446.984 c 4,117,118
 748.647 426.584 748.647 426.584 763.098 407.034 c 5,104,105
915.247 284.634 m 5,119,120
 916.947 272.734 916.947 272.734 918.647 262.534 c 4,121,122
 931.397 197.935 931.397 197.935 964.547 161.384 c 4,123,124
 984.098 140.134 984.098 140.134 1007.9 129.935 c 4,125,126
 1033.4 119.734 1033.4 119.734 1058.9 124.834 c 4,127,128
 1065.7 125.685 1065.7 125.685 1072.5 128.234 c 5,129,130
 1059.75 169.034 1059.75 169.034 1032.97 203.034 c 132,-1,131
 1006.2 237.034 1006.2 237.034 970.497 258.284 c 4,132,133
 948.397 271.884 948.397 271.884 915.247 284.634 c 5,119,120
EndSplineSet
EndChar

StartChar: I
Encoding: 41 73 44
Width: 280
GlyphClass: 2
Flags: W
LayerCount: 2
Fore
SplineSet
101 629 m 1,0,-1
 180 629 l 1,1,-1
 180 0 l 1,2,-1
 101 0 l 1,3,-1
 101 629 l 1,0,-1
1081 95.084 m 5,4,5
 1072.5 92.5342 1072.5 92.5342 1064.85 90.834 c 4,6,7
 1030 84.8838 1030 84.8838 995.147 98.4844 c 4,8,9
 963.697 111.234 963.697 111.234 939.047 138.435 c 4,10,11
 899.098 181.784 899.098 181.784 885.497 256.584 c 4,12,13
 882.098 275.284 882.098 275.284 879.547 298.234 c 5,14,15
 865.947 303.334 865.947 303.334 856.598 306.734 c 4,16,17
 796.247 329.684 796.247 329.684 763.098 358.584 c 5,18,19
 758.848 352.634 758.848 352.634 755.447 348.384 c 4,20,21
 708.697 282.934 708.697 282.934 716.348 202.185 c 4,22,23
 717.197 195.384 717.197 195.384 712.947 189.859 c 132,-1,24
 708.697 184.334 708.697 184.334 701.473 183.909 c 132,-1,25
 694.247 183.484 694.247 183.484 688.723 187.734 c 132,-1,26
 683.197 191.984 683.197 191.984 683.197 198.784 c 4,27,28
 672.997 291.434 672.997 291.434 727.397 367.934 c 4,29,30
 733.348 375.584 733.348 375.584 739.297 382.384 c 5,31,32
 718.047 408.734 718.047 408.734 710.397 438.484 c 4,33,34
 701.047 476.734 701.047 476.734 714.647 510.734 c 4,35,36
 730.797 548.984 730.797 548.984 767.348 563.435 c 4,37,38
 786.897 571.084 786.897 571.084 806.447 569.384 c 4,39,40
 826.848 567.685 826.848 567.685 843.848 555.784 c 4,41,42
 865.947 540.484 865.947 540.484 880.397 507.334 c 4,43,44
 888.897 489.484 888.897 489.484 893.997 469.084 c 5,45,46
 974.747 480.134 974.747 480.134 1045.3 441.884 c 4,47,48
 1085.25 420.634 1085.25 420.634 1115 386.209 c 132,-1,49
 1144.75 351.784 1144.75 351.784 1160.05 310.134 c 4,50,51
 1186.4 240.435 1186.4 240.435 1164.3 179.234 c 4,52,53
 1151.55 145.234 1151.55 145.234 1126.9 122.284 c 4,54,55
 1120.1 116.334 1120.1 116.334 1112.45 111.234 c 5,56,57
 1122.65 60.2344 1122.65 60.2344 1112.87 7.95898 c 132,-1,58
 1103.1 -44.3154 1103.1 -44.3154 1075.9 -87.666 c 4,59,60
 1072.5 -93.6162 1072.5 -93.6162 1065.27 -94.8906 c 132,-1,61
 1058.05 -96.166 1058.05 -96.166 1052.52 -92.7656 c 132,-1,62
 1047 -89.3662 1047 -89.3662 1045.3 -82.1406 c 132,-1,63
 1043.6 -74.916 1043.6 -74.916 1047 -68.9658 c 4,64,65
 1094.6 5.83398 1094.6 5.83398 1081 95.084 c 5,4,5
911.848 322.884 m 5,66,67
 960.297 304.184 960.297 304.184 987.497 288.034 c 4,68,69
 1069.95 237.884 1069.95 237.884 1102.25 146.084 c 5,70,71
 1103.1 146.935 1103.1 146.935 1103.95 146.935 c 4,72,73
 1122.65 164.784 1122.65 164.784 1132 191.134 c 4,74,75
 1149.85 239.584 1149.85 239.584 1128.6 298.234 c 4,76,77
 1115 333.934 1115 333.934 1089.07 363.684 c 132,-1,78
 1063.15 393.434 1063.15 393.434 1029.15 412.134 c 4,79,80
 969.647 443.584 969.647 443.584 901.647 435.084 c 5,81,82
 905.047 412.134 905.047 412.134 907.598 382.384 c 4,83,84
 908.447 372.184 908.447 372.184 909.723 351.784 c 132,-1,85
 910.997 331.384 910.997 331.384 911.848 322.884 c 5,66,67
786.897 382.384 m 5,86,87
 815.797 359.434 815.797 359.434 869.348 338.184 c 4,88,89
 872.747 337.334 872.747 337.334 876.997 335.634 c 5,90,91
 874.447 374.734 874.447 374.734 873.598 379.834 c 4,92,93
 871.897 407.884 871.897 407.884 868.497 428.284 c 5,94,95
 822.598 414.684 822.598 414.684 786.897 382.384 c 5,86,87
763.098 407.034 m 5,96,97
 805.598 446.134 805.598 446.134 860.848 461.434 c 5,98,99
 856.598 479.284 856.598 479.284 849.797 493.734 c 4,100,101
 838.747 518.384 838.747 518.384 824.297 527.734 c 4,102,103
 814.947 534.534 814.947 534.534 803.047 535.384 c 132,-1,104
 791.147 536.234 791.147 536.234 780.098 531.984 c 4,105,106
 756.297 522.634 756.297 522.634 746.098 497.984 c 4,107,108
 736.747 474.184 736.747 474.184 743.547 446.984 c 4,109,110
 748.647 426.584 748.647 426.584 763.098 407.034 c 5,96,97
915.247 284.634 m 5,111,112
 916.947 272.734 916.947 272.734 918.647 262.534 c 4,113,114
 931.397 197.935 931.397 197.935 964.547 161.384 c 4,115,116
 984.098 140.134 984.098 140.134 1007.9 129.935 c 4,117,118
 1033.4 119.734 1033.4 119.734 1058.9 124.834 c 4,119,120
 1065.7 125.685 1065.7 125.685 1072.5 128.234 c 5,121,122
 1059.75 169.034 1059.75 169.034 1032.97 203.034 c 132,-1,123
 1006.2 237.034 1006.2 237.034 970.497 258.284 c 4,124,125
 948.397 271.884 948.397 271.884 915.247 284.634 c 5,111,112
EndSplineSet
EndChar

StartChar: J
Encoding: 42 74 45
Width: 404
GlyphClass: 2
Flags: W
LayerCount: 2
Fore
SplineSet
277.5 34 m 128,-1,1
 231 -11 231 -11 159 -11 c 128,-1,2
 87 -11 87 -11 8 31 c 1,3,-1
 8 113 l 1,4,5
 78 65 78 65 139.5 65 c 128,-1,6
 201 65 201 65 223 95 c 128,-1,7
 245 125 245 125 245 182 c 2,8,-1
 245 629 l 1,9,-1
 324 629 l 1,10,-1
 324 182 l 2,11,0
 324 79 324 79 277.5 34 c 128,-1,1
187.275 224.8 m 5,12,13
 178.775 280.05 178.775 280.05 190.676 332.75 c 4,14,15
 193.226 345.5 193.226 345.5 197.476 358.25 c 5,16,17
 194.926 371 194.926 371 194.075 384.601 c 4,18,19
 191.525 420.3 191.525 420.3 198.325 455.15 c 4,20,21
 212.775 525.7 212.775 525.7 260.375 580.95 c 4,22,23
 307.125 634.5 307.125 634.5 375.125 660.851 c 4,24,25
 421.875 678.7 421.875 678.7 472.875 681.25 c 5,26,27
 405.726 703.351 405.726 703.351 338.575 691.45 c 4,28,29
 272.275 680.4 272.275 680.4 216.176 637.051 c 132,-1,30
 160.075 593.7 160.075 593.7 132.45 532.075 c 132,-1,31
 104.825 470.45 104.825 470.45 109.5 399.9 c 132,-1,32
 114.176 329.351 114.176 329.351 149.875 271.55 c 4,33,34
 166.025 246.05 166.025 246.05 187.275 224.8 c 5,12,13
637.775 602.2 m 5,35,36
 685.375 536.75 685.375 536.75 693.875 458.55 c 4,37,38
 694.726 445.8 694.726 445.8 694.726 433.05 c 5,39,40
 695.575 426.25 695.575 426.25 694.726 417.75 c 5,41,42
 698.976 411.8 698.976 411.8 703.226 405.851 c 4,43,44
 706.625 401.601 706.625 401.601 709.176 396.5 c 4,45,46
 755.926 323.4 755.926 323.4 761.875 234.15 c 5,47,48
 766.125 247.75 766.125 247.75 768.676 260.5 c 4,49,50
 789.075 342.95 789.075 342.95 767.825 422.851 c 4,51,52
 745.726 504.45 745.726 504.45 687.075 562.25 c 4,53,54
 664.976 585.2 664.976 585.2 637.775 602.2 c 5,35,36
687.926 365.9 m 5,55,56
 676.025 313.2 676.025 313.2 646.275 270.7 c 4,57,58
 618.226 229.9 618.226 229.9 575.726 201.425 c 132,-1,59
 533.226 172.95 533.226 172.95 484.775 163.601 c 4,60,61
 435.476 153.4 435.476 153.4 385.325 164.025 c 132,-1,62
 335.176 174.65 335.176 174.65 295.226 203.55 c 4,63,64
 245.926 238.4 245.926 238.4 218.726 293.65 c 5,65,66
 214.476 247.75 214.476 247.75 226.375 203.55 c 4,67,68
 228.926 195.9 228.926 195.9 231.476 188.25 c 5,69,70
 239.125 183.15 239.125 183.15 247.625 178.05 c 4,71,72
 307.976 143.2 307.976 143.2 375.976 140.65 c 4,73,74
 382.775 140.65 382.775 140.65 387.45 135.125 c 132,-1,75
 392.125 129.601 392.125 129.601 392.125 122.8 c 132,-1,76
 392.125 116 392.125 116 386.601 111.325 c 132,-1,77
 381.075 106.65 381.075 106.65 374.275 106.65 c 4,78,79
 314.775 109.2 314.775 109.2 257.825 134.7 c 5,80,81
 260.375 129.601 260.375 129.601 263.775 125.351 c 4,82,83
 312.226 58.2002 312.226 58.2002 393.825 31.8506 c 4,84,85
 472.875 6.35059 472.875 6.35059 555.325 30.1504 c 4,86,87
 635.226 53.1006 635.226 53.1006 693.025 116 c 4,88,89
 708.325 133 708.325 133 721.926 153.4 c 5,90,91
 722.775 156.8 722.775 156.8 723.625 160.2 c 4,92,93
 726.176 174.65 726.176 174.65 727.025 189.95 c 4,94,95
 734.676 284.3 734.676 284.3 687.926 365.9 c 5,55,56
688.775 65 m 5,96,97
 632.676 17.4004 632.676 17.4004 564.676 -3 c 4,98,99
 472.875 -29.3496 472.875 -29.3496 383.625 -0.450195 c 4,100,101
 291.825 29.2998 291.825 29.2998 236.575 105.8 c 4,102,103
 222.976 124.5 222.976 124.5 212.775 145.75 c 4,104,105
 207.676 155.95 207.676 155.95 203.426 166.15 c 5,106,107
 194.926 172.101 194.926 172.101 187.275 178.9 c 4,108,109
 147.325 211.2 147.325 211.2 120.976 253.7 c 4,110,111
 81.0254 318.3 81.0254 318.3 75.9258 397.351 c 132,-1,112
 70.8252 476.4 70.8252 476.4 101.851 546.101 c 132,-1,113
 132.875 615.801 132.875 615.801 195.351 663.825 c 132,-1,114
 257.825 711.851 257.825 711.851 333.476 725.45 c 4,115,116
 436.325 743.301 436.325 743.301 531.525 693.15 c 4,117,118
 551.075 682.95 551.075 682.95 569.775 669.351 c 5,119,120
 591.025 663.4 591.025 663.4 611.426 654.9 c 4,121,122
 667.525 630.25 667.525 630.25 710.875 586.9 c 4,123,124
 776.325 521.45 776.325 521.45 800.125 431.351 c 4,125,126
 823.926 342.95 823.926 342.95 801.825 252.851 c 4,127,128
 792.476 213.75 792.476 213.75 775.476 178.05 c 4,129,130
 766.125 158.5 766.125 158.5 754.226 139.8 c 5,131,132
 749.125 117.7 749.125 117.7 740.625 95.6006 c 4,133,134
 705.775 2.9502 705.775 2.9502 627.575 -55.7002 c 4,135,136
 576.575 -93.9502 576.575 -93.9502 514.525 -111.375 c 132,-1,137
 452.476 -128.8 452.476 -128.8 389.575 -122.425 c 132,-1,138
 326.676 -116.05 326.676 -116.05 269.301 -86.7246 c 132,-1,139
 211.926 -57.3994 211.926 -57.3994 169.426 -9.7998 c 4,140,141
 165.176 -4.7002 165.176 -4.7002 165.601 2.52539 c 132,-1,142
 166.025 9.75 166.025 9.75 171.125 14.4248 c 132,-1,143
 176.226 19.1006 176.226 19.1006 183.45 18.6748 c 132,-1,144
 190.676 18.25 190.676 18.25 194.926 12.2998 c 4,145,146
 233.176 -30.2002 233.176 -30.2002 285.025 -56.5498 c 132,-1,147
 336.875 -82.8994 336.875 -82.8994 392.976 -88.4248 c 132,-1,148
 449.075 -93.9502 449.075 -93.9502 505.176 -78.2246 c 132,-1,149
 561.275 -62.5 561.275 -62.5 607.176 -28.5 c 4,150,151
 657.325 8.90039 657.325 8.90039 688.775 65 c 5,96,97
228.075 419.45 m 5,152,153
 247.625 449.2 247.625 449.2 272.275 472.15 c 4,154,155
 323.275 518.9 323.275 518.9 390.426 535.051 c 4,156,157
 482.226 557.15 482.226 557.15 572.325 517.2 c 5,158,159
 619.926 495.101 619.926 495.101 659.875 457.7 c 5,160,161
 648.825 545.25 648.825 545.25 586.775 609.851 c 4,162,163
 572.325 625.15 572.325 625.15 554.476 638.75 c 5,164,165
 551.075 639.601 551.075 639.601 546.825 640.45 c 4,166,167
 532.375 643.851 532.375 643.851 517.926 645.551 c 4,168,169
 449.926 653.2 449.926 653.2 387.875 629.4 c 4,170,171
 327.525 606.45 327.525 606.45 285.875 558.851 c 4,172,173
 244.226 510.4 244.226 510.4 231.476 449.2 c 4,174,175
 228.926 434.75 228.926 434.75 228.075 419.45 c 5,152,153
233.176 355.7 m 5,176,177
 236.575 340.4 236.575 340.4 241.676 327.65 c 4,178,179
 263.775 267.3 263.775 267.3 314.775 230.75 c 4,180,181
 349.625 206.101 349.625 206.101 392.976 197.175 c 132,-1,182
 436.325 188.25 436.325 188.25 477.976 196.75 c 4,183,184
 520.476 205.25 520.476 205.25 557.025 229.9 c 132,-1,185
 593.575 254.55 593.575 254.55 618.226 290.25 c 4,186,187
 651.375 337 651.375 337 659.025 396.5 c 4,188,189
 659.875 401.601 659.875 401.601 659.875 406.7 c 5,190,191
 656.476 411.8 656.476 411.8 653.075 415.2 c 4,192,193
 612.275 461.95 612.275 461.95 557.875 485.75 c 4,194,195
 478.825 521.45 478.825 521.45 398.075 501.9 c 4,196,197
 340.275 487.45 340.275 487.45 295.226 446.65 c 4,198,199
 261.226 416.05 261.226 416.05 241.676 374.4 c 4,200,201
 236.575 365.05 236.575 365.05 233.176 355.7 c 5,176,177
EndSplineSet
EndChar

StartChar: K
Encoding: 43 75 46
Width: 609
GlyphClass: 2
Flags: W
LayerCount: 2
Fore
SplineSet
181 629 m 1,0,-1
 181 338 l 1,1,-1
 462 629 l 1,2,-1
 571 629 l 1,3,-1
 296 346 l 1,4,-1
 588 0 l 1,5,-1
 486 0 l 1,6,-1
 243 291 l 1,7,-1
 181 227 l 1,8,-1
 181 0 l 1,9,-1
 101 0 l 1,10,-1
 101 629 l 1,11,-1
 181 629 l 1,0,-1
EndSplineSet
EndChar

StartChar: L
Encoding: 44 76 47
Width: 468
GlyphClass: 2
Flags: W
LayerCount: 2
Fore
SplineSet
180 69 m 1,0,-1
 460 69 l 1,1,-1
 460 0 l 1,2,-1
 101 0 l 1,3,-1
 101 629 l 1,4,-1
 180 629 l 1,5,-1
 180 69 l 1,0,-1
EndSplineSet
EndChar

StartChar: M
Encoding: 45 77 48
Width: 848
GlyphClass: 2
Flags: W
LayerCount: 2
Fore
SplineSet
214 629 m 1,0,-1
 426 203 l 1,1,-1
 636 629 l 1,2,-1
 747 629 l 1,3,-1
 747 0 l 1,4,-1
 668 0 l 1,5,-1
 668 517 l 1,6,-1
 452 79 l 1,7,-1
 399 79 l 1,8,-1
 180 524 l 1,9,-1
 180 0 l 1,10,-1
 101 0 l 1,11,-1
 101 629 l 1,12,-1
 214 629 l 1,0,-1
187.275 224.8 m 5,13,14
 178.775 280.05 178.775 280.05 190.676 332.75 c 4,15,16
 193.226 345.5 193.226 345.5 197.476 358.25 c 5,17,18
 194.926 371 194.926 371 194.075 384.601 c 4,19,20
 191.525 420.3 191.525 420.3 198.325 455.15 c 4,21,22
 212.775 525.7 212.775 525.7 260.375 580.95 c 4,23,24
 307.125 634.5 307.125 634.5 375.125 660.851 c 4,25,26
 421.875 678.7 421.875 678.7 472.875 681.25 c 5,27,28
 405.726 703.351 405.726 703.351 338.575 691.45 c 4,29,30
 272.275 680.4 272.275 680.4 216.176 637.051 c 132,-1,31
 160.075 593.7 160.075 593.7 132.45 532.075 c 132,-1,32
 104.825 470.45 104.825 470.45 109.5 399.9 c 132,-1,33
 114.176 329.351 114.176 329.351 149.875 271.55 c 4,34,35
 166.025 246.05 166.025 246.05 187.275 224.8 c 5,13,14
637.775 602.2 m 5,36,37
 685.375 536.75 685.375 536.75 693.875 458.55 c 4,38,39
 694.726 445.8 694.726 445.8 694.726 433.05 c 5,40,41
 695.575 426.25 695.575 426.25 694.726 417.75 c 5,42,43
 698.976 411.8 698.976 411.8 703.226 405.851 c 4,44,45
 706.625 401.601 706.625 401.601 709.176 396.5 c 4,46,47
 755.926 323.4 755.926 323.4 761.875 234.15 c 5,48,49
 766.125 247.75 766.125 247.75 768.676 260.5 c 4,50,51
 789.075 342.95 789.075 342.95 767.825 422.851 c 4,52,53
 745.726 504.45 745.726 504.45 687.075 562.25 c 4,54,55
 664.976 585.2 664.976 585.2 637.775 602.2 c 5,36,37
687.926 365.9 m 5,56,57
 676.025 313.2 676.025 313.2 646.275 270.7 c 4,58,59
 618.226 229.9 618.226 229.9 575.726 201.425 c 132,-1,60
 533.226 172.95 533.226 172.95 484.775 163.601 c 4,61,62
 435.476 153.4 435.476 153.4 385.325 164.025 c 132,-1,63
 335.176 174.65 335.176 174.65 295.226 203.55 c 4,64,65
 245.926 238.4 245.926 238.4 218.726 293.65 c 5,66,67
 214.476 247.75 214.476 247.75 226.375 203.55 c 4,68,69
 228.926 195.9 228.926 195.9 231.476 188.25 c 5,70,71
 239.125 183.15 239.125 183.15 247.625 178.05 c 4,72,73
 307.976 143.2 307.976 143.2 375.976 140.65 c 4,74,75
 382.775 140.65 382.775 140.65 387.45 135.125 c 132,-1,76
 392.125 129.601 392.125 129.601 392.125 122.8 c 132,-1,77
 392.125 116 392.125 116 386.601 111.325 c 132,-1,78
 381.075 106.65 381.075 106.65 374.275 106.65 c 4,79,80
 314.775 109.2 314.775 109.2 257.825 134.7 c 5,81,82
 260.375 129.601 260.375 129.601 263.775 125.351 c 4,83,84
 312.226 58.2002 312.226 58.2002 393.825 31.8506 c 4,85,86
 472.875 6.35059 472.875 6.35059 555.325 30.1504 c 4,87,88
 635.226 53.1006 635.226 53.1006 693.025 116 c 4,89,90
 708.325 133 708.325 133 721.926 153.4 c 5,91,92
 722.775 156.8 722.775 156.8 723.625 160.2 c 4,93,94
 726.176 174.65 726.176 174.65 727.025 189.95 c 4,95,96
 734.676 284.3 734.676 284.3 687.926 365.9 c 5,56,57
688.775 65 m 5,97,98
 632.676 17.4004 632.676 17.4004 564.676 -3 c 4,99,100
 472.875 -29.3496 472.875 -29.3496 383.625 -0.450195 c 4,101,102
 291.825 29.2998 291.825 29.2998 236.575 105.8 c 4,103,104
 222.976 124.5 222.976 124.5 212.775 145.75 c 4,105,106
 207.676 155.95 207.676 155.95 203.426 166.15 c 5,107,108
 194.926 172.101 194.926 172.101 187.275 178.9 c 4,109,110
 147.325 211.2 147.325 211.2 120.976 253.7 c 4,111,112
 81.0254 318.3 81.0254 318.3 75.9258 397.351 c 132,-1,113
 70.8252 476.4 70.8252 476.4 101.851 546.101 c 132,-1,114
 132.875 615.801 132.875 615.801 195.351 663.825 c 132,-1,115
 257.825 711.851 257.825 711.851 333.476 725.45 c 4,116,117
 436.325 743.301 436.325 743.301 531.525 693.15 c 4,118,119
 551.075 682.95 551.075 682.95 569.775 669.351 c 5,120,121
 591.025 663.4 591.025 663.4 611.426 654.9 c 4,122,123
 667.525 630.25 667.525 630.25 710.875 586.9 c 4,124,125
 776.325 521.45 776.325 521.45 800.125 431.351 c 4,126,127
 823.926 342.95 823.926 342.95 801.825 252.851 c 4,128,129
 792.476 213.75 792.476 213.75 775.476 178.05 c 4,130,131
 766.125 158.5 766.125 158.5 754.226 139.8 c 5,132,133
 749.125 117.7 749.125 117.7 740.625 95.6006 c 4,134,135
 705.775 2.9502 705.775 2.9502 627.575 -55.7002 c 4,136,137
 576.575 -93.9502 576.575 -93.9502 514.525 -111.375 c 132,-1,138
 452.476 -128.8 452.476 -128.8 389.575 -122.425 c 132,-1,139
 326.676 -116.05 326.676 -116.05 269.301 -86.7246 c 132,-1,140
 211.926 -57.3994 211.926 -57.3994 169.426 -9.7998 c 4,141,142
 165.176 -4.7002 165.176 -4.7002 165.601 2.52539 c 132,-1,143
 166.025 9.75 166.025 9.75 171.125 14.4248 c 132,-1,144
 176.226 19.1006 176.226 19.1006 183.45 18.6748 c 132,-1,145
 190.676 18.25 190.676 18.25 194.926 12.2998 c 4,146,147
 233.176 -30.2002 233.176 -30.2002 285.025 -56.5498 c 132,-1,148
 336.875 -82.8994 336.875 -82.8994 392.976 -88.4248 c 132,-1,149
 449.075 -93.9502 449.075 -93.9502 505.176 -78.2246 c 132,-1,150
 561.275 -62.5 561.275 -62.5 607.176 -28.5 c 4,151,152
 657.325 8.90039 657.325 8.90039 688.775 65 c 5,97,98
228.075 419.45 m 5,153,154
 247.625 449.2 247.625 449.2 272.275 472.15 c 4,155,156
 323.275 518.9 323.275 518.9 390.426 535.051 c 4,157,158
 482.226 557.15 482.226 557.15 572.325 517.2 c 5,159,160
 619.926 495.101 619.926 495.101 659.875 457.7 c 5,161,162
 648.825 545.25 648.825 545.25 586.775 609.851 c 4,163,164
 572.325 625.15 572.325 625.15 554.476 638.75 c 5,165,166
 551.075 639.601 551.075 639.601 546.825 640.45 c 4,167,168
 532.375 643.851 532.375 643.851 517.926 645.551 c 4,169,170
 449.926 653.2 449.926 653.2 387.875 629.4 c 4,171,172
 327.525 606.45 327.525 606.45 285.875 558.851 c 4,173,174
 244.226 510.4 244.226 510.4 231.476 449.2 c 4,175,176
 228.926 434.75 228.926 434.75 228.075 419.45 c 5,153,154
233.176 355.7 m 5,177,178
 236.575 340.4 236.575 340.4 241.676 327.65 c 4,179,180
 263.775 267.3 263.775 267.3 314.775 230.75 c 4,181,182
 349.625 206.101 349.625 206.101 392.976 197.175 c 132,-1,183
 436.325 188.25 436.325 188.25 477.976 196.75 c 4,184,185
 520.476 205.25 520.476 205.25 557.025 229.9 c 132,-1,186
 593.575 254.55 593.575 254.55 618.226 290.25 c 4,187,188
 651.375 337 651.375 337 659.025 396.5 c 4,189,190
 659.875 401.601 659.875 401.601 659.875 406.7 c 5,191,192
 656.476 411.8 656.476 411.8 653.075 415.2 c 4,193,194
 612.275 461.95 612.275 461.95 557.875 485.75 c 4,195,196
 478.825 521.45 478.825 521.45 398.075 501.9 c 4,197,198
 340.275 487.45 340.275 487.45 295.226 446.65 c 4,199,200
 261.226 416.05 261.226 416.05 241.676 374.4 c 4,201,202
 236.575 365.05 236.575 365.05 233.176 355.7 c 5,177,178
EndSplineSet
EndChar

StartChar: N
Encoding: 46 78 49
Width: 685
GlyphClass: 2
Flags: W
LayerCount: 2
Fore
SplineSet
193 629 m 1,0,-1
 505 124 l 1,1,-1
 505 629 l 1,2,-1
 584 629 l 1,3,-1
 584 0 l 1,4,-1
 496 0 l 1,5,-1
 179 512 l 1,6,-1
 179 0 l 1,7,-1
 99 0 l 1,8,-1
 99 629 l 1,9,-1
 193 629 l 1,0,-1
1081 95.084 m 5,10,11
 1072.5 92.5342 1072.5 92.5342 1064.85 90.834 c 4,12,13
 1030 84.8838 1030 84.8838 995.147 98.4844 c 4,14,15
 963.697 111.234 963.697 111.234 939.047 138.435 c 4,16,17
 899.098 181.784 899.098 181.784 885.497 256.584 c 4,18,19
 882.098 275.284 882.098 275.284 879.547 298.234 c 5,20,21
 865.947 303.334 865.947 303.334 856.598 306.734 c 4,22,23
 796.247 329.684 796.247 329.684 763.098 358.584 c 5,24,25
 758.848 352.634 758.848 352.634 755.447 348.384 c 4,26,27
 708.697 282.934 708.697 282.934 716.348 202.185 c 4,28,29
 717.197 195.384 717.197 195.384 712.947 189.859 c 132,-1,30
 708.697 184.334 708.697 184.334 701.473 183.909 c 132,-1,31
 694.247 183.484 694.247 183.484 688.723 187.734 c 132,-1,32
 683.197 191.984 683.197 191.984 683.197 198.784 c 4,33,34
 672.997 291.434 672.997 291.434 727.397 367.934 c 4,35,36
 733.348 375.584 733.348 375.584 739.297 382.384 c 5,37,38
 718.047 408.734 718.047 408.734 710.397 438.484 c 4,39,40
 701.047 476.734 701.047 476.734 714.647 510.734 c 4,41,42
 730.797 548.984 730.797 548.984 767.348 563.435 c 4,43,44
 786.897 571.084 786.897 571.084 806.447 569.384 c 4,45,46
 826.848 567.685 826.848 567.685 843.848 555.784 c 4,47,48
 865.947 540.484 865.947 540.484 880.397 507.334 c 4,49,50
 888.897 489.484 888.897 489.484 893.997 469.084 c 5,51,52
 974.747 480.134 974.747 480.134 1045.3 441.884 c 4,53,54
 1085.25 420.634 1085.25 420.634 1115 386.209 c 132,-1,55
 1144.75 351.784 1144.75 351.784 1160.05 310.134 c 4,56,57
 1186.4 240.435 1186.4 240.435 1164.3 179.234 c 4,58,59
 1151.55 145.234 1151.55 145.234 1126.9 122.284 c 4,60,61
 1120.1 116.334 1120.1 116.334 1112.45 111.234 c 5,62,63
 1122.65 60.2344 1122.65 60.2344 1112.87 7.95898 c 132,-1,64
 1103.1 -44.3154 1103.1 -44.3154 1075.9 -87.666 c 4,65,66
 1072.5 -93.6162 1072.5 -93.6162 1065.27 -94.8906 c 132,-1,67
 1058.05 -96.166 1058.05 -96.166 1052.52 -92.7656 c 132,-1,68
 1047 -89.3662 1047 -89.3662 1045.3 -82.1406 c 132,-1,69
 1043.6 -74.916 1043.6 -74.916 1047 -68.9658 c 4,70,71
 1094.6 5.83398 1094.6 5.83398 1081 95.084 c 5,10,11
911.848 322.884 m 5,72,73
 960.297 304.184 960.297 304.184 987.497 288.034 c 4,74,75
 1069.95 237.884 1069.95 237.884 1102.25 146.084 c 5,76,77
 1103.1 146.935 1103.1 146.935 1103.95 146.935 c 4,78,79
 1122.65 164.784 1122.65 164.784 1132 191.134 c 4,80,81
 1149.85 239.584 1149.85 239.584 1128.6 298.234 c 4,82,83
 1115 333.934 1115 333.934 1089.07 363.684 c 132,-1,84
 1063.15 393.434 1063.15 393.434 1029.15 412.134 c 4,85,86
 969.647 443.584 969.647 443.584 901.647 435.084 c 5,87,88
 905.047 412.134 905.047 412.134 907.598 382.384 c 4,89,90
 908.447 372.184 908.447 372.184 909.723 351.784 c 132,-1,91
 910.997 331.384 910.997 331.384 911.848 322.884 c 5,72,73
786.897 382.384 m 5,92,93
 815.797 359.434 815.797 359.434 869.348 338.184 c 4,94,95
 872.747 337.334 872.747 337.334 876.997 335.634 c 5,96,97
 874.447 374.734 874.447 374.734 873.598 379.834 c 4,98,99
 871.897 407.884 871.897 407.884 868.497 428.284 c 5,100,101
 822.598 414.684 822.598 414.684 786.897 382.384 c 5,92,93
763.098 407.034 m 5,102,103
 805.598 446.134 805.598 446.134 860.848 461.434 c 5,104,105
 856.598 479.284 856.598 479.284 849.797 493.734 c 4,106,107
 838.747 518.384 838.747 518.384 824.297 527.734 c 4,108,109
 814.947 534.534 814.947 534.534 803.047 535.384 c 132,-1,110
 791.147 536.234 791.147 536.234 780.098 531.984 c 4,111,112
 756.297 522.634 756.297 522.634 746.098 497.984 c 4,113,114
 736.747 474.184 736.747 474.184 743.547 446.984 c 4,115,116
 748.647 426.584 748.647 426.584 763.098 407.034 c 5,102,103
915.247 284.634 m 5,117,118
 916.947 272.734 916.947 272.734 918.647 262.534 c 4,119,120
 931.397 197.935 931.397 197.935 964.547 161.384 c 4,121,122
 984.098 140.134 984.098 140.134 1007.9 129.935 c 4,123,124
 1033.4 119.734 1033.4 119.734 1058.9 124.834 c 4,125,126
 1065.7 125.685 1065.7 125.685 1072.5 128.234 c 5,127,128
 1059.75 169.034 1059.75 169.034 1032.97 203.034 c 132,-1,129
 1006.2 237.034 1006.2 237.034 970.497 258.284 c 4,130,131
 948.397 271.884 948.397 271.884 915.247 284.634 c 5,117,118
EndSplineSet
EndChar

